<svg xmlns:xlink="http://www.w3.org/1999/xlink" xmlns="http://www.w3.org/2000/svg" enable-background="new 0 0 3000 3000" viewBox="0 0 3000 3000" width="3000" height="3000"><linearGradient id="a" x1="1518.658" x2="1482.187" y1="-122.28" y2="3068.867" gradientUnits="userSpaceOnUse"><stop class="stopColor182b9b svgShape" offset=".262" stop-color="#3282b8"/><stop class="stopColor21032b svgShape" offset="1" stop-color="#171717"/></linearGradient><path fill="url(#a)" d="M251.52 1558.27c38.25 394.1 522.73 447.17 1155.16 537.96 320.92 41.6 601.2 43.36 848.08-43.27 241.11-87.03 448.83-262.45 491.63-584.52 41.44-313.74-110.39-665.84-398.09-887.8-281.61-226.57-699.08-323-1048.32-232.04-366.06 83.31-632.77 299.18-808.39 530.13-174.46 233.04-260.15 482.5-240.07 679.54z"/><path fill="#f4f2f2" d="M2307.72 549.74c-49.15 1.93-94.82 37.01-115.44 81.4-.66 1.41-1.81 2.16-3.39 2.13-6.16-.11-12.3.06-18.43.63-20.81 1.95-40.77 8.42-58.55 19.45-16.15 10.02-30.04 23.38-42.59 37.55-24.89 28.11-45.62 60.55-75.27 84.12-14.9 11.84-31.85 20.79-50.33 25.53-22.33 5.72-45.33 3.93-68.14 4.01-13.41.05-27.5.11-37.84 9.8-15.57 14.58-23.64 35.96-36.95 52.38-16.17 19.96-37.56 32.63-62.21 39.25-23.55 6.33-48.03 8.34-71.99 12.77 3.43 2.78 6.93 5.47 10.59 7.97 51.27 34.97 118.03 42.3 178.43 44.89 61.11 2.62 122.11-1.93 183.22-1.92 90.53.02 181.17 1.73 271.59-3.86 44.37-2.74 88.66-7.25 132.52-14.56 22.17-3.69 44.22-8.1 66.08-13.33 19.22-4.6 38.1-10.37 57.27-15.15 20.96-5.23 42.01-10.25 62.8-16.16-68.28-122.74-163.16-235.25-280.78-326-13.22-10.62-26.81-20.86-40.59-30.9zM453.27 1050.76c45.82 11.16 92.99 16.38 140.06 17.93 47.64 1.57 95.34-.69 142.77-5.18 46.34-4.38 92.84-10.13 138.57-18.86 94.8-18.12 186.05-51.54 271.57-96.06 18.8-9.79 37.22-20.29 55.88-30.33 16.27-8.76 32.41-17.79 47.96-27.76 27.78-17.82 61-41.27 71.39-74.39-36.55-11.73-75.31-3.85-112.92-5.73-8.57-.43-18.66.39-26.87-2.65-5.76-2.13-8.99-7.05-11.87-12.18-5.24-9.35-11.13-19.03-14.97-29.01-4.3-11.19-5.58-23.4-10.58-34.33-14.54-31.79-53.69-32.58-83.47-29.48-27.83 2.9-56.31 7.6-82.1-6.47-17.35-9.47-24.1-26.1-27.42-44.68-4.04-22.57-6.95-44.81-20.62-64.05-14.04-19.75-34.83-31.8-58.12-37.55-9.42-2.33-19.48-3.68-29.77-4.13-142.7 95.69-259.41 212.21-351.19 332.9-37.66 50.31-71.16 101.38-100.38 152.53 20.23 7.77 40.92 14.33 62.08 19.48z" class="colorf4f2f3 svgShape" opacity=".1"/><path fill="#d13d3d" d="m1734.82 774.43-164.66-285.19c-6.54-11.33-22.9-11.33-29.44 0l-164.66 285.19c-6.54 11.33 1.64 25.5 14.72 25.5h329.31c13.1 0 21.27-14.17 14.73-25.5z" class="colord1c63d svgShape"/><path fill="#871d1d" d="M1556.28 743.25c-14.04 0-23.07-8.83-23.07-20.26 0-11.44 9.03-20.47 23.07-20.47 13.84 0 22.87 9.03 22.87 20.47 0 11.43-9.03 20.26-22.87 20.26zm-21.47-150.28h42.74l-4.62 95.7h-33.51l-4.61-95.7z" class="color871d5c svgShape"/><path fill="#fff" d="M1630.46 598.6c-36 19.68-72.01 39.34-107.91 59.2-35.89 19.86-71.66 39.93-107.19 60.43-3.46 2-6.89 4.06-10.35 6.07l-28.94 50.13c-4.24 7.35-2.27 15.87 3.19 20.96 16.98-7.25 34.05-14.32 51.21-21.13 40.58-16.1 81.61-31.05 122.95-45.08 41.31-14.02 82.92-27.12 124.73-39.55 2.2-.65 4.4-1.28 6.6-1.93l-52.13-90.3c-.72.41-1.44.8-2.16 1.2z" class="colorffffff svgShape" enable-background="new" opacity=".25"/><path fill="#171717" d="M2609.14 1369.31c-28.32 1.32-53.95-2.76-77.06-10.52-24.53-5.2-48.59-12.07-71.76-20.47-48.7-17.65-91.56-45.58-127.02-83.45-36.75-39.25-64.17-85.97-88.99-133.39-36.83 30.46-55.31 77.32-92.19 108.01-37.54 31.25-84.21 47.51-130.92 59.44-49.98 12.76-99.96 21.15-151.67 21.12-52.68-.04-105.14-7.32-156.48-18.83-50.68-11.37-100.59-25.14-152.23-31.79-48.53-6.25-97.56-6.39-145.88 1.81-50.32 8.54-97.03 27.84-145.65 42.44-44.36 13.32-95.27 24.02-140.98 10.6-28.27-8.3-47.58-27.68-52.96-56.88-4.12-22.35-2.28-45.35-.72-68.17-17.47 38.36-59.61 65.51-98.73 76.36-21.84 6.06-44.46 5.76-64.96-4.54-20.48-10.29-36.69-27.54-51.7-44.63-17.51 57.46-46.37 110.32-87.02 154.78-37.22 40.7-82.32 73.27-130.15 100.37-51.86 29.39-106.06 56.04-161.06 79-68.73 28.7-146.62 53.4-222.72 53.25 70.49 352.77 541.22 405.23 1148.38 492.4 320.92 41.6 601.2 43.36 848.08-43.27 241.11-87.03 448.83-262.45 491.63-584.52 4.86-36.81 7.03-74.15 6.66-111.74-46.43 11.85-95.32 15.66-143.9 12.62z" class="color21032b svgShape" opacity=".2"/><path fill="#fff" d="M553.36 939.76c7.08 2.34 9.02 4.28 11.46 11.38 2.32-7.14 4.24-9.11 11.27-11.57-7.08-2.35-9.02-4.28-11.46-11.38-2.33 7.15-4.23 9.11-11.27 11.57zM1922.08 665.39c7.08 2.34 9.02 4.28 11.46 11.38 2.32-7.14 4.24-9.11 11.28-11.57-7.08-2.34-9.03-4.28-11.47-11.38-2.32 7.14-4.23 9.11-11.27 11.57zM1783.89 1060.26c9.66 3.2 12.32 5.84 15.65 15.53 3.17-9.75 5.78-12.43 15.39-15.79-9.67-3.2-12.32-5.84-15.65-15.53-3.17 9.75-5.79 12.43-15.39 15.79zM2503.92 910.47c9.66 3.2 12.32 5.84 15.65 15.53 3.17-9.75 5.79-12.43 15.39-15.79-9.66-3.2-12.32-5.84-15.65-15.54-3.17 9.75-5.78 12.43-15.39 15.8zM1582.83 428.4c9.66 3.2 12.32 5.84 15.65 15.53 3.17-9.75 5.78-12.43 15.39-15.79-9.66-3.2-12.32-5.84-15.65-15.53-3.17 9.74-5.79 12.43-15.39 15.79zM1029.94 813.36c9.66 3.2 12.32 5.84 15.65 15.53 3.17-9.75 5.78-12.43 15.39-15.8-9.66-3.2-12.31-5.84-15.65-15.53-3.17 9.75-5.78 12.43-15.39 15.8z" class="colorffffff svgShape"/><path fill="#fff" d="M2637.96 1127.76c-4.52.04-8.23-3.64-8.27-8.2-.04-4.6 3.6-8.34 8.13-8.38 4.53-.04 8.23 3.64 8.27 8.24.03 4.57-3.61 8.3-8.13 8.34zM2638.31 1170.38c-4.52.04-8.23-3.64-8.27-8.21-.04-4.6 3.6-8.33 8.13-8.37 4.53-.04 8.23 3.63 8.27 8.23.04 4.57-3.6 8.31-8.13 8.35z" class="colorffffff svgShape" opacity=".8"/><path fill="#fff" d="M2638.66 1212.99c-4.52.04-8.23-3.64-8.27-8.21-.04-4.6 3.6-8.34 8.13-8.38 4.53-.04 8.23 3.64 8.27 8.24.04 4.58-3.6 8.32-8.13 8.35z" class="colorffffff svgShape" opacity=".6"/><path fill="#fff" d="M2639.02 1255.61c-4.52.04-8.23-3.64-8.27-8.2-.04-4.6 3.6-8.34 8.13-8.38 4.53-.04 8.23 3.64 8.27 8.24.03 4.56-3.6 8.3-8.13 8.34z" class="colorffffff svgShape" opacity=".3"/><path fill="#fff" d="M1191.86 653.52c4.57-.04 8.3 3.6 8.34 8.13.04 4.56-3.64 8.26-8.2 8.3-4.57.04-8.31-3.6-8.35-8.16-.04-4.53 3.64-8.23 8.21-8.27zM1191.5 611.3c4.57-.04 8.3 3.6 8.34 8.13.04 4.56-3.64 8.26-8.2 8.3-4.57.04-8.31-3.6-8.35-8.16-.03-4.53 3.64-8.23 8.21-8.27z" class="colorffffff svgShape" opacity=".8"/><path fill="#fff" d="M1191.15 569.07c4.57-.04 8.3 3.6 8.34 8.13.04 4.56-3.64 8.26-8.2 8.3-4.57.04-8.31-3.61-8.35-8.17-.04-4.51 3.64-8.22 8.21-8.26z" class="colorffffff svgShape" opacity=".6"/><path fill="#fff" d="M1190.79 526.85c4.57-.04 8.3 3.6 8.34 8.13.04 4.56-3.64 8.26-8.2 8.3-4.57.04-8.31-3.6-8.35-8.16-.04-4.53 3.64-8.23 8.21-8.27z" class="colorffffff svgShape" opacity=".3"/><g class="color000000 svgShape"><path fill="#faa" d="m888.43 2480.42 17.4-51.18 52.08 22.3-24.7 48.05z" class="colorffafaa svgShape"/><path fill="#f05454" d="m905.83 2429.24 52.08 22.3-10.97 21.34c-.27-.18-.55-.34-.82-.53-3.62-2.45-7.63-4.3-11.77-5.66-4.15-1.37-8.46-2.78-12.79-3.44-1.14-.17-2.29-.27-3.44-.27-.06 0-.81.01-1.09.01h-.13c-1.22-.01-2.45-.02-3.67.03-2.32.1-5.03.44-6.26 2.68-1.2 2.19-.59 4.76 1.03 6.55 2.95 3.28 7.77 4.52 11.81 5.91 6.88 2.36 13.13 6.12 19.8 8.97l-6.4 12.45-44.78-19.17 17.4-51.17z" class="colord47c63 svgShape" opacity=".35"/><path fill="#3d3d3d" d="M954.44 2538.95c-14.54-15.37-12.83-44.85-12.86-44.87-11.91-7-30.33-13.36-56.59-23.88-5.4 22.83-42.05 54.44-35.75 69.92 6.34 15.54 12.59 19.49 39.66 28.9 27.06 9.42 60.02 27.58 86.09 38.56 26.08 10.97 43.11-5.95 43.11-5.95 8.5-20.19-46.53-44.58-63.66-62.68z" class="color132368 svgShape"/><path fill="#2897c7" d="M949.64 2587.38c-23.98-13.19-44.94-26.17-70.75-31.57-9.28-1.94-22.57-13.47-30.19-20.32-.39 2.39-.38 4.57.15 6.48 5.12 18.49 11.27 22.74 38.64 31.7s60.04 28.1 86.22 39.08c24.62 10.31 42.25-8.79 44.4-11.12-1.14.51-13.96 15.75-68.47-14.25zM954.91 2534.38c-5.29-3.6-12.11 14.72-7.99 14.18 4.12-.54 13.71-10.29 7.99-14.18zM969.55 2545.33c-5.29-3.6-12.11 14.72-7.99 14.18 4.12-.55 13.71-10.29 7.99-14.18zM984.19 2556.27c-5.29-3.6-12.11 14.72-7.99 14.18 4.12-.54 13.71-10.28 7.99-14.18z" class="color50a7e2 svgShape"/><linearGradient id="b" x1="1988.268" x2="2869.253" y1="2897.157" y2="2897.157" gradientTransform="scale(-1 1) rotate(-25.233 -1196.237 9474.07)" gradientUnits="userSpaceOnUse"><stop class="stopColor182b9b svgShape" offset=".008" stop-color="#3282b8"/><stop class="stopColor21032b svgShape" offset="1" stop-color="#171717"/></linearGradient><path fill="url(#b)" d="M966.56 2072.06s-286.61-208.36-438.34-390.1c-42.01-50.32 165.07 20.01 320.14-23.34 0 0 206.07 174.28 250.43 227.65 144.8 174.2-141.75 585.38-141.75 585.38l-63.75-30.03 73.27-369.56z"/><path fill="#fff" d="M916.31 1770.74c39.52-9.88 205.09 115.05 105.05 131.31-100.04 16.26-158.82 17.51-140.06-22.51 18.76-40.02-5-98.79 35.01-108.8zM1046.37 2222.19c-21.87-48.34 28.76-202.59 60.03-190.08 31.26 12.5-36.27 242.6-60.03 190.08z" class="colorffffff svgShape" opacity=".1"/><path fill="#171717" d="M929.69 2020.49c13.12-8.09 25.84-16.34 37.5-26.49 10.9-9.49 23.25-21.08 29.17-34.58 12.65-28.86-59.67-26.34-75.29-26.65-19.84-.39-39.84-1.3-59.37-5.03-16.65-3.18-37.19-8.45-47.39-23.32-4.73-6.89-7.33-17.02-3.58-24.91 2.19-4.6 6.32-7.03 10.27-9.93 4.93-3.62 7.85-8.87 8.65-14.95 1.75-13.42-4.64-26.7-5.82-39.95-1.21-13.6 3.38-25.03 11.94-35.43 17.13-20.81 43.49-36.79 69.84-42.44 10.61-2.28 21.81-2.17 32.68-.75-49.15-42.96-89.91-77.44-89.91-77.44-155.07 43.35-362.15-26.97-320.14 23.34 110.79 132.7 293.44 279.56 383.98 349.18 5.9-3.52 11.73-7.11 17.47-10.65z" class="color21032b svgShape" opacity=".35"/><path fill="#171717" d="m720.41 1872.85 191.75 151.73s-141.73-80.03-191.75-151.73z" class="color21032b svgShape"/><path fill="#eed1d1" d="m885.9 1689.43 88.79 77.53c-.01.01-36.9-48.76-88.79-77.53z" class="colord1e1ee svgShape"/><path fill="#171717" d="M791.75 1915.48s63.94 67.11 161.09 39.11c0 0-31.98 39.78-81.21 27.71-49.24-12.06-79.88-66.82-79.88-66.82zM1066.46 1977.81s42.06 12.85 56.81-25.06c0 0 3.14 22.17-17.78 36.79s-39.03-11.73-39.03-11.73zM1005.29 2236.43c5.44-20.54 17.17 91.07-30.72 118.07-.01-.01 23-88.92 30.72-118.07z" class="color21032b svgShape" opacity=".35"/><path fill="#171717" d="M938.75 2409.65c5.8-20.12 10.69-40.43 13.26-61.23 4.71-38.19 4.15-81.49 27.85-113.95 6.14-8.41 13.8-14.67 21.85-21.17 8.84-7.14 17.24-14.82 20.68-26.02 5.68-18.5.81-38.25 2.62-57.18 2.12-22.17 10.79-43.09 21.13-62.61 8.08-15.25 19.75-30.55 24.58-47.48-12.71 5.86-26.23 9.62-40.04 12.15-15.06 2.76-30.33 4.24-45.39 7.01-14 2.57-60.99 1.08-60.99 1.08l42.28 31.82-73.28 369.55 32.66 15.39c3.46-15.99 8.26-31.67 12.79-47.36z" class="color21032b svgShape" opacity=".35"/><path fill="#212121" d="M986.01 2067.47c11.83-5.79 24.25-9.97 36.7-14.2 6.38-2.16 12.71-4.45 18.95-7.02 2.66-1.09 5.24-2.57 7.88-3.83-8.78 12.04-19.56 22.5-29.13 33.92-11.06 13.2-20.53 27.98-29.08 42.9-30.07 52.44-42.22 111.36-54.19 169.94-6.21 30.42-13.26 60.58-21.49 90.52-5.86 21.33-12.1 42.56-18.32 63.78l-4.03-1.9 71.95-362.84c6.88-3.8 13.68-7.8 20.76-11.27z" class="color08083a svgShape" opacity=".25"/></g><g class="color000000 svgShape"><path fill="#faa" d="M2188.83 2412.64v149.19l-60.26 4.8-29.5-139.68z" class="colorffafaa svgShape"/><path fill="#dd8a8a" d="m2099.07 2426.95 16 75.76c8.23 6.14 19 8.32 29.24 4.22 9-3.61 18.7-15.05 29.02-8.34 8.44 5.49 14.29 19.31 7.55 28.09-7.07 9.21-21.64 9.6-31.19 4.7-10.69-5.48-20.89-12.99-32.22-17.34l11.11 52.58 60.26-4.8v-149.19l-89.77 14.32z" class="colordd8a8a svgShape" opacity=".25"/><path fill="#2b2b2b" d="M2146.08 2552.58s-18.94-36.37-30.13-32.49c-11.18 3.88-15.74 48-15.74 48s-60.73 20.31-77.7 21.38c-16.97 1.07-30.7 10.69-32.88 43.83h207.38s-1.4-74.83-1.78-87.65c-.38-12.83-18.64 3.21-18.64 3.21l-30.51 3.72z" class="color131e44 svgShape"/><path fill="#eed1d1" d="M1989.64 2634.59c-4.11-3.79.7-9.64 1.44-13.16.75-3.52 2.33 6 28.87 5.99 26.54-.02 176.53-5.67 180.69-.44 4.16 5.22-1.18 10.5-3.63 10.5-2.44-.01-196.34 7.28-207.37-2.89zM2109.2 2581.14c-8.52-10.15-20.92-13-30.25-5.35-1.54 1.26-3.55-1.59-2.03-2.84 10.69-8.76 25.24-4.98 34.91 6.53 1.45 1.73-1.19 3.37-2.63 1.66z" class="colord1e1ee svgShape"/><path fill="#eed1d1" d="M2092.02 2586.53c-8.52-10.15-20.92-13-30.25-5.35-1.54 1.26-3.55-1.59-2.03-2.84 10.69-8.76 25.24-4.98 34.91 6.53 1.45 1.73-1.19 3.37-2.63 1.66z" class="colord1e1ee svgShape"/><path fill="#eed1d1" d="M2074.26 2591.92c-8.52-10.15-20.91-13-30.25-5.35-1.54 1.26-3.55-1.59-2.03-2.84 10.69-8.76 25.24-4.98 34.91 6.53 1.45 1.73-1.19 3.38-2.63 1.66z" class="colord1e1ee svgShape"/><linearGradient id="c" x1="1856.336" x2="2486.198" y1="2727.069" y2="1167.409" gradientUnits="userSpaceOnUse"><stop class="stopColor871d5c svgShape" offset="0" stop-color="#871d1d"/><stop class="stopColor601843 svgShape" offset=".944" stop-color="#3c3c3c"/></linearGradient><path fill="url(#c)" d="M2124.12 2469.79c27.83-1.92 55.54-5.03 83.17-8.75 1.92-1.32 3.83-2.64 5.83-4.04 31.61-130.71-48.13-406.99-11.27-492.27 90.46-209.28 192.59-355.48 192.59-355.48s-256.62-143.73-285.14-115.45c-28.53 28.28-105.55 395.38-112.13 480.2-6.5 83.76 52.4 445.71 78.24 497.72 16.25-.22 32.49-.81 48.71-1.93z"/><path fill="#171717" d="M2097.94 2260.62c6.89-3.07 13.54-6.66 20.49-9.58 8.04-3.37 17.26-6.3 25.95-3.76 9 2.63 14.43 11.11 17.74 19.34 10.36 25.77 9.32 55.92 1.74 82.24-14.13 49.07-50.09 89.56-88.75 122.27.1.21.2.38.3.58 16.25-.21 32.5-.8 48.71-1.92 27.83-1.92 55.54-5.03 83.17-8.75 1.92-1.32 3.83-2.64 5.83-4.04 31.61-130.71-48.13-406.99-11.27-492.27 90.46-209.28 192.59-355.48 192.59-355.48s-256.62-143.73-285.14-115.45c-10.68 10.59-28.16 68.68-46.2 141.68 15.26-9.74 33.15-16.12 50.81-19.56 16.2-3.16 35.59-4.6 48.72 7.31 13.12 11.89 14.14 31.19 11.86 47.61-1.12 8.09-3.07 16.07-5.46 23.87-4.16 13.6-7.67 27.32-10.39 41.28-5.27 27.04-8.16 54.47-12.85 81.6-1.84 10.63-3.62 21.35-6.8 31.67-2.99 9.7-6.99 19.07-11.76 28.02-9.02 16.91-21.77 33.97-39.4 42.57-7.64 3.72-16.2 5.11-24.52 6.42-8.51 1.33-17.08 2.28-25.63 3.35-11.96 1.49-24.21 3.11-35.87 6.5-2.31 15.54-3.91 28.45-4.64 37.87-3.72 47.9 13.95 186.78 34.6 306.65 13.69-1.23 27.11-4.63 40.1-9.32 8.83-3.19 17.49-6.88 26.07-10.7z" class="color21032b svgShape" opacity=".5"/><path fill="#f4f2f2" d="M2064.84 1690.75c16.91-20.13 68.21-50.52 83.01-16.33 14.8 34.19-67.29 91.35-58.14 146.47 9.15 55.12-39.35 24.5-34.5-10.72 4.85-35.21-10.1-95.94 9.63-119.42z" class="colorf4f2f3 svgShape" opacity=".1"/><path fill="#171717" d="M2092.51 1607.87c13.6-8.61 28.91-16.07 45.12-17.76 15.16-1.58 29.84 2.73 41.3 12.89 11.16 9.9 14.38 25.26 16.38 39.46 2.16 15.27 2.54 30.75 2.57 46.14.02 8.91-1.15 17.33-4.05 25.79-3.14 9.17-7.68 17.75-11.84 26.48-3.98 8.33-7.84 16.98-9.17 26.19-1.24 8.57.1 16.98 3.12 25.05 5.58 14.91 14.19 28.57 12.51 45.16-3.47 34.23-37.91 53.22-49.03 84.08-3 8.32-4.01 17.22-2.97 26 1.12 9.43 5.24 17.97 9.8 26.17 4.74 8.53 9.99 16.82 13.78 25.84 4.38 10.42 5.94 21.36 6.78 32.56 1.79 23.83-.13 47.73-1.47 71.53-1.39 24.77-1.55 49.41 1.26 74.09 5.53 48.46 19.16 95.52 30.15 142.91 3.65 15.72 6.38 31.5 9.45 47.32 2.68 13.81 6.03 27.55 10.85 40.78.71 1.96 1.51 3.97 2.34 6.01 10.77-140.73-50.79-372.93-17.55-449.84 90.46-209.28 192.59-355.48 192.59-355.48s-256.62-143.73-285.14-115.45c-10.34 10.25-27.04 65-44.46 134.68 8.78-7.45 17.95-14.44 27.68-20.6z" class="color21032b svgShape" opacity=".5"/><path fill="#faa" d="m2546.82 2390 39.85 143.77-56.79 20.73-65.74-126.73z" class="colorffafaa svgShape"/><path fill="#dd8a8a" d="m2546.82 2390-82.68 37.77 24.9 48c9.36 2.34 19.25.26 27.97-3.42 8.19-3.45 16.87-8.15 26.07-6.77 7.61 1.14 13.57 6.07 17.68 12.36 7.02 10.74 12.12 29.83 2.92 40.81-8.34 9.95-24.95 8.76-34.56 1.33-6.91-5.35-12.48-13.78-22.16-13.93-.71-.01-1.38.09-2.06.17l24.99 48.17 56.79-20.72-39.86-143.77z" class="colordd8a8a svgShape" opacity=".25"/><path fill="#2b2b2b" d="M2543 2536.28s-27.97-29.99-37.71-23.26c-9.74 6.73-2.34 50.46-2.34 50.46s-53.1 35.79-69.16 41.36c-16.06 5.56-26.73 18.5-19.98 51.02l199.84-55.39s-21.34-71.73-25.12-83.99-17.1 8.07-17.1 8.07l-28.43 11.73z" class="color131e44 svgShape"/><path fill="#eed1d1" d="M2414.15 2657.09c-4.97-2.55-1.9-9.47-2.13-13.07-.22-3.59 3.85 5.16 29.42-1.94 25.57-7.11 168.6-52.61 174.01-48.69 5.4 3.92 1.67 10.43-.69 11.09-2.36.66-187.26 59.47-200.61 52.61zM2515.08 2573.65c-10.92-7.51-23.63-6.94-30.58 2.92-1.15 1.63-3.85-.59-2.71-2.2 7.96-11.29 23-11.54 35.39-3.03 1.86 1.28-.25 3.58-2.1 2.31z" class="colord1e1ee svgShape"/><path fill="#eed1d1" d="M2499.97 2583.43c-10.92-7.51-23.63-6.94-30.58 2.92-1.15 1.63-3.85-.59-2.71-2.2 7.96-11.29 23-11.54 35.39-3.03 1.85 1.29-.26 3.58-2.1 2.31z" class="colord1e1ee svgShape"/><path fill="#eed1d1" d="M2484.29 2593.37c-10.92-7.51-23.63-6.94-30.58 2.92-1.15 1.63-3.85-.59-2.71-2.2 7.96-11.29 23-11.54 35.39-3.03 1.86 1.29-.25 3.58-2.1 2.31z" class="colord1e1ee svgShape"/><linearGradient id="d" x1="1962.283" x2="2586.208" y1="2896.146" y2="1351.186" gradientTransform="rotate(-15.491 1673.325 1548.82)" gradientUnits="userSpaceOnUse"><stop class="stopColor871d5c svgShape" offset="0" stop-color="#871d1d"/><stop class="stopColor601843 svgShape" offset=".944" stop-color="#3c3c3c"/></linearGradient><path fill="url(#d)" d="M2530.37 1560.88s-59.38 168.17-90.65 394.01c-12.74 92.03 137.9 336.98 142.35 471.38-67.31 45.98-79.29 31.61-127.35 52.5-36.3-36.23-193.47-376.78-209.77-460.28-16.31-83.5-40.14-457.83-20.2-492.7 19.93-34.88 305.62 35.09 305.62 35.09z"/><path fill="#171717" d="M2269.5 1702.04c28.94 4.51 45.86 32.14 54.35 57.63 8.6 25.82 13.15 54.14 13.18 81.37.04 34.79-8.36 69.4-2.23 104.1 3.13 17.72 10 34.74 16.8 51.32 6.72 16.37 14.16 32.43 21.91 48.33 15.94 32.72 33.21 64.78 48.84 97.66 15.45 32.51 28.37 66.05 39.84 100.15 11.32 33.65 20.98 67.97 26.79 103.03 5.5 33.17 7.52 67.11 3.88 100.6-.76 7.02-1.85 13.99-3.12 20.92 24.69-6.01 44.6-8.26 92.35-40.88-4.45-134.4-155.09-379.34-142.35-471.38 31.27-225.84 90.65-394.01 90.65-394.01s-285.69-69.97-305.62-35.1c-8.97 15.69-9.08 100.15-5 195.9 13.82-12.78 30.79-22.59 49.73-19.64z" class="color21032b svgShape" opacity=".5"/><path fill="#f4f2f2" d="M2303.42 2178.42c5.48 2.75 11.12 5.21 16.85 6.86 8.12 2.33 18.93 2.62 22.86-6.43 2.91-6.69 1.68-14.83.31-21.74-1.64-8.25-4.25-16.28-6.91-24.25-2.11-6.31-4.71-12.74-5.75-19.34-1.89-12.03.46-24.25 1.72-36.21 1.11-10.55 2.47-23.88-5.17-32.44-6.26-7-15.98-9.48-24.21-13.29-8.54-3.95-16.12-9.87-21.28-17.8-10.27-15.77-8.44-35.61-5.26-53.24 3.24-17.92 9.7-36.85 7.55-55.25-1.59-13.57-8.08-39.12-26.26-37.42-9.58.9-18.68 10.46-22.32 18.86-2.08 4.8-1.82 10.39-1.36 15.49.54 5.89 1.6 11.72 2.17 17.61.74 7.54.03 15.01-1.31 22.4 3.34 33.2 6.76 60.14 9.9 76.24 5.76 29.5 29.1 91.06 58.47 159.95z" class="colorf4f2f3 svgShape" opacity=".1"/><path fill="#171717" d="M2239.04 1640.2c10.8-11.93 23.57-23.2 38.73-29.16 14.19-5.57 29.49-5.34 43.25 1.39 13.4 6.56 20.6 20.5 26.33 33.65 6.15 14.13 10.66 28.95 14.81 43.78 2.4 8.58 3.52 17.01 2.98 25.94-.58 9.67-2.65 19.16-4.34 28.68-1.61 9.09-3.02 18.45-1.84 27.68 1.1 8.59 4.63 16.34 9.7 23.3 9.36 12.88 21.3 23.74 24.12 40.18 5.8 33.91-22.32 61.41-24.79 94.12-.67 8.82.74 17.66 4.09 25.85 3.6 8.79 9.84 15.91 16.44 22.61 6.85 6.95 14.12 13.54 20.18 21.22 7 8.87 11.43 18.99 15.23 29.57 8.09 22.49 12.62 46.03 17.69 69.33 5.27 24.24 11.7 48.03 21.01 71.06 18.27 45.22 43.97 86.93 67.22 129.66 7.71 14.17 14.56 28.65 21.75 43.08 6.27 12.59 13.17 24.94 21.35 36.4a172.1 172.1 0 0 0 3.85 5.16c-27.21-138.49-148.55-345.81-137.06-428.81 31.27-225.84 90.65-394.01 90.65-394.01s-285.69-69.97-305.62-35.1c-7.22 12.64-8.7 69.87-6.87 141.67 6.45-9.53 13.41-18.72 21.14-27.25z" class="color21032b svgShape" opacity=".5"/><path fill="#eed1d1" d="M2572.01 2557.09c1.81 6.53-2.02 13.28-8.54 15.09-6.53 1.81-13.28-2.02-15.09-8.54-1.81-6.53 2.01-13.28 8.54-15.09 6.52-1.81 13.28 2.02 15.09 8.54z" class="colord1e1ee svgShape"/><path fill="#faa" d="M2086.97 1117.47s-151.71 162.27-123.13 193.95c28.58 31.68 157.26-18.5 157.26-18.5l31.68-140.45-65.81-35z" class="colorffafaa svgShape"/><path fill="#dd8a8a" d="M2086.97 1117.47s-16.38 17.54-37.34 42.16c3.94 1.72 7.69 4.04 11.08 6.98 9.58 8.31 17.37 21.61 15.13 34.73-1.06 6.18-4.34 11.67-9.32 15.5-7.43 5.72-16.28 7.28-25.42 7.45-5.91.11-12.73.54-15.72 6.45-2.16 4.26-3.2 8.69-6.73 12.15-6.84 6.71-16.27 9.37-25.62 7.46-3.35-.68-6.64-1.92-9.86-3.4-18.27 28.77-28.86 53.9-19.32 64.47 28.58 31.68 157.26-18.5 157.26-18.5l31.68-140.45-65.82-35z" class="colordd8a8a svgShape" opacity=".25"/><linearGradient id="e" x1="2085.594" x2="2350.97" y1="916.446" y2="1653.374" gradientUnits="userSpaceOnUse"><stop class="stopColorffe245 svgShape" offset="0" stop-color="#ff4545"/><stop class="stopColorde007b svgShape" offset=".526" stop-color="#de0000"/><stop class="stopColore38427 svgShape" offset="1" stop-color="#e32727"/></linearGradient><path fill="url(#e)" d="M2212.3 952.97s-163.62 133.2-161.83 177.39 102.3 53.3 102.3 53.3l59.53-230.69z"/><path fill="#7a1717" d="M2194.23 972.53s-18.88 24.78-20.34 39.98c0 0-7.54-20.72 20.34-39.98z" class="color7a1752 svgShape" enable-background="new" opacity=".5"/><path fill="#f4f2f2" d="M2116.03 1049.11c-4.26-3.36 35.16-34.76 49.01-41.85 13.86-7.08-39.31 49.51-49.01 41.85z" class="colorf4f2f3 svgShape" enable-background="new" opacity=".25"/><path fill="#7a1717" d="M2169.76 1071.28c-8-4.06-11.59-11.94-11.42-20.69.14-7.68 2.76-14.93 4.36-22.35-10.9 6.89-20.7 15.39-30.58 23.64-9.72 8.11-19.58 16.24-31.17 21.54-7.55 3.45-15.53 6.02-23.66 7.81-16.34 19.82-27.3 37.55-26.83 49.13 1.79 44.19 102.3 53.3 102.3 53.3l28.19-109.24c-3.89-.45-7.7-1.37-11.19-3.14z" class="color7a1752 svgShape" enable-background="new" opacity=".25"/><linearGradient id="f" x1="2098.67" x2="2364.046" y1="911.737" y2="1648.666" gradientUnits="userSpaceOnUse"><stop class="stopColorffe245 svgShape" offset="0" stop-color="#ff4545"/><stop class="stopColorde007b svgShape" offset=".526" stop-color="#de0000"/><stop class="stopColore38427 svgShape" offset="1" stop-color="#e32727"/></linearGradient><path fill="url(#f)" d="M2250.81 930.81c-88.03 21.08-176.78 250.95-162.26 475.53 0 0-59.53 38.18-29.7 69.02 29.83 30.84-26.12 30.78 2.82 69.19 28.93 38.4 193.47 17.63 255.34 36.49 61.87 18.86 202.21 20.04 224.37-23.99 22.17-44.03-57.88-325.44-98.68-432.41-62.44-163.65-128.57-208.99-191.89-193.83z"/><path fill="#7a1717" d="M2089.41 1357.96c11.56-4.12 22.32-10.89 34.27-13.76 27.64-6.61 50.41 14.21 76.36 19.25 13.13 2.55 27.09 1.74 40-1.69 11.4-3.03 19.97-10.61 29.63-16.91 5.21-3.39 10.69-6.11 16.62-8 6.51-2.08 13.27-3.33 19.63-5.86 13.69-5.45 23.02-17.63 31.11-29.45 3.57-5.21 6.92-10.54 10.74-15.58 3.94-5.19 8.03-10.27 11.68-15.67 6.79-10.05 11.97-21.95 8.34-34.21-2.65-8.95-10.45-14.48-18.49-18.33-8.91-4.27-18.38-7.21-27.17-11.75-8.73-4.51-17.02-10.21-22.3-18.69-5.36-8.62-6.6-18.91-6.46-28.87.19-13.23 2.3-26.36 3.18-39.55.47-6.98.69-14.02.05-21-.56-6.18-1.49-13.1-4.62-18.58-5.47-9.58-17.53-9.24-27.18-9.16-15.28.14-30.53.36-45.79 1.07-27.1 1.26-54.17 3.16-81.29 3.81-30.58 78.33-50.9 179.95-50.69 283.75.79-.27 1.6-.54 2.38-.82z" class="color7a1752 svgShape" enable-background="new" opacity=".25"/><path fill="#f4f2f2" d="M2152.01 1075.31c.91-13.55 17.68-61.94 37.73-68.66 20.04-6.73-38.42 78.87-37.73 68.66z" class="colorf4f2f3 svgShape" enable-background="new" opacity=".25"/><path fill="#7a1717" d="M2142.57 1451.08c9.93 2.07 19.49 5.5 29.52 7.11 12.49 2 25.47 2.41 38 .5 11.81-1.81 23.42-5.74 30.14-16.21 1.38-2.16 3.97-6.24 2.3-8.81-1.37-2.12-5.01-2.58-7.3-2.85-7.96-.95-16.11.27-24.02 1.17-26.12 2.97-54.01 2.22-78.16-9.25-13-6.17-23.65-15.09-33.16-25.78-3.61-4.07-7.79-7.79-12.38-10.9.25 6.77.59 13.54 1.03 20.31 0 0-59.53 38.18-29.7 69.02 29.83 30.84-26.12 30.78 2.82 69.19 8.73 11.59 29.87 17.77 56.76 21.3-3.24-10.56-9.24-20.83-2.22-31.37 4.65-6.99 12.5-9.9 19.25-14.28 2.58-1.67 5.25-3.81 5.99-6.95 1.08-4.59-1.56-9.95-3.81-13.78-4.92-8.34-15.37-12.58-22.19-19.17-3.17-3.06-5.91-6.89-6.29-11.41-.38-4.54 1.79-9.48 4.71-12.87 6.99-8.16 19.29-6.93 28.71-4.97zM2442.69 1124.64c-18.01-47.23-36.34-84.55-54.81-113.46-6.91 13.55-12.81 27.64-17.81 42-4.98 14.33-9.41 29.24-10.74 44.41-2.5 28.36.71 88.24 18.42 108.27 18.73 21.17 56.07 5.57 63.69 33.71 4.38 16.17 2.52 33.51-4.24 48.76-7.12 16.09-18.86 29.63-31.65 41.5-6.3 5.85-12.42 11.91-18.57 17.93-3.5 3.42-7.14 6.85-9.94 10.89-5.54 7.99-5.82 18.96-7.13 28.25-1.55 10.98.08 22.6-2.63 33.4-2.42 9.63-10.6 15.54-18.61 20.53-6.47 4.04-13.26 8.1-20.35 10.98-7 2.84-14.38 4.76-21.69 6.61-8.05 2.04-16.15 3.91-24.12 6.28-7.04 2.09-14.41 4.55-20.55 8.67-9.26 6.21-15.7 17.09-19.56 27.31-4.38 11.61-6.04 24.09-6.12 36.45-.07 11.7 1.32 23.46 3.84 34.99 30.56 1.19 58.33 3.28 76.87 8.93 61.87 18.86 202.21 20.04 224.37-23.99 22.18-44.03-57.86-325.45-98.67-432.42z" class="color7a1752 svgShape" enable-background="new" opacity=".25"/><path fill="#7a1717" d="M2510.93 1345.94c-28.62 35.59-73 53.41-115.04 68.38-10.14 3.61-20.33 7.12-30.47 10.75-3.52 6.9-10.16 11.66-16.75 15.76-6.47 4.04-13.26 8.1-20.35 10.98-7 2.84-14.38 4.76-21.69 6.61-6.88 1.74-13.78 3.42-20.62 5.33-1.35 1.5-2.49 3.15-3.21 5.01-1.82 4.69-1.2 9.62.7 14.18 4.46 10.71 13.72 19.44 22.92 26.16 3.95 2.88 8.14 5.64 12.67 7.52 6.09 2.52 12.55 2.54 18.87.92 13.26-3.39 24.52-12.25 36.48-18.51 11.26-5.89 24.32-10.31 36.77-12.78 12.08-2.4 26.66-2.49 35.24 7.85 7.71 9.28 9.38 25.2 23.38 27.91 5.31 1.03 10.76-.71 15.83-2.16 5.56-1.59 11.11-3.07 16.94-2.96 9.64.19 19.71 4.34 26.61 11.07 7.8 7.61 11.3 18.04 12.27 28.8 11.6-23.95-5.7-114.92-30.55-210.82z" class="color7a1752 svgShape" enable-background="new" opacity=".25"/><path fill="#faa" d="m2225.5 895.04-1.55 59.37s-20.01 51.61 21.29 46.16c60.48-7.98 61.49-64.54 61.49-64.54l-2.63-10.2-18.82-73.1c-6.78 6.15-58.34 42.35-59.78 42.31z" class="colorffafaa svgShape"/><path fill="#dd8a8a" d="m2304.11 925.83-18.82-73.1c-6.8 6.15-58.36 42.35-59.79 42.31l-.55 21.14c4.11 6.62 10.54 11.79 17.85 15.21 6.84 3.2 14.41 5.03 21.97 5.33 4.24.17 8.37-.32 12.47-1.36 3.4-.86 6.87-1.83 10.39-1.02 11 2.54 10.95 17.31 3.79 23.74-6.12 5.5-15.07 7.3-23.01 8.1-4.45.45-8.92.9-13.31 1.78-1.79.36-7.24 1.04-7.75 3.23-.35 1.52 2.1 4.2 2.92 5.28 1.31 1.73 2.75 3.35 4.11 5.04 2.16 2.69 3.71 5.73 4.36 9.14.52 2.7.32 5.08-.39 7.17 47.5-13.77 48.39-61.79 48.39-61.79l-2.63-10.2z" class="colordd8a8a svgShape" opacity=".25"/><path fill="#dd8a8a" d="m2298.97 905.87-13.68-53.14c-6.8 6.15-58.36 42.35-59.79 42.31l-.47 18.07c23.13 10.15 55.48 12.35 73.94-7.24z" class="colordd8a8a svgShape" opacity=".25"/><path fill="#2b2b2b" d="M2341.78 823.34c8.56-46.76-19.14-48.31-12.2-92.12 4.13-26.11-5.14-33.18-21.57-37.89 10.84-8.61 20.28-21.24 15.28-23.37-7.87-3.36-23.2 16.22-23.2 16.22s17.7-24.86 1.91-23.74c-9.73.69-11.89 15.31-12.13 26.45-7.2-1.74-15.1-3.65-23.21-7.1-133.5-56.82-149.18 63.77-100.87 82.68 48.31 18.91 120.72-.8 120.72-.8s-9.97 97.08 8.91 110.21c.01-.02 35.57 8.43 46.36-50.54z" class="color131e44 svgShape"/><path fill="#f4f2f2" d="M2157.97 731.34s-10.26-10.79-2.16-20.59l4.09 7.97s4.93-15.71 15.28-20.09c0 0-5.52 15.29-1.08 19.92l9.18-16.7 8.71 16.67s-1.71-32.58 18.84-37.32c0 0-15.88 24.61-4.82 31.54s21.38-12.01 21.38-12.01 7.36 23.21-.81 26.79c-8.17 3.58 26.06 14.37 26.06 14.37l-28.49-.93s-1.89 10.77 3.97 15.07c0 0-27.82-15.66-27.16-20.48l-7.27 9.04-7.93-10.62-10.15 5.03-8.33-11.95c.01.01-10.61-2.49-9.31 4.29z" class="colorf4f2f3 svgShape" opacity=".1"/><path fill="#faa" d="M2307.38 853.44c0 3.56-.35 7.15-.98 10.72-2.72 14.55-10.55 28.28-21.94 37.76-16.49 13.61-39.96 18.16-60.49 11.97-3.25-1.01-6.54-2.31-9.63-3.88-16.03-7.84-28.89-22.26-34.59-39.27-2.04-6.02-3.21-12.27-3.73-18.57-.74-7.93-.43-16.06.33-24.11.34-4.22.91-8.49 1.48-12.64 2.47-17.84 6.03-35.71 4.77-53.63 6.03 1.46 12.29 2.2 18.42 2.46 23.95.89 47.74-4.2 71.35-8.45 4.02-.71 8.89-1.24 11.69 1.86 1.48 1.61 1.99 3.78 2.45 5.94 3.73 17.14 7.47 34.27 11.21 51.35l.64-.12c2.1-6.09 5.46-12.14 10.91-15.61 5.45-3.47 13.44-3.52 17.77 1.26 1.32 1.43 2.22 3.17 2.7 5.04.83 2.54.95 5.31.85 8-.54 15.99-9.64 31.29-23.19 39.68l-.02.24z" class="colorffafaa svgShape"/><path fill="#2b2b2b" d="M2263.45 783.88c-2.89 1.21-20.16 11.28-23.7 8.33-3.55-2.95 1.67-9.28 13.66-13.9 11.98-4.61 12.84 4.4 10.04 5.57zM2210.69 793.16c-2.99-.94-22.67-4.4-23.48-8.94-.81-4.54 7.26-6.01 19.4-1.8 12.13 4.22 6.97 11.65 4.08 10.74zM2216.55 815.42s-11.22 19.76-7.81 25.17c3.42 5.41 12.33 6.45 13.54 3.34 1.21-3.11-11.12-1.88-10.12-6.12s9.3-19.54 4.39-22.39zM2247.83 872.51c-10.54-7.92-22.64-9.72-34.48-4.93-2.81 1.14-2.01 8.34.79 7.2 10.63-4.3 21.74-2.85 31.23 4.28 1.05.79 2.35.42 3.06-1.48.61-1.63.46-4.27-.6-5.07zM2207.81 804.85c-.37 4.6-3.79 8.07-7.65 7.76-3.85-.31-6.68-4.29-6.31-8.88.37-4.6 3.79-8.07 7.65-7.76 3.86.3 6.68 4.28 6.31 8.88zM2258.41 806.41c-.37 4.6-3.79 8.07-7.65 7.76-3.85-.31-6.68-4.29-6.31-8.88.37-4.6 3.79-8.07 7.65-7.76 3.86.31 6.68 4.29 6.31 8.88z" class="color131e44 svgShape"/><path fill="#dd8a8a" d="M2281.74 841.24c-.62 7.66-7.32 13.37-14.98 12.75-7.66-.62-13.36-7.32-12.75-14.98.62-7.66 7.32-13.36 14.98-12.75 7.66.61 13.37 7.32 12.75 14.98zM2197.06 841.35c-.62 7.65-7.34 13.37-14.99 12.76-2.23-.18-4.24-.86-6.05-1.92-.74-7.93-.43-16.06.33-24.11a13.99 13.99 0 0 1 7.95-1.72c7.66.62 13.38 7.34 12.76 14.99zM2252.13 767.71c11.28-1.91 22.43-4.48 33.47-7.44-.36-.95-.83-1.85-1.5-2.6-2.82-3.06-7.67-2.59-11.74-1.85-23.61 4.24-47.36 9.34-71.31 8.44-6.12-.26-12.4-1-18.46-2.47.17 2.43.24 4.86.25 7.29 23.16 2.86 46.08 2.56 69.29-1.37z" class="colordd8a8a svgShape" opacity=".25"/><path fill="#dd8a8a" d="M2328.97 823.91c-3.09 2.05-6.35 3.8-9.72 4.88-9.21 2.95-16.52-1.76-20.61-8.92.72 10.19.96 20.41.33 30.62-.35 5.65-.19 11.62-2.31 16.97-1.92 4.84-5.61 8.75-8.51 12.99-6.29 9.2-13.42 17.74-22.62 24.2-9.04 6.35-20.3 8.39-31.02 9.92-1.71.24-3.43.4-5.14.59 19.12 3.97 40-.78 55.07-13.24 11.43-9.47 19.23-23.18 21.94-37.76.64-3.53.97-7.13 1.02-10.71l-.02-.2v-.04c10.57-6.53 18.37-17.3 21.59-29.3z" class="colordd8a8a svgShape" opacity=".25"/><path fill="#2b2b2b" d="M2305.54 821.09c.04-1.38 9.33-17.44 12.47-11.52 3.15 5.91-7.45 20.91-7.45 20.91s5.71-16.14 4.42-17c-1.29-.87-9.57 11.98-9.44 7.61z" class="color131e44 svgShape"/><path fill="#fff" d="M2463.84 2581.27c0 6.23-2.9 11.27-6.48 11.27-3.58 0-6.48-5.05-6.48-11.27s2.9-11.27 6.48-11.27c3.58 0 6.48 5.04 6.48 11.27z" class="colorffffff svgShape"/><circle cx="2156.21" cy="2580.39" r="12.26" fill="#eed1d1" class="colord1e1ee svgShape"/><path fill="#eed1d1" fill-rule="evenodd" d="M2039.5 1077.71h207.13v276.81H2039.5z" class="colord1e1ee svgShape" clip-rule="evenodd" transform="rotate(-10.887 2142.705 1216.176)"/><g class="color000000 svgShape" opacity=".5"><path fill="#2897c7" fill-rule="evenodd" d="M2041.93 1108.12h73.17v13.38h-73.17z" class="color50a7e2 svgShape" clip-rule="evenodd" transform="rotate(-10.887 2078.29 1114.922)"/><path fill="#2897c7" fill-rule="evenodd" d="M2047.29 1119.83h161.69v37.31h-161.69z" class="color50a7e2 svgShape" clip-rule="evenodd" transform="rotate(-10.887 2127.787 1138.545)"/><path fill="#2897c7" fill-rule="evenodd" d="M2079.21 1276.15h161.69v56.71h-161.69z" class="color50a7e2 svgShape" clip-rule="evenodd" transform="rotate(-10.887 2159.734 1304.577)"/></g><path fill="#2897c7" d="M2183.69 1207.35c4.22 22.88-10.91 44.85-33.79 49.07-22.88 4.22-44.85-10.91-49.07-33.79-4.22-22.88 10.91-44.85 33.79-49.07 22.88-4.22 44.85 10.9 49.07 33.79z" class="color50a7e2 svgShape"/><path fill="#eed1d1" d="m2133.81 1211.88-1.3-7.06c-.85-4.63 2.22-9.08 6.84-9.94 4.63-.85 9.08 2.22 9.94 6.84l1.3 7.06 5.61-1.03-1.3-7.06c-1.42-7.72-8.86-12.84-16.58-11.41-7.72 1.42-12.84 8.86-11.41 16.58l1.3 7.06 5.6-1.04z" class="colord1e1ee svgShape"/><path fill="#eed1d1" d="m2158.06 1203.49-10.72 1.98c-.07.01-.15.01-.21 0l-21.87 4.03a3.311 3.311 0 0 0-2.65 3.85l4.4 23.89a3.307 3.307 0 0 0 3.85 2.64l32.37-5.97a3.307 3.307 0 0 0 2.65-3.84l-4.4-23.89a3.308 3.308 0 0 0-3.42-2.69zm-8.9 25.07-7.06 1.3s.12-5.93.29-9.17a3.622 3.622 0 0 1-2.6-2.85 3.687 3.687 0 0 1 7.25-1.34 3.67 3.67 0 0 1-1.42 3.6c1.3 2.97 3.54 8.46 3.54 8.46z" class="colord1e1ee svgShape"/><path fill="#3d3d3d" d="M2183.7 1207.35c4.22 22.89-10.92 44.86-33.79 49.08-12.67 2.34-25.06-1.25-34.3-8.83.28-.03.58-.09.87-.14 31.78-5.86 52.78-36.37 46.92-68.14-.05-.28-.11-.58-.18-.86 10.36 5.92 18.14 16.22 20.48 28.89z" class="color132368 svgShape" opacity=".1"/><path fill="#3d3d3d" fill-rule="evenodd" d="m2129.63 1101.35-96.05-3.56 30.16 254.43 173.16-7.53z" class="color132368 svgShape" clip-rule="evenodd" opacity=".1"/><path fill="#eed1d1" fill-rule="evenodd" d="M2060.65 1075.68h206.86v276.44h-206.86z" class="colord1e1ee svgShape" clip-rule="evenodd" transform="rotate(-1.146 2159.65 1211.75)"/><g class="color000000 svgShape" opacity=".5"><path fill="#2897c7" fill-rule="evenodd" d="M2081.13 1096.59h73.07v13.36h-73.07z" class="color50a7e2 svgShape" clip-rule="evenodd" transform="rotate(-1.146 2114.743 1102.053)"/><path fill="#2897c7" fill-rule="evenodd" d="M2081.77 1116.33h161.48v37.26h-161.48z" class="color50a7e2 svgShape" clip-rule="evenodd" transform="rotate(-1.146 2157.91 1132.873)"/><path fill="#2897c7" fill-rule="evenodd" d="M2085.13 1275.45h161.48v56.63h-161.48z" class="color50a7e2 svgShape" clip-rule="evenodd" transform="rotate(-1.146 2161.478 1301.477)"/></g><path fill="#2897c7" d="M2205.55 1212.13c.29 23.24-18.32 42.3-41.55 42.59-23.24.29-42.3-18.32-42.59-41.56-.29-23.24 18.32-42.3 41.55-42.59s42.31 18.33 42.59 41.56z" class="color50a7e2 svgShape"/><path fill="#eed1d1" d="m2155.7 1208.17-.09-7.17c-.06-4.7 3.72-8.57 8.41-8.62 4.7-.06 8.57 3.72 8.62 8.41l.09 7.17 5.69-.07-.09-7.17c-.1-7.84-6.55-14.13-14.39-14.04-7.84.1-14.13 6.55-14.04 14.39l.09 7.17 5.71-.07z" class="colord1e1ee svgShape"/><path fill="#eed1d1" d="m2180.98 1204-10.89.13a.71.71 0 0 1-.21-.03l-22.21.27a3.306 3.306 0 0 0-3.26 3.35l.3 24.26c.02 1.81 1.52 3.27 3.34 3.25l32.87-.4a3.301 3.301 0 0 0 3.26-3.33l-.3-24.26a3.301 3.301 0 0 0-2.9-3.24zm-13 23.18-7.17.09s1.12-5.81 1.83-8.97a3.625 3.625 0 0 1-2.08-3.25c-.03-2.03 1.6-3.69 3.64-3.72 2.03-.03 3.7 1.6 3.73 3.63.02 1.44-.8 2.69-2.01 3.3.79 3.14 2.06 8.92 2.06 8.92z" class="colord1e1ee svgShape"/><path fill="#3d3d3d" d="M2205.56 1212.13c.29 23.24-18.33 42.31-41.56 42.59-12.86.16-24.46-5.47-32.27-14.49.29.01.59.01.88.01 32.27-.4 58.1-26.87 57.7-59.14 0-.29-.01-.59-.03-.88 9.21 7.6 15.12 19.05 15.28 31.91z" class="color132368 svgShape" opacity=".1"/><path fill="#faa" d="M2300.16 1239.7c-7.12-5.84-41.6 16.31-41.6 16.31s49.24-43.94 40.89-49.83c-8.35-5.89-52.04 31.25-52.04 31.25s52.39-49.84 47.98-59.93c-4.41-10.09-59.96 45.59-59.96 45.59s39.6-55.78 31.72-62.1c-7.88-6.32-47.67 50.16-58.39 60-6.96 6.38-15.73 5.01-14.08-4.75 1.65-9.76-9.33-26.06-16.47-24.21-7.15 1.84 3.43 32.79-3.74 42.32-7.17 9.52-12.81 22.55-11.17 28.93-.96 15.9-223.38-45.66-203.04 55.7 21.32 106.27 233.27-14.41 233.27-14.41s18.45-.44 34.85-10.18c16.39-9.75 78.9-48.85 71.78-54.69z" class="colorffafaa svgShape"/><path fill="#f4f2f2" d="M1988.98 1280.01c4.02 20.37 149.89 2.27 157.79-6.69 7.9-8.96-162.55-17.46-157.79 6.69z" class="colorf4f2f3 svgShape" enable-background="new" opacity=".25"/><path fill="#f4f2f2" d="M1996.73 1278.03c2.63 13.35 98.23 1.49 103.41-4.39s-106.53-11.44-103.41 4.39z" class="colorf4f2f3 svgShape" enable-background="new" opacity=".5"/><path fill="#dd8a8a" d="M2169.27 1308.06c-5.16.84-9.08 4.4-13.06 7.53-4.35 3.42-8.69 6.15-14.03 7.71-10.8 3.16-22.2 3.01-33.34 2.89-11.68-.12-22.88.53-34.29 3.19-11.74 2.73-23.13 6.72-34.5 10.66-5.44 1.88-10.89 3.76-16.38 5.5-4.47 1.42-8.93 2.89-13.64 3.18-16.64.99-25.46-14.95-30.01-28.8-5.43-16.54-24.9-26.53-19.77-.95 18.91 94.23 188.72 10.6 225.85-10.17-5.63-1.33-11.64-1.58-16.83-.74zM2240.18 1190.88c-6.04 8.88-11.24 18.38-18.11 26.68-6.57 7.94-16.28 16.04-27.41 13.41-9.45-2.24-7.58-15.93-7.93-23.18-.17-3.66-.38-8.7-1.56-13.21 5.59 4.76 10.65 14.8 9.5 21.66-1.65 9.76 7.13 11.14 14.08 4.75 7.17-6.57 27.27-33.9 42.2-49.47-3.19 6.66-6.59 13.22-10.77 19.36zM2273.55 1188.25c-.56 1.12-1.25 2.18-1.74 3.34-1.24 2.89-2.3 5.84-3.78 8.62-1.47 2.78-3.53 5.21-5.66 7.51-3.95 4.25-8.52 8-13.21 11.42-2.04 1.49-4.2 3.05-6.58 3.95-.2.08-.83.35-1.2.38-.33-.75-.26-1.71-.16-2.49.15-1.15-.26-2.04-.92-2.68 7.21-7.02 21.15-20.29 33.25-30.05zM2265.89 1255.43c-1.89.28-4.66.9-6.65.16 3.47-2.19 21.01-13 32.38-16.03-3.83 4.66-9.34 8.18-14.14 11.46-3.75 2.55-7.13 3.76-11.59 4.41zM2251.77 1233.82c8.72-7.11 28.51-22.63 40.11-27.05-4.84 6.33-8.79 13.56-14.8 18.85-7.21 6.36-16.21 7.38-25.31 8.2z" class="colordd8a8a svgShape" opacity=".25"/><path fill="#fff" d="M2177.61 1193.33c-1.64 1.67-.94 5.84-.61 7.52 0 0 3.29 1.18 3.49-.89.21-2.06-1.24-8.29-2.88-6.63zM2266.45 1161.73c-2.21-.97-7.62 4.42-7.68 5.28 0 0 5.11 3.52 6.26 3.72 1.14.2 3.63-8.03 1.42-9zM2293.62 1178.85c-1.87-1.53-8.53 2.2-8.82 3.01 0 0 3.97 4.77 5.02 5.27 1.05.51 5.67-6.75 3.8-8.28zM2297.67 1208.39c-1.8-1.62-8.62 1.81-8.95 2.61 0 0 3.75 4.94 4.78 5.49 1.03.55 5.97-6.49 4.17-8.1zM2298.64 1240.82c-1.37-1.48-7.29.84-7.62 1.48 0 0 2.74 4.39 3.54 4.92.81.54 5.45-4.92 4.08-6.4z" class="colorffffff svgShape" opacity=".2"/><linearGradient id="g" x1="2220.899" x2="2477.645" y1="1372.323" y2="1372.323" gradientUnits="userSpaceOnUse"><stop class="stopColor182b9b svgShape" offset=".008" stop-color="#3282b8"/><stop class="stopColor21032b svgShape" offset="1" stop-color="#171717"/></linearGradient><path fill="url(#g)" d="M2426.57 1510.4c.01.04-.02.05-.02.05-.04.01-.04.01-.09-.01-148.37-14.55-205.56-175.21-205.56-175.21 1.16-.65 1.05-7.47 2.19-8.13 1.1-.64 3.45 4.9 4.53 4.25 63.03-37.87 85.99-93.52 87.41-97.08-.01-.04-.01-.04.04-.1.05.02.05.02.07.06 3.61 1.63 62.51 27.42 137.8 7.37-.01.01 70.35 155.36-26.37 268.8z"/><path fill="#fff" d="M2428.76 1502.27c.01.04-.02.05-.02.05-.04.01-.04.01-.09-.01-148.37-14.55-205.56-175.21-205.56-175.21 68.12-37.82 92.65-97.27 94.13-100.96-.01-.04-.01-.04.04-.1.05.02.05.02.07.06 3.61 1.63 62.51 27.42 137.8 7.37-.01.01 70.35 155.36-26.37 268.8z" class="colorffffff svgShape"/><linearGradient id="h" x1="2273.866" x2="2462.524" y1="1478.579" y2="1852.379" gradientTransform="rotate(-21.976 1593.467 1430.95)" gradientUnits="userSpaceOnUse"><stop class="stopColord1e1ee svgShape" offset=".02" stop-color="#eed1d1"/><stop class="stopColor50a7e2 svgShape" offset=".363" stop-color="#50b6e2"/><stop class="stopColor182b9b svgShape" offset="1" stop-color="#3282b8"/></linearGradient><path fill="url(#h)" d="M2425.34 1493.97c-122.45-14.52-180.2-134.69-192.31-163.4 54.01-32.11 79.73-76.51 88.34-94.27 18.53 6.81 67.85 20.93 128.99 6.57 11.21 29.06 53.07 155.65-25.02 251.1z"/><path fill="#fff" d="M2249.19 1337.03c-1.75 17.88 18.32 46.17 21.76 36.08s-20.84-45.54-21.76-36.08zM2254.08 1330.85c11.13.65 24.39-13.95 18.06-15.84-6.34-1.89-23.95 15.49-18.06 15.84z" class="colorffffff svgShape" opacity=".3"/><path fill="#fff" d="m2342.72 1345.8-6.17-15.3c-4.04-10.02.82-21.46 10.84-25.5 10.02-4.04 21.46.82 25.5 10.84l6.17 15.3 12.14-4.9-6.17-15.3c-6.74-16.71-25.83-24.83-42.54-18.08-16.71 6.74-24.82 25.83-18.08 42.54l6.17 15.3 12.14-4.9z" class="colorffffff svgShape"/><linearGradient id="i" x1="2307.52" x2="2386.498" y1="1599.957" y2="1745.018" gradientTransform="rotate(-21.976 1593.467 1430.95)" gradientUnits="userSpaceOnUse"><stop class="stopColord1e1ee svgShape" offset=".02" stop-color="#eed1d1"/><stop class="stopColor50a7e2 svgShape" offset=".582" stop-color="#50b6e2"/><stop class="stopColor182b9b svgShape" offset="1" stop-color="#3282b8"/></linearGradient><path fill="url(#i)" d="m2393.43 1315.8-23.2 9.36c-.17.07-.32.08-.47.09l-47.41 19.13a7.57 7.57 0 0 0-4.19 9.85l20.89 51.77c1.55 3.84 5.97 5.75 9.86 4.19l70.13-28.3c3.88-1.57 5.74-6.02 4.19-9.85l-20.89-51.77c-1.43-3.53-5.29-5.43-8.91-4.47zm-11.06 58.06-12.6 5.09s-2.02-11.05-2.95-17.12a6.867 6.867 0 0 1-5.9-4.31 6.942 6.942 0 0 1 3.85-9.06c3.58-1.44 7.66.26 9.1 3.83 1.02 2.53.42 5.31-1.3 7.22 3.55 5.01 9.8 14.35 9.8 14.35z"/><path fill="#3d3d3d" d="M2381.75 1248.55c.95 6.11 1.69 12.26 2.02 18.47 1.51 28.73-4.4 57.43-17.3 83.16-12 23.94-28.64 45.67-47.23 64.86a312.709 312.709 0 0 1-17.78 16.93c30.28 29.78 71.05 55.73 123.89 62 78.08-95.44 36.23-222.04 25.02-251.09a233.424 233.424 0 0 1-68.62 5.67z" class="color132368 svgShape" opacity=".2"/><path fill="#faa" d="M2487.75 1100.44s145.62 171.15 107.51 244.09c-38.11 72.93-193.18 82.67-193.18 82.67l-20.23-39.26 116.66-92.98-81.53-116.95 70.77-77.57z" class="colorffafaa svgShape"/><path fill="#dd8a8a" d="M2420.09 1357.46c3.37.43 6.69.66 9.78.78 14.24.53 29.02-1.46 42.53-6.06 5.63-1.92 11.31-4.28 16.22-7.69 4.85-3.36 7.81-7.58 10.53-12.78 2.39-4.56 4.24-9.98 9.18-12.39 5.38-2.63 13.34-2.48 18.99-1 13.11 3.46 24.97 11.36 38.34 13.91.91.17 2.12.42 2.97.31.83-.11.29.29.61-.39 1.28-2.76.2-6.86-.41-9.66-1.5-7-3.95-14.41-8.48-20.06-5.66-7.06-14.1-8.96-22.22-11.91-7.75-2.82-15.21-6.54-22.27-10.8-14.49-8.75-29.59-21.15-34.96-37.83-5.66-17.58 3.17-36.96 14.01-50.65 10.26-12.96 23.45-23.28 37.43-32.04-23.8-34.32-44.59-58.76-44.59-58.76l-70.77 77.56 81.53 116.95-78.42 62.51z" class="colordd8a8a svgShape" opacity=".25"/><path fill="#dd8a8a" d="M2474.66 1171.09c11.38-13.77 25.47-26.17 41.59-34.31-16.34-22.03-28.49-36.34-28.49-36.34l-70.77 77.56 31.3 44.9c4.08-19.06 14.14-37.02 26.37-51.81zM2455.74 1337.96c4.82-.83 10.29-1.85 14.65-4.15 4-2.12 5.62-5.86 7.49-9.74 1.66-3.45 3.68-6.41 6.98-8.47 4.28-2.68 9.53-4.18 14.38-5.5 10.89-2.98 22.31-3.86 33.57-3.51 5.43.17 10.74.68 16 2.12 1.72.47 3.43 1.06 5.1 1.72-2.74-2.09-5.3-4.4-8.06-6.47-5.92-4.46-12.39-8.14-19.66-9.82-5.72-1.33-11.78-1.9-17.64-1.71-3.42.11-7.21.52-10.56 1.78l.54.77-54.91 43.76c3.99.16 8.06-.09 12.12-.78z" class="colordd8a8a svgShape" opacity=".25"/><linearGradient id="j" x1="2336.026" x2="2601.402" y1="826.263" y2="1563.193" gradientUnits="userSpaceOnUse"><stop class="stopColorffe245 svgShape" offset="0" stop-color="#ff4545"/><stop class="stopColorde007b svgShape" offset=".526" stop-color="#de0000"/><stop class="stopColore38427 svgShape" offset="1" stop-color="#e32727"/></linearGradient><path fill="url(#j)" d="M2339.56 954.14s168.6 103.89 167.24 139.35c-1.36 35.46-65.25 111.67-102.03 103.5s-65.21-242.85-65.21-242.85z"/><path fill="#7a1717" d="M2356.02 964.54s-11.63-.94-17.07 11.99c-5.44 12.93.62 51.71.62 51.71s-12.98-39.47-9-56.13c5.44-22.8 25.45-7.57 25.45-7.57z" class="color7a1752 svgShape" enable-background="new" opacity=".5"/><path fill="#f4f2f2" d="M2425.32 1025.01c-1.69-6.24 75.79 54.13 67.36 63.43-8.41 9.3-64.81-53.99-67.36-63.43zM2409.5 1131.8c-6.12-12.25-8.42-30.62-3.06-43.38 5.36-12.76 41.59 53.33 23.73 62.52-17.86 9.18-20.67-19.14-20.67-19.14z" class="colorf4f2f3 svgShape" enable-background="new" opacity=".25"/><path fill="#7a1717" d="M2463.31 1147.42c-13 8.06-26.27 21.13-42.78 19.71-13.79-1.19-22.24-13.44-27.75-24.87-7.46-15.48-12.58-32.02-22.16-46.44-3.71-5.58-6.96-11.43-10.51-17.11-.24-.38-.49-.78-.74-1.18 11.63 58.03 27.52 115.5 45.4 119.47 27.58 6.12 70.37-35.18 90.64-71.18-10.04 8.06-21.15 14.81-32.1 21.6z" class="color7a1752 svgShape" enable-background="new" opacity=".25"/><path fill="#faa" d="M2315.43 1484.67c-1.96-7.53 27.21-26.17 27.21-26.17s-51.12 22.28-52.69 13.79c-1.57-8.49 42.37-28.91 42.37-28.91s-56.76 22.61-62.95 15.66c-6.19-6.95 56.17-29.92 56.17-29.92s-56.8 10.7-58.87 2.41c-2.07-8.28 55.34-18.87 66.68-23.63 7.36-3.09 9.4-10.31 1.33-12.49-8.07-2.18-16.71-16.36-12.77-21.2 3.94-4.83 23.96 14.21 33.8 12.07 9.84-2.14 21.84-1.86 26.15 1.65 12.54 4.88 31.96-17.11 31.96-17.11 2.1 3.1 13.17 21.92 15.75 37.55l-26.69 17.35s-6.85 14.01-20.12 23.16c-13.28 9.14-65.37 43.32-67.33 35.79z" class="colorffafaa svgShape"/><path fill="#dd8a8a" d="M2299.14 1421.38c8.95-1.5 18.08-2.14 26.87-4.48 8.41-2.24 18.06-6.83 19.97-16.3 1.62-8.05-9.55-11.45-15-14.27-2.75-1.43-6.54-3.36-9.59-5.86 1.68 5.97 7.6 13.41 13.27 14.94 8.07 2.18 6.03 9.4-1.33 12.49-7.58 3.18-35.66 8.96-52.88 14.92 6.26-.1 12.5-.4 18.69-1.44zM2285.33 1446.07c1.06-.03 2.12-.19 3.18-.16 2.65.07 5.3.3 7.95.15 2.66-.15 5.25-.87 7.77-1.69 4.66-1.53 9.15-3.71 13.43-6.11 1.86-1.04 3.83-2.15 5.36-3.66.13-.13.56-.52.72-.78-.46-.52-1.22-.8-1.86-1-.94-.29-1.47-.92-1.73-1.65-7.94 3.04-23.05 9.06-34.82 14.9zM2339.61 1463.92c.88-1.35 2.33-3.26 2.47-5.05-2.9 1.89-17.4 11.54-23.74 19.19 4.93-1.29 9.58-4.28 13.79-6.81 3.28-1.97 5.4-4.13 7.48-7.33zM2328 1445.45c-8.54 4.18-27.44 13.89-34.93 21.23 6.56-1.48 13.51-1.96 19.7-4.7 7.43-3.29 11.39-9.83 15.23-16.53z" class="colordd8a8a svgShape" opacity=".25"/><path fill="#fff" d="M2323.12 1374.23c1.86-.67 4.81 1.34 5.99 2.19 0 0-.26 2.94-1.91 2.37-1.66-.58-5.94-3.89-4.08-4.56zM2267.48 1431.25c.03-2.04 6.08-4.29 6.76-4.03 0 0 .9 5.17.65 6.12-.24.95-7.44-.05-7.41-2.09zM2271.03 1458.16c-.52-1.98 4.7-5.77 5.43-5.7 0 0 2.26 4.73 2.27 5.72.01.97-7.19 1.95-7.7-.02zM2292.27 1471.7c-.61-1.95 4.44-5.98 5.16-5.94 0 0 2.47 4.63 2.53 5.61.07.97-7.08 2.28-7.69.33zM2316.83 1483.9c-.65-1.57 3.22-5.3 3.83-5.33 0 0 2.4 3.65 2.53 4.46.12.81-5.71 2.44-6.36.87z" class="colorffffff svgShape" opacity=".2"/></g><g class="color000000 svgShape"><linearGradient id="k" x1="1291.471" x2="1625.065" y1="2041.816" y2="3190.393" gradientTransform="matrix(1 0 .2044 1 -307.3 0)" gradientUnits="userSpaceOnUse"><stop class="stopColord1e1ee svgShape" offset=".02" stop-color="#eed1d1"/><stop class="stopColor50a7e2 svgShape" offset=".363" stop-color="#50b6e2"/><stop class="stopColor182b9b svgShape" offset="1" stop-color="#3282b8"/></linearGradient><path fill="url(#k)" d="M1740.5 2618.42h-230.34l-86.59-423.59h230.34z"/><linearGradient id="l" x1="1291.471" x2="1625.066" y1="2041.816" y2="3190.394" gradientTransform="matrix(1 0 .2044 1 -307.3 0)" gradientUnits="userSpaceOnUse"><stop class="stopColor182b9b svgShape" offset=".008" stop-color="#3282b8"/><stop class="stopColor21032b svgShape" offset="1" stop-color="#171717"/></linearGradient><path fill="url(#l)" d="M1653.91 2194.83h-230.34l53.85 263.44c28.53-5.09 57.46-8.34 86.42-7.96 31.44.42 66.54 4.96 92.14 24.86 7.7 5.98 22.67 17.48 15.02 28.68-6.35 9.3-21.9 11.3-32.03 12.85-6.92 1.05-13.9 1.72-20.88 2.23-10.19.75-20.35 2.16-30.52 3.15-22.71 2.22-45.48 3.85-68.29 4.67-9.23.33-18.48.49-27.74.53l18.63 91.13h230.34l-86.6-423.58z" opacity=".2"/><linearGradient id="m" x1="1309.592" x2="2176.03" y1="1003.38" y2="3986.555" gradientUnits="userSpaceOnUse"><stop class="stopColord1e1ee svgShape" offset=".02" stop-color="#eed1d1"/><stop class="stopColor50a7e2 svgShape" offset=".363" stop-color="#50b6e2"/><stop class="stopColor182b9b svgShape" offset="1" stop-color="#3282b8"/></linearGradient><path fill="url(#m)" d="m954.82 2430.56-3.79-1.13c-37.74-11.22-61.42-46.98-57.57-86.98l65.96-683.11h-.11l2.73-29.95 7.52-74.98c4.59-47.74 45.73-85.22 93.64-85.22l1130.99-.1c23.93 0 45.69 9.44 61.26 26.59 15.65 17.23 23.01 39.94 20.7 63.95l-2.81 27.96-1.64 18.13-71.63 741.84c-3.74 38.95-32.17 71.94-70.74 82.09l-3.41.9H954.82z"/><linearGradient id="n" x1="1321.843" x2="2149.663" y1="1045.651" y2="3895.863" gradientUnits="userSpaceOnUse"><stop class="stopColord1e1ee svgShape" offset=".02" stop-color="#eed1d1"/><stop class="stopColor50a7e2 svgShape" offset=".363" stop-color="#50b6e2"/><stop class="stopColor182b9b svgShape" offset="1" stop-color="#3282b8"/></linearGradient><path fill="url(#n)" d="m2194.18 1496.32-1130.98.1c-33.53 0-63.32 27.18-66.55 60.71l-7.52 74.98h.28l-68.84 712.95c-2.66 27.67 13.62 50.96 38.22 58.27H2122.4c26.51-6.98 47.87-30.34 50.57-58.38l71.63-741.85h-.17l4.62-46.08c3.22-33.52-21.34-60.7-54.87-60.7z"/><linearGradient id="o" x1="1520.291" x2="1849.835" y1="1212.831" y2="2347.462" gradientTransform="matrix(1 0 -.104 1 154.952 0)" gradientUnits="userSpaceOnUse"><stop class="stopColord1e1ee svgShape" offset=".02" stop-color="#eed1d1"/><stop class="stopColor50a7e2 svgShape" offset=".363" stop-color="#50b6e2"/><stop class="stopColor182b9b svgShape" offset="1" stop-color="#3282b8"/></linearGradient><path fill="url(#o)" d="m2241.51 1632.11 7.53-75.09c3.23-33.53-21.33-60.7-54.86-60.7l-1130.98.1c-33.53 0-63.32 27.18-66.55 60.71l-7.52 74.98h1252.38z"/><path fill="#eed1d1" d="m992.21 1603.11-71.64 741.95c-2.66 27.66 13.62 50.96 38.22 58.27H2122.4c26.51-6.98 47.87-30.34 50.57-58.38l71.63-741.85H992.21zM1103.77 1553.57c-1.03 9.94-9.92 17.99-19.86 17.99s-17.15-8.05-16.12-17.99c1.03-9.93 9.92-17.99 19.86-17.99s17.15 8.06 16.12 17.99zM1168.62 1553.57c-1.03 9.94-9.93 17.99-19.86 17.99s-17.15-8.05-16.12-17.99c1.03-9.93 9.92-17.99 19.86-17.99s17.15 8.06 16.12 17.99zM1233.47 1553.57c-1.03 9.94-9.92 17.99-19.86 17.99s-17.15-8.05-16.12-17.99c1.03-9.93 9.92-17.99 19.86-17.99s17.16 8.06 16.12 17.99z" class="colord1e1ee svgShape"/><linearGradient id="p" x1="1534.908" x2="1708.392" y1="2430.382" y2="3027.697" gradientUnits="userSpaceOnUse"><stop class="stopColord1e1ee svgShape" offset=".02" stop-color="#eed1d1"/><stop class="stopColor50a7e2 svgShape" offset=".363" stop-color="#50b6e2"/><stop class="stopColor182b9b svgShape" offset="1" stop-color="#3282b8"/></linearGradient><path fill="url(#p)" d="M1834.63 2562.34h-474.34c-45 0-81.48 40.55-81.48 90.58h637.31c-.01-50.02-36.49-90.58-81.49-90.58z"/><linearGradient id="q" x1="1557.269" x2="1730.754" y1="2423.887" y2="3021.203" gradientUnits="userSpaceOnUse"><stop class="stopColor182b9b svgShape" offset=".008" stop-color="#3282b8"/><stop class="stopColor21032b svgShape" offset="1" stop-color="#171717"/></linearGradient><path fill="url(#q)" d="M1812.56 2587.95c-9.07 17.46-31.9 20.65-49.37 23.25-51.82 7.72-104.31 4.38-156.47 3.38-25.42-.49-50.83-.61-76.25-1.4-26.4-.82-52.86-1.61-79.26-.32-24.65 1.21-49.91 3.84-73.58 11.17-18.88 5.84-34.86 17.03-50.33 28.89h588.81c0-50.03-36.48-90.58-81.48-90.58h-19.37c2.05 8.58 1.37 17.78-2.7 25.61z" opacity=".1"/></g><g class="color000000 svgShape"><path fill="#faa" d="m270.81 2513.92 19.65-50.18 50.85 24.56-26.78 46.73z" class="colorffafaa svgShape"/><path fill="#f05454" d="m290.46 2463.74 50.85 24.56-11.89 20.75c-.26-.19-.53-.37-.79-.56-3.49-2.61-7.4-4.62-11.47-6.17-4.07-1.55-8.3-3.15-12.58-4.01-1.13-.22-2.27-.37-3.41-.43-.06 0-.8-.03-1.09-.03-.06 0-.11-.01-.13-.01-1.22-.06-2.43-.13-3.65-.13-2.32 0-5.03.21-6.35 2.39-1.29 2.13-.8 4.71.73 6.57 2.79 3.4 7.54 4.86 11.49 6.42 6.74 2.66 12.8 6.69 19.31 9.83l-6.94 12.11-43.72-21.12 19.64-50.17z" class="colord47c63 svgShape" opacity=".35"/><path fill="#3d3d3d" d="M333.9 2575.18c-13.79-15.96-10.75-45.25-10.78-45.26-11.54-7.51-29.6-14.68-55.27-26.34-6.41 22.49-44.34 52.31-38.77 68.01 5.61 15.76 11.66 19.98 38.19 30.58 26.52 10.6 58.52 30.18 83.99 42.3 25.47 12.11 43.2-3.98 43.2-3.98 9.37-19.73-44.32-46.5-60.56-65.31z" class="color132368 svgShape"/><path fill="#2897c7" d="M326.92 2623.2c-23.28-14.23-43.57-28.1-69.03-34.64-9.15-2.35-21.87-14.43-29.15-21.6-.49 2.36-.58 4.53-.14 6.46 4.26 18.64 10.19 23.16 37.04 33.31 26.85 10.16 58.52 30.7 84.09 42.81 24.05 11.39 42.47-6.83 44.71-9.07-1.14.48-14.6 15.07-67.52-17.27zM334.57 2570.66c-5.11-3.83-12.73 14.11-8.6 13.76 4.12-.35 14.12-9.62 8.6-13.76zM348.65 2582.22c-5.11-3.83-12.73 14.11-8.6 13.76 4.13-.35 14.12-9.62 8.6-13.76zM362.74 2593.79c-5.1-3.83-12.72 14.11-8.6 13.76 4.12-.36 14.12-9.63 8.6-13.76z" class="color50a7e2 svgShape"/><linearGradient id="r" x1="683.238" x2="295.557" y1="2355.348" y2="1212.311" gradientTransform="rotate(-4.491 620.782 2085.423)" gradientUnits="userSpaceOnUse"><stop class="stopColor182b9b svgShape" offset=".008" stop-color="#3282b8"/><stop class="stopColor21032b svgShape" offset="1" stop-color="#171717"/></linearGradient><path fill="url(#r)" d="m504.66 1583.07 336.44-26.35c18.71 50.93-503.95 949.02-503.95 949.02l-59.43-37.98c-.01 0 177.1-693.3 226.94-884.69z"/><path fill="#fff" d="M411.22 2259.08c-6.98-29.96 56.13-227.69 101.26-196.11 45.13 31.57-91.79 236.76-101.26 196.11zM537.33 1948.12c-27.19-50.4 90.4-206.55 114.17-159.5 42.64 84.44-80.41 222.07-114.17 159.5z" class="colorffffff svgShape" opacity=".1"/><path fill="#171717" d="M360.87 2198.79c6.79-19.83 13.23-39.71 16.68-60.42 2.79-16.77 5.01-33.71 9.66-50.1 4.06-14.32 10.17-29.63 22.15-39.2 5.99-4.78 13.11-7.07 20.11-9.96 3.9-1.61 9.3-3.31 11.67-7.09 2.6-4.15 1.69-10.48 1.43-15.07-.58-10.34-1.59-20.65-2.2-30.98-1.41-23.71-1.8-47.65 1.37-71.24 1.53-11.39 3.82-22.68 7.44-33.6 2.8-8.46 6.79-16.65 13.92-22.29 12.7-10.06 30.17-9.07 45.28-12.03 16.63-3.26 29.87-10.46 40.78-23.49 9.92-11.85 17.07-25.73 26.4-38.03 9.73-12.83 21.62-23.37 37.05-28.7 8.37-2.89 17.45-4.57 26.23-5.67 6.62-.83 13.32-1.18 19.92.01 28.68 5.15 30.18 42.3 30.64 65.25.41 19.95-.73 39.9.11 59.85.05 1.21.12 2.44.18 3.67 89.21-165.46 158.42-303.86 151.4-322.97l-336.44 26.35c-36.4 139.78-140.67 547.22-194.26 756.83 14.51-47.84 34.3-93.86 50.48-141.12z" class="color21032b svgShape" opacity=".35"/><path fill="#171717" d="m794.5 1682.03-104.8 197.65c0 .01 89.29-123.67 104.8-197.65z" class="color21032b svgShape"/><path fill="#eed1d1" d="m491.25 1638.11-89.97 355.79s33.84-215.9 89.97-355.79z" class="colord1e1ee svgShape"/><path fill="#171717" d="M590.87 1967.04s-52.86 61.09-101.55 9.35c0 0 15.62 63.32 64.64 50.52 49.03-12.79 36.91-59.87 36.91-59.87zM314.81 2408.9s22.03-160.83 82.37-195.55c0 0-47.24 169.02-82.37 195.55z" class="color21032b svgShape" opacity=".35"/><linearGradient id="s" x1="1033.74" x2="591.908" y1="847.624" y2="1852.076" gradientUnits="userSpaceOnUse"><stop class="stopColord1e1ee svgShape" offset=".02" stop-color="#eed1d1"/><stop class="stopColor50a7e2 svgShape" offset=".363" stop-color="#50b6e2"/><stop class="stopColor182b9b svgShape" offset="1" stop-color="#3282b8"/></linearGradient><path fill="url(#s)" d="M1011.24 1087s-69.06 86.58-127.09 181.24c-42.25-85.79-103.21-188.06-103.21-188.06s-40.32 21.83-36.75 28.1c2.3 4.03 54.23 375.14 82.5 391.92 151.73 90.04 215.93-407.26 215.93-407.26l-31.38-5.94z"/><path fill="#3d3d3d" d="M885.67 1272.08s-.42 58.25-4.17 62.01c0 0-3.33-64.19-2.4-72.95l6.57 10.94z" class="color132368 svgShape"/><path fill="#3d3d3d" d="M940.02 1423.91c-14.2 2.69-30.4 5.4-44.39.32-13.2-4.79-22.1-17.5-26.19-30.43-2.2-6.96-3.37-14.14-4.43-21.34-.42-.64-.89-1.25-1.26-1.9-8.93-15.7-7.52-34.76-7.18-52.11.38-19.53-3.9-37.74-11-55.88-7.08-18.1-16.21-35.3-24.63-52.79-3.09-6.43-6.06-12.91-9.05-19.38.69 10.15 2.64 20.2 4.25 30.25 2.06 12.87 2.38 25.77 3.46 38.73 3.95 47.75 14.7 94.55 23.48 141.56 4.38 23.42 6.92 47.24 11.99 70.51 2.91 13.36 6.66 26.51 10.88 39.51 36.6-2.13 67.02-39.64 91.7-91.39-5.64 1.91-11.59 3.19-17.63 4.34zM1011.24 1087s-2.79 3.49-7.68 9.81c1.03 2.05 2.65 3.83 5.14 5.62 4.66 3.36 9.27 6.93 11.67 12.34 5.03 11.36 1.99 26.44-5.24 36.14-8.06 10.82-20.36 17.31-31.81 23.91-18 10.39-36.9 19.05-56.09 27.02a1798.72 1798.72 0 0 0-24.45 36.82c47.76-11.35 94.31-34.44 127.68-70.81 8.21-44.45 12.16-74.92 12.16-74.92l-31.38-5.93z" class="color132368 svgShape" opacity=".2"/><linearGradient id="t" x1="997.175" x2="552.353" y1="1023.598" y2="1706.025" gradientUnits="userSpaceOnUse"><stop class="stopColord1e1ee svgShape" offset=".02" stop-color="#eed1d1"/><stop class="stopColor50a7e2 svgShape" offset=".363" stop-color="#50b6e2"/><stop class="stopColor182b9b svgShape" offset="1" stop-color="#3282b8"/></linearGradient><path fill="url(#t)" d="M472.55 1639.8c-3.57 92.14 363.16 112.43 420.84 40.49-29.07-148.48-37.13-599.51-173.98-627.23-56.65-11.49-228.53 113.14-246.86 586.74z"/><path fill="#3d3d3d" d="M714.35 1503.12c-1.47 1.17 17.51-65.65 78.16-83.16 0 0-53.77 63.78-78.16 83.16zM591.8 1607.54s50.02 42.52 150.69 1.88c0 0-28.76 31.26-80.04 37.52-51.27 6.25-70.65-39.4-70.65-39.4zM636.82 1671.69s115.32 21.42 223.22-56.84c0 0-6.59 50.25-83.19 72.49s-140.03-15.65-140.03-15.65z" class="color132368 svgShape" opacity=".2"/><path fill="#3d3d3d" d="M596.61 1685.49c-8.38-9.78-17.04-19.74-24.28-30.42-12.23-18.03-15.05-40.03-10-61.1 2.06-8.61 6.32-18.19 15.07-21.78 10.57-4.34 19.42 2.03 27.03 8.86 3.94 3.54 8.02 7.93 12.97 10.06 3.67 1.58 7.89 2.27 11.82 2.76 9.12 1.13 18.37.51 27.37-1.24 16.94-3.3 35.61-10.99 45.97-25.49 4.76-6.66 7.13-14.67 6.07-22.85-1.45-11.28-8.41-20.87-12.83-31.1-10.28-23.75 4.68-48.78 20.97-65.9 20.98-22.06 50.27-32.75 76.84-46.27 13.8-7.02 26.65-15.05 38.68-24.81 6.93-5.62 13.66-11.49 20.49-17.24-4.36-29.22-9.26-58.14-14.88-85.86-42.68 2.8-83.25 21.16-121.82 38.44-17.31 7.76-34.97 15.4-53.5 19.77-11.09 2.61-27.24 6.09-37.1-1.84-7.65-6.16-7.93-16.93-6.35-25.83 2.1-11.83 6.93-23.12 12.37-33.76 5.02-9.82 10.83-18.91 17.26-27.84 11.81-16.38 20.91-34.9 24.73-54.83 7.21-37.62-4.7-74.82-21.32-108.33-72.29 57.59-166.31 217.48-179.61 560.91-1.55 40.11 67.06 66.59 149.8 77.79-8.37-10.87-16.82-21.68-25.75-32.1z" class="color132368 svgShape" opacity=".2"/><path fill="#3d3d3d" d="M612.01 1261.9c9.55-13.96 18.4-28.48 25.09-44.05 5.92-13.76 10.79-29.13 9.46-44.28-28.47 25.51-62.82 43.23-98.15 58.01-29.34 70.31-54.26 164.82-67.42 289.28 11.26-6.61 22.53-13.21 33.76-19.86 58.46-34.6 117.17-68.88 174.44-105.42 24.63-15.71 48.6-32.38 72.85-48.66 17.46-11.72 37.51-25.19 47.6-44.4-7.91 2.44-15.17 7.26-22.33 11.15-10.19 5.53-21.08 9.91-31.62 14.73-22.13 10.13-44.25 20.41-65.65 32.03-33.74 18.32-70.01 40.22-109.69 40.07-10.37-.04-22.1-2.49-26.41-13.16-4.9-12.12-1.38-28.21 2.22-40.14 10.09-33.36 36.68-57.29 55.85-85.3z" class="color132368 svgShape" opacity=".1"/><path fill="#3d3d3d" d="M514.74 1670.21c-1.92-9.41-1.98-19.18.57-28.47 2.78-10.09 9.19-18.79 12.18-28.85 3.31-11.13-.13-20.48-2.3-31.38-1.51-7.59-1.44-15.46 2.35-22.39 3.66-6.71 9.85-11.73 15.64-16.54 8.38-6.95 16.88-13.76 23.96-22.09 10.37-12.2 16.52-27.14 24.95-40.56-39.22 24.1-75.28 53.17-114.52 77.18-2.2 26.3-3.91 53.82-5.03 82.68-.84 21.6 18.68 39.25 49.8 52.69-3.37-7.15-6.04-14.6-7.6-22.27z" class="color132368 svgShape" opacity=".2"/><path fill="#faa" d="M763.91 1011.49s9.3 70.95 9.65 76.96c.35 6.01-25.43 51.44-93.35-20.4l33.07-82.89 50.63 26.33z" class="colorffafaa svgShape"/><path fill="#dd8a8a" d="m763.91 1011.49-50.63-26.34-2.06 5.16c-.4 11.49-.54 23.08 1.11 34.48 1.49 10.33 4.41 20.65 10.39 29.32 2.95 4.27 6.68 8.04 10.94 11.01 4.84 3.38 10.34 5.54 14.82 9.47 6.78 5.94 9.42 14.72 4.7 22.79-2.59 4.43-6.5 7.87-10.93 10.56 22.24 2.01 31.53-15.87 31.32-19.49-.36-6.01-9.66-76.96-9.66-76.96z" class="colordd8a8a svgShape" enable-background="new" opacity=".25"/><path fill="#dd8a8a" d="M719.56 1018.69c8.34 16.52 20 32.95 36.22 42.45 4.87 2.86 10.03 4.91 15.34 6.41-2.86-22.9-7.21-56.07-7.21-56.07l-50.63-26.34-1.85 4.63c-.05 10.11 3.63 20 8.13 28.92z" class="colordd8a8a svgShape" enable-background="new" opacity=".25"/><path fill="#2b2b2b" d="M762.57 889.11c-18.35 16.49-5.95 38.49 44.79 68.63 15.27-26.65 11.96-73.87-4.43-83.61-16.38-9.76-24.35.68-40.36 14.98z" class="color131e44 svgShape"/><path fill="#faa" d="M758.99 844.54c-36.24-10.09-73.77 11.12-83.85 47.36a67.784 67.784 0 0 0-1.3 31.24c.75 4.08 1.44 7.98 2.12 11.79a18.8 18.8 0 0 0-2.92-.14c-16.2.48-23.95 16.54-18.03 30.77a47.514 47.514 0 0 0 25.8 25.52c3.36 1.34 6.42 1.7 9.16 1.36 5.15 12.16 12.31 22.39 23.63 31.47.16.12.3.19.47.31 42.08 33.17 100.07 3.25 106.01-47.42.67-5.99 1-12.45.93-19.19.02-.12 0-.18 0-.18-.44-44.5-17.96-100.82-62.02-112.89z" class="colorffafaa svgShape"/><path fill="#dd8a8a" d="M672.95 945.78c5.77 6.23 10.9 17.12 20.47 17.13 4.48 0 8.87-1.2 13.37-1.12 5.02.08 8.93 1.72 13.36 3.83 8.74 4.15 15.62 2.11 24.06-1.53 8.53-3.67 16.7-7.36 26.12-5.13 7.81 1.84 14.82 6.09 22.9 3.01 7.76-2.96 12.4-9.8 19.23-14.12 2.68-1.69 5.34-2.42 7.96-2.49-3.21-42.07-21.28-89.82-61.43-100.82-36.24-10.09-73.77 11.11-83.85 47.36a67.784 67.784 0 0 0-1.3 31.24c.75 4.08 1.44 7.98 2.12 11.79a18.8 18.8 0 0 0-2.92-.14c-3.95.12-7.39 1.19-10.26 2.91 3.74 2.03 7.11 4.78 10.17 8.08z" class="colordd8a8a svgShape" enable-background="new" opacity=".25"/><path fill="#2b2b2b" d="M807.22 900.19c.6-.36 1.05-.91 1.3-1.56.45-1.66-.51-3.37-2.16-3.85a30.762 30.762 0 0 0-27.91 5.49 3.008 3.008 0 0 0-.38 4.23c.05.06.09.11.15.16a3.229 3.229 0 0 0 4.39.24 24.533 24.533 0 0 1 22.06-4.1c.9.16 1.83-.06 2.55-.61zM795.41 993.57c.6-.36 1.05-.91 1.3-1.56.45-1.66-.51-3.37-2.16-3.85a30.762 30.762 0 0 0-27.91 5.49 3.008 3.008 0 0 0-.38 4.23c.05.06.09.11.15.16a3.229 3.229 0 0 0 4.39.24 24.533 24.533 0 0 1 22.06-4.1c.89.17 1.82-.06 2.55-.61zM726.1 916.64c1.17.51 2.54.33 3.54-.47 6.34-5.6 14.98-7.84 23.24-6 1.76.52 3.61-.47 4.16-2.22.51-1.73-.43-3.56-2.14-4.14a33.143 33.143 0 0 0-29.49 7.29 3.285 3.285 0 0 0-.46 4.62c.01.01.02.03.03.04.31.35.69.65 1.12.88zM679.23 952.62c-.35-.5-15.65-10.74-16.06-5.88-.41 4.86 12.98 11.37 12.98 11.37s-12.28 13-6.21 12.53c6.07-.46 15.53-8.97 9.29-18.02z" class="color131e44 svgShape"/><path fill="#dd8a8a" d="M730.47 1031.72s29.21 12.05 56.14-3.06c0 0-29.2 20.86-56.14 3.06z" class="colordd8a8a svgShape" enable-background="new"/><path fill="#2b2b2b" d="M801.59 829.1c-21.42-45.49-51.91-40.35-80.42-37.58-28.51 2.78-64.85 6.61-65.39 54.4-40.63 18.09-8.55 46.91-6.87 48.1-8.37 16.69 17.79 47.2 43.93 62.54 24.54-43.27 23.95-59.81 8.72-67.04.51-.3.99-.61 1.3-.94 6.13-6.73 58.77 16.63 89.91-6.23 41.91 4.94 50.54-50.37 8.82-53.25z" class="color131e44 svgShape"/><path fill="#f4f2f2" d="M678.11 884.13c-1.13-2.73 33.57 16.72 12.31 49.46l-4.32-18.23-6.18 14.34-4.06-14.07-9.74 7.7s.57-8.71-1.77-12.75l-6.17 4.91 4.21-18.21 7.55 6.76 2.64-9.75 7.36 11.38c.01 0 2.25-11.73-1.83-21.54zM808.66 862.94s9.13-10.42 1.63-20.16l-3.58 7.75s-4.72-15.49-14.18-19.94c0 0 5.25 15.08 1.29 19.55l-8.59-16.52-7.63 16.21s1.03-31.92-17.68-36.9c0 0 14.79 24.39 4.88 31.01-9.91 6.62-19.58-12.12-19.58-12.12s-6.3 22.64 1.16 26.29c7.46 3.64-23.4 13.67-23.4 13.67l25.82-.45s1.88 10.59-3.36 14.72c0 0 24.97-14.91 24.3-19.65l6.73 8.98 7.02-10.29 9.28 5.09 7.37-11.58s9.59-2.29 8.52 4.34z" class="colorf4f2f3 svgShape" opacity=".1"/><path fill="#2b2b2b" d="M777.68 940.26c2.29-.48 14.52 19.5 7.3 22.82-7.23 3.32-10.97-1.85-10.97-1.85s7.25-2.18 7.99-2.25c.73-.08-6.99-18.16-4.32-18.72z" class="color131e44 svgShape"/><path fill="#3d3d3d" d="M731.78 965.39c6.42 2.1 13.49 1.76 19.98-.15s12.46-5.3 17.98-9.22c3.73-2.64 7.36-5.59 11.71-7.01.8-.26 1.63-.47 2.5-.58h.02c1.28.01 2.58.19 3.81.5 1.99.51 3.91 1.28 5.84 2.01l.02.01c1.25.46 2.51.9 3.8 1.24 9.56 2.44 20.46-2.03 25.51-10.5 1.67-2.79 2.74-5.95 3-9.19.45-5.24-1.22-10.5-3.88-15.04-2.53-4.29-6.02-8.11-10.41-10.48-4.39-2.37-9.72-3.19-14.48-1.67-5.42 1.72-9.47 6.13-13.71 9.94-4.22 3.81-9.48 7.34-15.13 6.68-4.36-.51-8.01-3.43-11.68-5.85-5.31-3.52-11.36-6.24-17.71-6.44-7.55-.25-15.08 3.24-20.02 8.94-4.97 5.69-7.37 13.47-6.83 21.01.79 11.43 8.76 22.22 19.68 25.8z" class="color132368 svgShape"/><path fill="#fff" d="M740.49 934.77s-3.56 8.49 6.82 10.23c10.36 1.74 11.41-7.23 11.41-7.23l-18.23-3zM811.47 923.58l-15.86 9.5s4.29 7.97 13.29 2.53c9-5.44 2.57-12.03 2.57-12.03z" class="colorffffff svgShape"/><path fill="#3d3d3d" d="M671.95 1069.45c-6.46-10.24 9.12-45.58 18.93-40.67 9.82 4.91 42.83 35.99 64.89 32.37 22.06-3.62 12.95-13.44 12.95-13.44s4.91-4.91 11.92 7.71c7.01 12.62 12.62 32.26-.7 51.19-19.4 27.58-67.31 27.35-107.99-37.16z" class="color132368 svgShape"/><path fill="#171717" d="M780.65 1055.42c-7.01-12.62-11.92-7.71-11.92-7.71s9.12 9.82-12.95 13.44c-19.5 3.2-47.54-20.7-60.58-29.68 2.05 8.41 6.21 16.23 12.26 22.5 7.61 7.9 17.28 12.25 28.1 13.52 8.3.97 16.82-.2 24.96 1.91 5.82 1.52 13.29 5.24 12.54 12.38-.66 6.27-5.86 9.18-11.35 10.73-2.71.76-5.48 1.26-8.21 1.9-2.22.52-4.7 1.08-6.56 2.48-5.18 3.88 2.07 12.16 4.48 15.44 2.17 2.97 4.45 6.82 1.71 10.2-.31.39-.66.74-1.02 1.06 11.59-1.61 21.33-7.71 27.85-16.97 13.31-18.94 7.7-38.57.69-51.2z" class="color21032b svgShape" opacity=".35"/><path fill="#fff" d="M787.94 1140.44c10.51 12.06 41.9 102.53 10.84 99.21-54.61-5.84-94.99 44.83-108.8 19.18-6.5-12.07.9-97.23 12.92-107.96 12.02-10.73 17.21 19.81 45.79 14.44 28.58-5.37 27.55-38.28 39.25-24.87z" class="colorffffff svgShape" opacity=".1"/><path fill="#3d3d3d" d="M779.23 1099.9s19.95 30.35 35.37 81.41c0 0-6.46-51.27-35.37-81.41z" class="color132368 svgShape"/><path fill="#d13d3d" d="M1326.02 1237.99c55.08-9.39 107.11-18.26 147.89-38.41 46-22.73 69.98-57.35 73.29-105.84 2.56-37.41-4.08-87.46-50.27-113.48-21.52-12.12-49.64-17.28-79.17-14.54-26.61 2.47-51.98 11-69.61 23.41-52.35 36.86-730.06 493.53-736.9 498.14l2.45 3.64c6.84-4.61 684.58-461.3 736.97-498.19 17.02-11.98 41.62-20.23 67.48-22.63 28.65-2.66 55.85 2.31 76.61 14 34.97 19.68 51.59 57.51 48.04 109.35-7.13 104.35-109.34 121.78-217.54 140.22-105.42 17.97-214.43 36.55-237.44 139.67-6.38 28.61-1.46 53.12 14.62 72.85 24.27 29.76 70.07 43.2 104.22 49.23 24.02 4.25 45.74 5.52 58.08 5.9 4.95 63.05 66.12 107.77 127.29 107.2 31.09-.29 62.24-9.44 89.51-24.14 10.34-5.57 20.53-12.05 29.08-20.16 4.51-4.27 9.87-9.8 10.31-16.36.2-2.97-4.43-2.96-4.63 0-.36 5.29-5.85 10.18-9.42 13.52-6.85 6.4-14.78 11.65-22.87 16.33-20.77 12-43.98 20.35-67.68 24.12-28.51 4.52-58.51 1.92-84.37-11.59-27.98-14.62-51.51-41.04-59.83-71.81-1.51-5.59-2.45-11.28-2.93-16.98 11.63.37 40.82-6.02 57.59-12.41 19.3-7.36 39.56-17.42 52.72-33.88 12.65-15.82 13.56-35.2 4.41-53.02-8.16-15.9-22.91-20.56-39.96-16.96-47.4 10.02-79.47 61.36-79.7 107.45-.01 1.46.18 2.86.23 4.3-31.15-1.04-121.57-8.01-158.66-53.5-15.19-18.63-19.81-41.88-13.74-69.11 22.4-100.26 129.94-118.59 233.93-136.32zm3.04 157.27c13.04-6.3 33.12-11.65 44.87.09 13.42 13.41 15.23 36.58 5.37 52.22-11.68 18.51-33.94 29.45-53.72 36.98-15.95 6.08-42.32 13.31-56.59 12.48-1.66-41.49 22.38-83.56 60.07-101.77z" class="colord1c63d svgShape"/><path fill="#3d3d3d" d="M669.9 1503.74c-12.71-19.34-38.04-25.41-57.99-14.49l-12.88-19.6-6.01 3.95 12.88 19.6c-17.95 13.98-22.42 39.64-9.71 58.98 13.38 20.36 40.72 26.02 61.08 12.64 20.35-13.38 26.01-40.73 12.63-61.08z" class="color132368 svgShape"/><path fill="#d13d3d" d="M655.53 1531.55c-2.74 13.25-15.71 21.77-28.96 19.03-13.25-2.74-21.77-15.71-19.03-28.96 2.74-13.25 15.71-21.77 28.96-19.03 13.25 2.74 21.77 15.71 19.03 28.96z" class="colord1c63d svgShape"/><path fill="#3d3d3d" d="M790.23 1340.56h29.13v8.67h-29.13z" class="color132368 svgShape" transform="rotate(56.688 804.79 1344.965)"/><path fill="#3d3d3d" d="M960.97 1228.36h29.13v8.67h-29.13z" class="color132368 svgShape" transform="rotate(56.688 975.536 1232.767)"/><path fill="#3d3d3d" d="M1144.3 1107.9h29.13v8.67h-29.13z" class="color132368 svgShape" transform="rotate(56.688 1158.872 1112.306)"/><path fill="#3d3d3d" d="M1302.25 997.72h29.13v8.67h-29.13z" class="color132368 svgShape" transform="rotate(56.688 1316.833 1002.134)"/><path fill="#eed1d1" d="M396.79 1613.73c-20.18 13.26-44.33-23.48-24.15-36.75l983.92-630.28c10.7-6.39 17.97 4.42 9.21 14.02l-968.98 653.01z" class="colord1e1ee svgShape"/><path fill="#d13d3d" d="M503.17 1477.34 343.2 1579.81c-29.45 19.35 5.78 72.98 35.24 53.62l157.54-106.17c21.65-14.22-11.15-64.15-32.81-49.92z" class="colord1c63d svgShape"/><linearGradient id="u" x1="692.603" x2="337.021" y1="933.697" y2="1479.217" gradientUnits="userSpaceOnUse"><stop class="stopColord1e1ee svgShape" offset=".02" stop-color="#eed1d1"/><stop class="stopColor50a7e2 svgShape" offset=".363" stop-color="#50b6e2"/><stop class="stopColor182b9b svgShape" offset="1" stop-color="#3282b8"/></linearGradient><path fill="url(#u)" d="M658.3 1073.22c-12.51 3.13-19.94 5.21-33.76 9.07-97.54 27.2-225.36 87.29-265.13 172.45-45.53 97.52 9.39 246.86 9.39 246.86l54.34-9.39 22.14-173.07s135.51-48.3 214.66-144.9c7.69-9.39 13.97-18.41 18.96-26.95 10.97-19.04 9.97-81.71-20.6-74.07z"/><path fill="#3d3d3d" d="M602.4 1220.9c-20.27 12.83-42.54 22.52-64.57 31.86-21.31 9.04-42.74 18.15-65.07 24.42-21.04 5.91-43.08 8.21-64.72 10.94-10.36 1.3-20.95 2.39-31.49 2.42.05.1.07.19.2.34.56.67 1.03 1.43 1.55 2.13 1.67 2.26 3.37 4.5 4.88 6.87 2.68 4.23 5.2 8.58 7.83 12.85 5.86 9.52 11.71 19.26 15.31 29.91 3.12 9.25 4.52 19.37 1.08 28.75-3.71 10.12-12.72 16.72-19.85 24.34-3.88 4.14-7.52 8.78-9.43 14.19-2.14 6.09-1.1 12.41.27 18.56 2.32 10.41 5.67 20.94 2.13 31.47-3.1 9.21-9.83 16.84-17.82 22.84 3.55 11.86 6.11 18.83 6.11 18.83l54.34-9.39 22.14-173.07s123.91-44.21 203.97-132.57c-15.61 11.47-30.48 23.94-46.86 34.31z" class="color132368 svgShape" opacity=".2"/><path fill="#eed1d1" d="M400.37 1196.4s-59.09 53.46-59.09 137.87c0 .01 3.13-67.52 59.09-137.87z" class="colord1e1ee svgShape"/><path fill="#fff" d="M449.09 1182.07c-3.52-21.43 40.82-25.76 48.11-2.43 7.29 23.32-42.76 34.99-48.11 2.43z" class="colorffffff svgShape" opacity=".2"/><path fill="#3d3d3d" d="M473.89 1257.43s76.47-21.91 124.77-61.27c0 0-26.83 60.37-124.77 61.27z" class="color132368 svgShape" opacity=".2"/><path fill="#fff" d="M505.73 1176.29c12.81 23.11 171.49-52.91 135.72-76.17-35.78-23.25-156.98 37.82-135.72 76.17z" class="colorffffff svgShape" opacity=".2"/><path fill="#3d3d3d" d="M638.01 1194.2c-35.83 29.46-76.38 54.48-118.07 74.74-36.73 17.84-76.65 32.01-117.7 34.31 7.16 6.41 11.84 15.83 14.76 24.85 4.64 14.31 6.34 29.54 6.31 44.54-.03 16.07-3.94 31.7-5.57 47.64-2.49 24.32-3.07 49.38-6.09 73.92l11.48-1.98 22.14-173.07s135.51-48.3 214.66-144.9c.94-1.15 1.71-2.25 2.61-3.39-7.81 8.15-15.78 16.14-24.53 23.34z" class="color132368 svgShape" opacity=".2"/><path fill="#3d3d3d" d="M624.95 1211.1s-45.02 38.56-98.4 70.49c0 0 66.3-27.77 98.4-70.49zM433.77 1601.96c-7.13 2.66-14.26-8.58-14.26-8.58s-.9 6.06-9.45 9.06c-5.82 2.08-11.59-3.03-16.88-9.64-9.01-11.12-33.2-52.91-28.24-82.11 6.73-39.45 54.65-48.88 57.14-43.76 7.51 15.47 83.09 11.6 76.42 32.44-4.76 14.87-41.58 2.05-36.96 5.79 13.26 10.72 29.11 57.79 21.81 70.02-4.86 8.14-13.93 3.16-13.93 3.16s-2.94 11.62-9.06 13.98c-8.9 3.52-15.94-3.96-15.94-3.96s-1.53 10.27-10.65 13.6z" class="color132368 svgShape"/><g class="color000000 svgShape" opacity=".35"><path fill="#171717" d="M460.36 1592.32s4.74-6.76 2.51-15.66c2.53-.12 5.98.07 6.55 1.68.01 0-2.94 11.62-9.06 13.98zM436.7 1600.51c6.65-3.86 7.7-12.14 7.7-12.14l-6.15-.28c.01 0-.42 9.17-1.55 12.42zM413.57 1600.81c4.31-1.77 5.95-7.47 5.95-7.47l-4.47-.56s-.99 4.94-1.48 8.03z" class="color21032b svgShape" opacity=".25"/></g><path fill="#3d3d3d" d="M1053.2 1010.23s1.94.93 2.13 2.75c.18 1.82.52 2.94-3.2 7.23-3.72 4.29-9.33 8.59-11.98 12.05-2.65 3.47-6.06 8.43-6.06 8.43l-.45-3.58c.01.01 8.43-21.88 19.56-26.88z" class="color132368 svgShape"/><path fill="#3d3d3d" d="M1052.51 990.75s1.97-2.1 3.38-.43c1.41 1.67 3.1 4.95 1.45 12.49-1.65 7.54-8.65 13.49-12.95 18.94-4.3 5.45-11.27 18.84-11.27 18.84l-.15-9.18 19.54-40.66z" class="color132368 svgShape"/><path fill="#2b2b2b" d="M1052.51 990.75s1.97-2.1 3.38-.43c1.41 1.67 3.1 4.95 1.45 12.49-1.65 7.54-8.65 13.49-12.95 18.94-4.3 5.45-11.27 18.84-11.27 18.84l-.15-9.18 19.54-40.66z" class="color131e44 svgShape" opacity=".8"/><path fill="#3d3d3d" d="M1034.99 996.89s6.36-13.91 8.64-17.53c2.44-3.87 5.73-5.35 9.15-.55 3.42 4.79.54 13.28-1.68 20.74-2.22 7.45-12.8 26.46-14.89 31.81-2.09 5.35-1.72 7.89-.45 12.55 1.28 4.66 1.55 11.81 1.55 11.81l-2.18 8.04-8.52-1.5s-2.69-23.76-1.59-29.22c1.1-5.46 9.97-36.15 9.97-36.15z" class="color132368 svgShape"/><path fill="#2b2b2b" d="M1034.99 996.89s6.36-13.91 8.64-17.53c2.44-3.87 5.73-5.35 9.15-.55 3.42 4.79.54 13.28-1.68 20.74-2.22 7.45-12.8 26.46-14.89 31.81-2.09 5.35-1.72 7.89-.45 12.55 1.28 4.66 1.55 11.81 1.55 11.81l-2.18 8.04-8.52-1.5s-2.69-23.76-1.59-29.22c1.1-5.46 9.97-36.15 9.97-36.15z" class="color131e44 svgShape" opacity=".5"/><path fill="#3d3d3d" d="M1010.14 1085.87s-4.58-37.57-1.7-50.24c2.88-12.67 19.16-54.04 21.57-59.55 2.41-5.51 10.28-1.25 10.28 10.02-.01 11.27-3.54 22.96-6.09 31.2-2.56 8.25-3.57 23.62-3.03 26.69.54 3.07 3.6 15.72 3.6 15.72s3.57-8.49 4.6-16.64c1.03-8.15 4.71-14.32 10.38-12.13 5.67 2.19 4.94 8.37 4.29 19.97-.65 11.6 3.19 35.42-4.63 42.9-23.05 22.06-39.27-7.94-39.27-7.94z" class="color132368 svgShape"/><path fill="#2b2b2b" d="m1036.31 1055.55-8.12 20.15s2.31-10.19 3.71-16.14c1.4-5.96-1.41-13.05-.88-17.53 2.74 8.78 5.29 13.52 5.29 13.52z" class="color131e44 svgShape"/><path fill="#3d3d3d" d="M869.73 1364.31s1.88 23.14 29.08 12.82c0 0-1.56 14.38-16.26 13.76s-12.82-26.58-12.82-26.58zM895.05 1407.46s53.15 2.5 61.28-51.27c0 0 9.38 35.95-16.88 52.52-26.26 16.57-44.4-1.25-44.4-1.25z" class="color132368 svgShape" opacity=".2"/><path fill="#fff" d="M764.37 1604.42c-40.77-30.08-15.01-48.15 25.01-107.55s38.77-97.54 53.15-60.03c14.38 37.52-1.87 223.85-78.16 167.58z" class="colorffffff svgShape" opacity=".1"/><path fill="#3d3d3d" d="M1524.46 1559.56c6.06.11 11.07-4.73 11.18-10.79.11-6.06-4.73-11.07-10.79-11.18-6.06-.11-11.07 4.73-11.18 10.79-.11 6.06 4.73 11.08 10.79 11.18zm.31-17.95c3.84.07 6.91 3.25 6.84 7.09-.07 3.84-3.25 6.91-7.09 6.84-3.84-.07-6.91-3.25-6.84-7.09.07-3.84 3.25-6.91 7.09-6.84z" class="color132368 svgShape"/><path fill="#3d3d3d" d="M1603.4 1576.74c5.84.1 11.64-1.51 16.57-4.63 5.44-3.45 9.48-8.47 11.35-14.13 3.77-11.39-1.7-22.81-14.64-30.53-7.81-4.66-15.05-5.94-21.52-3.8-9.86 3.26-14.11 13.25-14.29 13.67a2.011 2.011 0 0 0 3.71 1.55c.04-.08 3.76-8.75 11.87-11.41 5.31-1.74 11.42-.58 18.17 3.45 6.07 3.62 10.21 7.93 12.32 12.8 1.81 4.18 2.01 8.69.57 13.02-3.39 10.23-14.65 17.06-26.19 15.88-24.72-2.52-66.3-25.38-66.72-25.61a2 2 0 0 0-2.73.79 2 2 0 0 0 .79 2.73c.11.06 10.75 5.93 24.36 12.03 18.37 8.24 33.14 12.97 43.89 14.07.83.06 1.66.11 2.49.12z" class="color132368 svgShape"/><path fill="#3d3d3d" d="m1566.86 1552.24 14.07-33.34 5.15 13.75 13.8 5.78z" class="color132368 svgShape"/><linearGradient id="v" x1="1041.881" x2="2133.731" y1="1002.978" y2="2688.746" gradientUnits="userSpaceOnUse"><stop class="stopColord1e1ee svgShape" offset=".02" stop-color="#eed1d1"/><stop class="stopColor50a7e2 svgShape" offset=".363" stop-color="#50b6e2"/><stop class="stopColor182b9b svgShape" offset="1" stop-color="#3282b8"/></linearGradient><path fill="url(#v)" d="M1231.76 1938.68v-134.23c0-16.51 13.38-29.9 29.9-29.9h390.02l65.05-79.86a43.938 43.938 0 0 1 34.07-16.19h119.11c26.06 0 47.18 21.12 47.18 47.18v550.23h-324.01l-361.32-337.23z"/><path fill="#2897c7" d="M1885.7 2217.3v-381.68h-730.28v157.76z" class="color50a7e2 svgShape"/><path fill="#fff" fill-rule="evenodd" d="M1294.11 1599.73h433.93v579.9h-433.93z" class="colorffffff svgShape" clip-rule="evenodd" transform="rotate(52.742 1511.108 1889.597)"/><path fill="#3d3d3d" fill-rule="evenodd" d="m1885.53 2198.73-473.88 39.15-262.72-345.31 55.5-42.24h592.51c12.42 0 23.51 7.86 27.65 19.65l60.94 328.75z" class="color132368 svgShape" clip-rule="evenodd" opacity=".1"/><g class="color000000 svgShape" opacity=".5"><path fill="#2897c7" fill-rule="evenodd" d="M1627.13 1597.6h28.03v153.29h-28.03z" class="color50a7e2 svgShape" clip-rule="evenodd" transform="rotate(-37.26 1641.241 1674.366)"/><path fill="#2897c7" fill-rule="evenodd" d="M1473.53 1750.33h338.74v78.16h-338.74z" class="color50a7e2 svgShape" clip-rule="evenodd" transform="rotate(52.742 1642.924 1789.319)"/></g><path fill="#2897c7" d="M1565.36 1957.78c-39.02 29.22-94.34 21.27-123.55-17.75-29.22-39.02-21.27-94.34 17.74-123.56 39.02-29.22 94.34-21.27 123.56 17.75 29.21 39.02 21.27 94.34-17.75 123.56z" class="color50a7e2 svgShape"/><path fill="#eed1d1" d="m1510.42 1868.39 12.05-9.02c7.89-5.91 19.11-4.3 25.02 3.59s4.3 19.11-3.59 25.02l-12.05 9.02 7.16 9.56 12.05-9.02c13.16-9.85 15.85-28.57 5.99-41.74-9.85-13.16-28.58-15.85-41.74-5.99l-12.05 9.02 7.16 9.56z" class="colord1e1ee svgShape"/><path fill="#eed1d1" d="m1548.75 1906.08-13.69-18.28c-.09-.13-.16-.27-.2-.4l-27.93-37.29c-2.29-3.06-6.64-3.67-9.7-1.38l-40.73 30.5c-3.03 2.27-3.67 6.62-1.38 9.68l41.33 55.19c2.29 3.06 6.64 3.67 9.67 1.4l40.73-30.5c2.81-2.11 3.57-5.95 1.9-8.92zm-55.36 6.63-9.01-12.04s11.23-5.29 17.47-7.99c-.53-2.8.52-5.74 2.93-7.54 3.41-2.56 8.24-1.85 10.8 1.56 2.56 3.42 1.87 8.25-1.54 10.8-2.41 1.81-5.55 1.97-8.07.68-4.35 5.23-12.58 14.53-12.58 14.53z" class="colord1e1ee svgShape"/><path fill="#3d3d3d" d="M1565.37 1957.78c-39.03 29.23-94.36 21.25-123.56-17.75-16.18-21.6-20.97-48.21-15.36-72.6.33.5.71 1.01 1.07 1.49 40.57 54.18 117.39 65.21 171.57 24.64.48-.36.99-.74 1.45-1.13-1.48 25-13.57 49.18-35.17 65.35z" class="color132368 svgShape" opacity=".1"/><linearGradient id="w" x1="965.101" x2="2420.901" y1="1327.007" y2="3366.728" gradientUnits="userSpaceOnUse"><stop class="stopColord1e1ee svgShape" offset=".02" stop-color="#eed1d1"/><stop class="stopColor50a7e2 svgShape" offset=".363" stop-color="#50b6e2"/><stop class="stopColor182b9b svgShape" offset="1" stop-color="#3282b8"/></linearGradient><path fill="url(#w)" d="m1235.17 2281.48-119.96-351.16c-6.49-18.98 7.62-38.71 27.68-38.71h622.77c12.45 0 23.54 7.88 27.63 19.64l122.14 351.16c6.61 19.01-7.5 38.86-27.63 38.86h-624.96c-12.5 0-23.62-7.95-27.67-19.79z"/><linearGradient id="x" x1="1510.071" x2="1733.369" y1="2003.275" y2="2309.556" gradientTransform="matrix(-.9902 .0059 .1396 1.0091 2785.123 -78.002)" gradientUnits="userSpaceOnUse"><stop class="stopColord1e1ee svgShape" offset=".02" stop-color="#eed1d1"/><stop class="stopColor50a7e2 svgShape" offset=".363" stop-color="#50b6e2"/><stop class="stopColor182b9b svgShape" offset="1" stop-color="#3282b8"/></linearGradient><path fill="url(#x)" d="M1517.83 2229.27c0 .03.04.03.04.03.03 0 .03 0 .06-.03 96.8-56.23 72.21-193.51 72.21-193.51-62.21-7.36-102.92-44.18-105.41-46.48 0-.03 0-.03-.07-.06-.03.03-.03.03-.02.06-1.85 2.32-32.28 39.56-92.36 47.65-.01.01 13.36 137.35 125.55 192.34z"/><linearGradient id="y" x1="1453.718" x2="1747.842" y1="1862.785" y2="2381.977" gradientTransform="matrix(-.9902 .0059 .1396 1.0091 2785.123 -78.002)" gradientUnits="userSpaceOnUse"><stop class="stopColord1e1ee svgShape" offset=".02" stop-color="#eed1d1"/><stop class="stopColor50a7e2 svgShape" offset=".363" stop-color="#50b6e2"/><stop class="stopColor182b9b svgShape" offset="1" stop-color="#3282b8"/></linearGradient><path fill="url(#y)" d="M1516.88 2222.03c78.89-48.28 70.85-155.54 67.77-180.65-50.18-7.42-85.69-32.65-98.74-43.26-10.1 10.74-38.57 36.36-86.59 44.36 3.84 25.09 25.44 132.28 117.56 179.55z"/><path fill="#eed1d1" d="M1487.23 2096.49c-7.82-4.15-13.81-12.05-15.06-21.15-1.85-13.46 7.37-24.43 20.58-24.49 13.21-.06 25.42 10.8 27.27 24.26 1.25 9.1-2.57 17.05-9.24 21.27 22.83 3.8 43.52 18.47 55.8 38.57-7.45 27-22.54 54.5-51.77 72.41-34.62-17.78-57.43-45.61-72.32-72.85 6.94-19.67 23.36-34.07 44.74-38.02z" class="colord1e1ee svgShape"/><path fill="#3d3d3d" d="M1442.48 2134.51c14.9 27.24 37.7 55.08 72.32 72.85 1.3-.78 2.56-1.59 3.78-2.46-30.42-17.77-50.97-43.47-64.77-68.69 6.97-19.64 23.39-34.06 44.75-38.01-7.81-4.16-13.8-12.04-15.05-21.14-1.76-12.79 6.46-23.33 18.61-24.4-2.96-1.18-6.15-1.82-9.39-1.8-13.19.06-22.4 11.03-20.56 24.47 1.25 9.1 7.24 17.02 15.06 21.17-21.39 3.95-37.81 18.34-44.75 38.01z" class="color132368 svgShape" opacity=".1"/><path fill="#fff" d="M1576.04 2051.14c8.35 12.8 5.77 40.02-.64 33.56-6.4-6.46-3.77-40.33.64-33.56zM1570.2 2048.03c-7.43 3.89-22.44-2.94-18.81-6.28 3.62-3.35 22.74 4.22 18.81 6.28z" class="colorffffff svgShape" opacity=".3"/><path fill="#3d3d3d" d="M1449.03 2025.73c1.79 4.85 3.73 9.66 5.98 14.39 10.43 21.88 25.98 41.47 45.17 56.71 17.86 14.18 38.05 25.29 58.57 33.91 6.27 2.63 12.64 5.02 19.06 7.18-9.05 31.46-26.88 63.28-60.93 84.12-92.12-47.27-113.71-154.46-117.57-179.55 19.93-3.33 36.44-9.69 49.72-16.76z" class="color132368 svgShape" opacity=".2"/><path fill="#3d3d3d" d="M1887.78 2301.29h-624.93c-12.49 0-23.65-8-27.65-19.79l-105.82-309.66c105.75 102.31 337.45 253.03 753.41 196.76l32.63 93.82c6.6 19.01-7.5 38.87-27.64 38.87z" class="color132368 svgShape" opacity=".2"/><path fill="#3d3d3d" d="M1616.68 1527.45c-7.81-4.66-15.05-5.94-21.52-3.8-9.86 3.26-14.11 13.24-14.29 13.67-.43 1.03.06 2.2 1.08 2.63s2.2-.06 2.63-1.08c.04-.08 3.76-8.75 11.87-11.41 5.31-1.74 11.42-.58 18.17 3.45 6.07 3.62 10.21 7.93 12.32 12.8 1.81 4.18 2.01 8.69.57 13.02-3.2 9.66-13.42 16.19-24.27 15.91-2.38.44-2.42 3.07-.79 4.06.32.02.64.05.95.06 5.84.1 11.64-1.51 16.57-4.63 5.44-3.45 9.48-8.47 11.35-14.13 3.78-11.41-1.69-22.83-14.64-30.55z" class="color132368 svgShape"/><path fill="#3d3d3d" fill-rule="evenodd" d="M1610.4 1567.2c-4.7-3.21-2.97-7.66-3.13-8.28-.16-.63-1.56 5.16-3.75 6.41s-9.07-.63-9.54-.94c-.47-.31 8.28 8.44 2.66 10.63-5.63 2.19-14.85 4.06-12.82 6.72 2.03 2.66 15.79.16 17.35.31 1.56.16 4.69-1.09 11.57 0s18.76-17.98 18.45-20.01l-1.56-2.5s-11.1 13.13-15.48 13.76c-4.37.62-.31-3.76-3.75-6.1z" class="color132368 svgShape" clip-rule="evenodd" opacity=".1"/></g></svg>