<svg xmlns:xlink="http://www.w3.org/1999/xlink" xmlns="http://www.w3.org/2000/svg" enable-background="new 0 0 3000 3000" viewBox="0 0 3000 3000" width="3000" height="3000"><path fill="#343747" d="M1404.482 804.585c-11.597-9.486-19.888-22.938-23.152-37.56-6.966-31.208 10.298-64.913 37.49-81.739 15.543-9.617 35.051-14.369 52.385-8.573 17.334 5.796 30.898 24.024 27.636 42.008 23.42-15.059 57.786-14.917 79.556 2.442 21.769 17.359 30.74 49.111 21.272 75.295-3.902 10.792-10.931 20.823-21.001 26.327 11.993-11.025 31.306-8.375 43.343 2.602s16.571 28.332 15.695 44.599c-1.83 33.968-26.629 65.508-59.206 75.302-32.577 9.793-70.656-2.844-90.914-30.172" class="color453447 svgShape"/><path fill="#f6e5e5" d="M465.002 2272.136a2009.24 2009.24 0 0 1-.836-36.078c-.033-2.29-.058-4.581-.087-6.871-.087-6.896.007 13.289.05 1.601.061-16.563.178-33.121.568-49.68a2069.688 2069.688 0 0 1 4.847-100.874c5.521-76.185 18.373-152.838 35.33-227.29 8.977-39.417 18.782-78.639 29.274-117.679l-4.655 16.295c5.722-14.851 8.64-31.269 12.7-46.713l-4.356 16.523c30.187-111.472 69.199-220.342 116.385-325.742l-7.523 16.799c48.967-106.912 106.13-210.49 171.468-308.291 18.096-27.087 36.887-53.7 56.303-79.857l-11.186 15.055 13.129-17.663-11.188 15.052c83.339-111.752 178.672-214.57 285.183-304.593 29.782-25.171 60.428-49.299 91.846-72.394l-14.436 10.586c15.129-11.08 30.252-22.126 45.117-33.557 8.715-6.702 17.312-14.063 26.698-19.8l-14.909 8.14 20.098-10.657-14.938 7.875a33.212 33.212 0 0 1 4.037-1.593c3.854-1.253 1.736-.936-6.354.95l2.87-.3c4.127-.021 3.838-.17-.868-.449-2.796.245-5.271-.551-7.424-2.389-4.509-2.397-4.919-2.691-1.23-.883a86.938 86.938 0 0 1 6.972 4.459l-13.459-10.094a63.722 63.722 0 0 1 9.137 9.134l-10.548-13.226c1.974 2.769 3.412 5.801 5.271 8.611-4.737-11.238-6.013-13.877-3.829-7.919a71.539 71.539 0 0 1 1.454 4.991c2.964 9.551-1.998-17.994-.775-2.851.263 3.254.229 6.495.34 9.751.465 13.619 1.761-14.697.121-3.585-.571 3.865-.989 7.74-1.658 11.593-1.342 7.734-3.156 15.365-5.188 22.944l4.529-16.392c-9.812 33.006-22.04 65.431-33.234 97.99-13.578 39.494-27.262 78.917-41.703 118.107-24.953 67.719-49.574 135.51-74.147 203.365-14.638 40.42-29.539 80.743-44.633 120.994l7.286-19.429c-57.776 150.523-118.786 299.787-183.202 447.592a10966.815 10966.815 0 0 1-54.679 123.353l8.911-19.456c-63.625 138.151-127.862 275.983-196.355 411.807a9392.273 9392.273 0 0 1-56.028 109.294c-10.295 19.769-14.43 42.319-8.401 64.213 5.323 19.33 20.269 40.278 38.297 49.802 40.557 21.428 89.772 9.886 114.016-29.896 124.177-203.768 256.986-402.254 398.216-594.599a8286.582 8286.582 0 0 1 121.96-161.872l-13.03 16.866c48.398-62.579 97.101-125.131 148.27-185.481 49.246-58.083 101.896-113.831 162.287-160.499l-16.866 13.03c12.581-9.612 25.349-20.128 39.769-26.857l-19.907 8.401c5.838-2.46 11.66-4.192 17.906-5.252l-22.153 2.977a76.031 76.031 0 0 1 20.139.033l-22.153-2.977c5.785.986 11.239 2.53 16.695 4.689l-19.907-8.401c6.164 2.679 11.833 5.967 17.251 9.942l-16.866-13.03c6.032 4.717 11.325 10.022 16.054 16.04l-13.03-16.866a95.5 95.5 0 0 1 10.343 17.659l-8.401-19.907c3.103 7.504 5.829 15.582 6.837 23.67l-1.854-21.924 2.014 23.889-1.666-21.879 1.439 29.873-.908-21.681a57.424 57.424 0 0 1-1.939 12.54l5.866-20.496-9.105 28.843 6.553-20.004c-3.516 9.321-6.915 18.692-10.358 28.036l7.204-19.496c-11.819 29.767-22.809 58.515-32.582 88.939l5.88-18.262c-10.236 29.435-19.79 58.062-28.091 88.038l4.55-16.376-5.936 21.365 5.137-15.902c-14.238 36.997-31.087 72.855-44.574 110.212l6.703-17.574c-8.833 16.068-13.148 35.987-18.198 53.74-8.109 28.505 10.379 65.185 36.991 77.367 29.863 13.671 60.799 7.229 84.421-15.07a104688.715 104688.715 0 0 0 204.808-193.878c10.516-9.981 20.838-22.86 32.995-30.923l-14.782 9.025c2.498-1.462 4.754-2.512 7.488-3.46l-16.339 4.543 18.984-5.165-16.327 4.432c6.438-.903 3.567-1.1-8.61-.589 1.67.127 3.311.416 4.922.866l-16.296-4.653 18.299 5.308-16.243-4.721c1.945.75 3.574 1.545 5.345 2.641l-14.728-9.273a29.804 29.804 0 0 1 4.35 3.664l-11.534-12.913c1.811 2.201 3.061 3.83 4.37 6.258l-7.174-14.991c.378.824 2.64 9.005 3.404 9.57-1.149-8.116-1.527-9.813-1.134-5.089.074 1.523.103 3.046.085 4.57.141 16.211 3.124-10.516 1.106-1.625-.577 2.543-1.062 5.102-1.694 7.635-4.742 18.987-11.242 37.648-16.933 56.374l-37.307 122.771-74.613 245.541c-9.412 30.976 10.125 68.81 42.28 76.586 15.272 3.694 32.471 3.371 46.369-4.902 15.22-9.06 23.398-21.197 30.217-37.378 75.126-178.251 147.695-357.914 238.74-528.795a5683.251 5683.251 0 0 1 87.239-157.645l-8.811 15.343c41.862-70.296 85.663-139.386 131.721-207.008l-10.723 15.743c41.892-59.301 85.843-117.18 131.887-173.341l-12.46 15.156c40.341-47.5 81.975-94.24 126.213-138.153l-14.51 14.356c14.571-13.515 29.488-26.49 45.741-37.963l-17.3 11.7c10.962-6.987 22.119-13.271 34.065-18.422l-19.939 8c10.612-2.9 20.446-7.116 31.416-8.797l-22.153 2.977c9.303-1.16 18.485-1.155 27.79-.013l-22.153-2.977c8.321 1.254 16.301 3.365 24.121 6.472l-19.907-8.401c6.799 2.942 13.081 6.497 19.046 10.894l-16.866-13.03c5.101 4.041 9.565 8.429 13.657 13.491l-13.03-16.866a84.415 84.415 0 0 1 8.719 14.497l-8.401-19.907c2.867 6.807 4.841 13.613 6.088 20.898l-2.977-22.153c1.235 9.673 1.057 19.112-.167 28.777l2.977-22.153c-2.54 16.213-7.688 31.59-14.015 46.689l8.401-19.907c-22.643 52.241-51.07 102.489-77.152 153.081a19326.75 19326.75 0 0 1-242.122 454.689 19232.081 19232.081 0 0 1-343.371 598.921 19228.058 19228.058 0 0 1-201.853 330.231c-22.07 35.306-10.275 82.98 21.463 107.501 30.837 23.824 82.051 24.904 109.418-6.515 96.846-111.182 204.35-212.798 320.929-303.08l-16.866 13.03c38.635-29.816 78.193-58.419 118.693-85.65a2192.444 2192.444 0 0 1 59.691-38.744c19.828-12.417 39.927-26.891 61.443-36.188l-19.906 8.401c11.538-4.5 23.77-8.481 35.199-12.602l-19.988 6.943a36.622 36.622 0 0 1 7.509-.927l-21.434.096 31.72 1.718-20.732-1.743c3.091.57 5.99 1.447 8.886 2.672l-18.448-8.389 30.03 16.419-16.664-10.028a49.436 49.436 0 0 1 8.422 7.983l-11.321-14.218 14.785 18.911-10.109-14.558a114.5 114.5 0 0 1 4.306 9.985l-6.003-16.433a103.287 103.287 0 0 1 4.871 21.814l-1.747-17.44c.617 7.937.331 15.695-.802 23.574l2.724-17.594c-7.975 44.302-22.862 88.339-39.532 130.041l6.975-17.328c-14.239 34.179-31.268 66.898-52.515 97.264l10.918-15.463c-9.286 12.723-19.326 24.673-30.165 36.098-25.545 26.927-24.039 76.258 5.023 100.257 30.256 24.985 72.902 23.812 100.257-5.023 61.055-64.358 96.008-151.97 118.941-236.27 11.449-42.086 23.365-87.33 8.486-130.141-7.381-21.235-15.666-40.83-29.23-58.922-11.868-15.83-26.067-30.097-42.906-40.711-21.864-13.781-49.341-22.364-75.298-23.066-32.113-.869-59.172 9.445-86.308 25.604a2178.939 2178.939 0 0 0-52.59 32.34 2198.045 2198.045 0 0 0-100.997 68.092c-72.05 51.536-141.607 106.845-207.592 165.958-69.574 62.328-135.156 129.034-196.506 199.466l130.881 100.986a19223.652 19223.652 0 0 0 218.825-358.693 19213.408 19213.408 0 0 0 211.188-363.892 19289.224 19289.224 0 0 0 203.45-368.913 19352.508 19352.508 0 0 0 195.612-373.755c17.651-34.64 36.215-69.07 49.414-105.74 16.02-44.506 16.725-92.811-1.695-136.459-32.916-77.998-127.448-114.36-206.78-90.22-26.398 8.033-46.784 21.223-69.112 36.792l17.214-11.989c-26.936 18.741-46.966 36.887-69.629 60.843-10.313 10.902-20.244 22.092-30.106 33.395-24.932 28.576-48.422 58.249-71.655 88.211l12.145-15.658c-47.632 60.802-92.144 122.871-133.848 187.889l10.395-16.193-14.266 22.009 10.452-16.116c-36.927 54.539-70.648 111.516-102.341 169.234-34.715 63.221-68.606 126.836-99.859 191.847-31.112 64.717-60.346 130.319-90.81 195.337-28.218 60.224-55.533 120.868-82.344 181.73-30.093 68.312-59.701 136.847-88.935 205.531l118.866 34.307 94.51-311.019 23.006-75.708c3.467-11.409 7.216-22.774 10.361-34.276 1.023-3.741 1.934-7.509 2.67-11.318.834-4.32 1.438-8.687 2.104-13.033 4.15-27.066-1.341 14.459 1.738-9.193 3.665-28.158 1-56.54-14.939-81.01-20.841-31.996-62.033-47.746-99.011-39.81-41.154 8.833-71.26 44.071-101.136 71.311a112074.841 112074.841 0 0 0-194.847 178.063l121.411 62.297c12.182-40.515 22.252-81.63 34.285-122.255l-4.811 16.171 8.211-26.038-5.137 15.902c4.032-10.478 9.964-20.544 14.826-30.709l-8.39 15.857c21.517-40.113 43.208-79.862 66.356-119.061 7.59-12.853 14.911-25.365 19.42-39.658 8.736-27.69 9.896-51.383 5.641-80.096-4.568-30.828-24.432-63.597-47.275-84.437-29.608-27.012-63.788-41.337-103.632-44.438-32.733-2.547-67.466 9.883-93.861 28.505-28.349 20.001-55.712 41.736-81.578 64.872-44.15 39.491-84.217 83.347-122.364 128.592-82.156 97.443-159.734 199.119-236.059 301.154a8259.129 8259.129 0 0 0-214.598 300.704c-78.649 115.579-154.334 233.164-227.084 352.543l143.912 84.12a9323.392 9323.392 0 0 0 111.527-221.222c39.889-81.827 79.766-163.96 115.561-247.67l-8.492 19.828c6.058-13.768 12.079-27.552 18.109-41.332l-8.626 19.711c66.435-150.762 130.06-302.577 188.368-456.688 17.849-47.176 35.154-94.547 52.302-141.981l-7.085 19.592c23.338-64.095 46.552-128.219 68.717-192.731 20.119-58.557 37.952-117.606 55.291-177.048l-5.437 18.6c13.72-45.673 27.726-91.247 40.697-137.142a4788.177 4788.177 0 0 0 15.075-54.581c5.834-21.615 12.866-43.169 16.079-65.373 6.557-45.322.394-91.923-32.141-126.355-6.942-7.347-15.652-13.574-24.494-18.398-6.61-3.606-15.905-7.431-22.241-9.418 22.419 7.031-13.935-4.689-19.222-5.46-18.076-2.639-33.719-1.409-51.423 3.061-15.586 3.935-29.132 12.087-42.768 20.425l14.84-8.663c-29.798 17.267-57.411 35.241-85.059 55.676a1718.612 1718.612 0 0 0-39.84 30.357 1753.547 1753.547 0 0 0-75.868 63.117c-49.174 43.298-95.946 89.314-140.173 137.651-92.703 101.319-174.982 212.863-245.343 330.772-41.173 68.996-76.26 141.137-108.704 214.581l7.453-16.869c-26.414 59.679-51.164 119.866-72.302 181.638-21.262 62.135-38.922 125.317-54.752 189.039-15.209 61.221-24.338 124.684-32.127 187.213-7.699 61.808-11.46 124.013-14.986 186.165-4.072 71.784-4.003 143.864-.739 215.679 1.239 27.26 31.894 49.74 58.126 45.271 29.982-5.104 46.18-28.906 45.268-58.121z" class="colore5e9f6 svgShape" opacity=".5"/><g class="color000000 svgShape" opacity=".5"><path fill="none" stroke="#5c9dc9" stroke-linecap="round" stroke-linejoin="round" stroke-width="2.778" d="M1217.13 537.777a686.68 686.68 0 0 0-10.183-4.446" class="colorStroke5c75c9 svgStroke"/><path fill="none" stroke="#5c9dc9" stroke-dasharray="22.206 22.206" stroke-linecap="round" stroke-linejoin="round" stroke-width="2.778" d="M1186.378 524.956c-272.241-105.489-470.975 30.573-535.577 117.201-166.637 223.45-157.138 546.326 25.849 758.702s526.226 294.53 797.038 187.505c88.301-34.896 169.755-89.081 221.318-163.619s70.025-170.844 35.766-253.365c-37.784-91.013-132.687-153.187-232.741-185.384-261.146-84.035-579.237 23.989-718.135 243.879-93.736 148.391-107.081 326.591-155.896 492.2-22.286 75.607-67.061 161.049-151.442 172.199-86.802 11.47-158.001-64.83-189.578-140.005-78.238-186.262-14.34-419.045 160.519-537.564 174.859-118.519 447.69-100.126 590.991 49.953 96.143 100.691 127.927 240.034 207.309 352.384 141.684 200.524 440.94 289.522 686.983 211.758 246.043-77.764 420.75-310.135 422.92-549.206.923-101.728-33.533-212.87-126.334-268.352-78.264-46.792-182.666-43.204-269.02-10.568-144.61 54.652-247.695 184.759-277.235 325.848-29.54 141.089 9.491 290.173 90.32 413.164 78.014 118.708 217.94 222.465 366.628 198.712 117.475-18.767 204.1-110.91 264.535-205.356 137.915-215.53 192.028-477.95 134.729-722.368-23.525-100.35-66.4-198.872-139.755-276.295s-179.912-131.758-291.629-131.938c-171.552-.278-321.533 130.338-367.754 282.141-46.22 151.803-4.699 316.619 73.359 456.988 78.057 140.369 190.386 261.635 295.968 385.877 38.133 44.872 76 91.102 98.085 144.294 22.085 53.192 26.725 115.065-1.247 165.865-43.988 79.889-150.274 108.958-245.475 128.032-324.168 64.948-666.901 105.973-983.922 16.045-97.299-27.6-193.938-69.611-258.168-142.216-64.23-72.605-87.961-181.421-34.915-261.289 53.046-79.869 192.754-104.816 260.017-34.567 59.927 62.586 41.845 162.11 87.562 234.114 49.247 77.563 156.329 102.388 252.134 120.115 317.247 58.702 635.293 117.512 957.683 143.366 120.755 9.684 249.997 13.033 354.416-43.532 84.149-45.585 143.059-130.385 147.112-220.067 4.053-89.681-49.408-180.782-135.801-222.673-86.394-41.891-201.725-29.483-271.765 33.085-56.037 50.059-79.275 122.967-123.315 182.292-70.186 94.545-188.004 148.5-303.471 191.409-270.803 100.635-557.432 162.762-847.006 198.06-112.929 13.766-228.981 23.363-339.757-1.056-110.775-24.419-216.831-88.466-259.988-185.339s-4.785-225.606 98.617-269.533c95.028-40.37 209.817-1.06 289.698 61.123 79.88 62.183 137.566 144.943 212.523 212.103 116.57 104.445 275.314 168.08 437.834 176.142" class="colorStroke5c75c9 svgStroke"/><path fill="none" stroke="#5c9dc9" stroke-linecap="round" stroke-linejoin="round" stroke-width="2.778" d="M1507.46 2355.68c3.701.126 7.404.222 11.107.29" class="colorStroke5c75c9 svgStroke"/></g><path fill="#fff" d="M2403.778 1036.927c-5.935 3.054-10.754 8.198-13.986 13.991-3.463 6.207-4.859 13.517-3.773 20.547 1.056 6.835 4.648 13.008 9.586 17.785a34.581 34.581 0 0 0 18.217 9.206c6.776 1.14 13.754-.186 19.844-3.29 6.041-3.078 11.255-8.016 14.5-13.983 3.327-6.117 4.388-13.096 3.451-19.961-.915-6.695-3.855-13.104-8.363-18.141-4.611-5.153-10.997-8.588-17.779-9.845-7.057-1.307-14.379-.487-20.9 2.541a29.112 29.112 0 0 0-4.276 2.45c-.895.618-1.389 1.856-.748 2.85.574.89 1.891 1.41 2.851.747a29.15 29.15 0 0 1 4.784-2.68l.255-.112c-.031.014-.293.119-.07.03.403-.16.805-.322 1.213-.469a30.98 30.98 0 0 1 5.849-1.496c.184-.029.368-.056.553-.082-.44.062.25-.027.371-.04a32.903 32.903 0 0 1 7.352.021c.084.01.585.074.371.044s.285.043.369.056a31.777 31.777 0 0 1 7.074 1.951c.069.027.368.156.017.005l.256.111a29.798 29.798 0 0 1 2.74 1.375 28.942 28.942 0 0 1 3.259 2.158c-.064-.049-.304-.242.003.007.163.132.326.263.487.398a29.098 29.098 0 0 1 4.065 4.154c.084.104.331.425.116.142a31.778 31.778 0 0 1 1.728 2.505c.838 1.351 1.546 2.762 2.198 4.21.098.219-.023-.057-.035-.084l.102.249a31.485 31.485 0 0 1 .631 1.682 32.987 32.987 0 0 1 1.406 5.66c.014.092.098.675.065.434-.034-.256.005.043.009.079l.042.357c.176 1.574.236 3.161.177 4.744-.029.776-.088 1.55-.176 2.321-.009.081-.073.583-.041.345.033-.24-.055.361-.067.432a28.7 28.7 0 0 1-1.719 6.224c-.051.127-.217.499-.069.171-.173.385-.344.771-.528 1.151a29.59 29.59 0 0 1-1.11 2.07 30.814 30.814 0 0 1-1.319 2.051c-.208.296-.427.583-.638.877-.186.259.193-.241-.004.009l-.168.213a32.471 32.471 0 0 1-5.036 5.059c-.095.077-.522.41-.22.179a33.057 33.057 0 0 1-6.601 3.94c-.094.042-.646.281-.25.114a31.58 31.58 0 0 1-3.41 1.206c-3.001.873-5.99 1.268-9.11 1.121a28.377 28.377 0 0 1-3.455-.375c-.176-.03-.351-.063-.526-.094.404.072-.109-.024-.248-.053a30.645 30.645 0 0 1-12.504-5.873c-4.929-3.851-8.559-9.084-10.329-15.089-1.699-5.767-1.407-12.13.335-17.848a33.632 33.632 0 0 1 4.081-8.727c1.614-2.444 3.725-4.58 6.04-6.366a28.547 28.547 0 0 1 3.694-2.414c.65-.359.006-1.279-.633-.95zM2280.432 2048.363a21.267 21.267 0 0 0-5.378 3.912c-1.919 1.915-3.619 4.054-4.915 6.439-2.419 4.451-3.271 9.664-2.354 14.643 1.783 9.674 10.628 17.138 20.156 18.524 9.623 1.4 19.665-4.151 24.108-12.706 4.525-8.712 2.754-19.758-3.795-26.967-6.818-7.505-18.323-9.246-27.389-5.097a20.35 20.35 0 0 0-3.069 1.747c-.896.617-1.388 1.857-.747 2.851.574.891 1.89 1.408 2.85.747a20.405 20.405 0 0 1 2.9-1.669c.14-.066.283-.125.423-.192.292-.14-.287.111.015-.008.26-.102.518-.206.78-.302a21.53 21.53 0 0 1 3.955-1.025l.368-.057c-.463.07.085-.009.185-.02a22.732 22.732 0 0 1 5.024-.001l.37.044c-.41-.05-.082-.01 0 .003a22.025 22.025 0 0 1 4.146 1.044c.262.094.52.202.781.298.337.124-.439-.202.102.042l.339.152a20.04 20.04 0 0 1 2.912 1.642c.206.14.406.286.608.431.327.235.086.06.019.008a20.117 20.117 0 0 1 3.238 3.19c.065.08.312.396.061.069a21.677 21.677 0 0 1 1.118 1.612c.573.911 1.057 1.863 1.51 2.838.242.521-.094-.248.036.078l.134.332a22.818 22.818 0 0 1 1.136 3.86c.047.234.091.469.13.704l.057.354c.085.499-.028-.305.022.155.117 1.068.181 2.136.154 3.21a21.48 21.48 0 0 1-.1 1.603c-.016.157-.101.78-.033.332a19.84 19.84 0 0 1-.992 3.984c-.093.256-.194.508-.294.762-.13.329.208-.439-.04.085-.052.109-.1.22-.151.329a20.38 20.38 0 0 1-1.611 2.825 21.741 21.741 0 0 1-.632.883c.261-.35-.061.076-.119.149a22.447 22.447 0 0 1-3.465 3.441c-.058.048-.313.24-.008.009l-.29.218a22.99 22.99 0 0 1-4.304 2.504c-.095.042-.471.196-.085.039l-.336.135c-.506.198-1.019.378-1.538.539-2.041.631-4.031.943-6.155.881-8.449-.245-16.02-6.314-18.523-14.352-1.207-3.874-1.068-8.195.001-12.08a23.264 23.264 0 0 1 2.723-6.202c1.053-1.678 2.511-3.13 4.067-4.346a19.872 19.872 0 0 1 2.528-1.675c.651-.364.006-1.273-.633-.948zM1525.635 1252.93c-.563-1.741-1.127-3.482-1.689-5.224-.564-1.75-.97-3.544-1.513-5.301-1.154-3.734-2.181-7.506-3.29-11.254-2.159-7.297-4.491-14.54-6.782-21.797-.431-1.364-.9-2.698-.971-4.073a4.066 4.066 0 0 1 .006-.676c.016-.146.04-.291.069-.435.01-.052.109-.4.038-.183.054-.164.128-.322.204-.476.019-.038.174-.254.044-.072a2.9 2.9 0 0 1 .344-.413c-.187.176.213-.146.212-.145.235-.18.562-.304 1.139-.311.288-.003.581.043.865.089.181.029.469.113.812.229 1.256.425 2.095.907 3.242 1.676 5.968 4.001 11.909 8.044 17.864 12.065 6.725 4.54 13.453 9.075 20.173 13.622l.578-3.035a35705.093 35705.093 0 0 0-44.85 16.067c-4.245 1.525-8.49 3.051-12.736 4.573l1.98 2.861c5.5-7.55 10.979-15.114 16.443-22.69 5.578-7.734 11.15-15.472 16.737-23.199 3.309-4.577 6.639-9.137 9.683-13.896l-2.525-1.069c-.51 2.114-1.234 4.178-1.888 6.252-.739 2.343-1.485 4.685-2.227 7.027-1.332 4.205-2.663 8.411-3.992 12.617-2.786 8.818-5.844 17.558-8.779 26.328a1286.594 1286.594 0 0 0-4.878 14.843c-.266.829.514 1.734 1.292 1.878.945.174 1.611-.46 1.878-1.292 2.763-8.604 5.413-17.245 8.056-25.886 1.359-4.446 2.644-8.923 4.093-13.34 1.399-4.264 2.783-8.533 4.172-12.8.811-2.49 1.616-4.983 2.431-7.472.811-2.478 1.571-4.979 2.505-7.413.488-1.271-1.429-2.383-2.306-1.352-3.303 3.887-6.272 8.058-9.283 12.172-2.854 3.901-5.708 7.803-8.569 11.698-5.562 7.573-11.119 15.15-16.67 22.731-3.119 4.259-6.217 8.534-9.319 12.806-.435.599-.374 1.505.039 2.085.393.552 1.237 1.03 1.942.776 15.117-5.459 30.238-10.904 45.352-16.372 4.202-1.52 8.405-3.041 12.607-4.563 1.14-.413 1.743-2.256.578-3.035-12.779-8.552-25.535-17.14-38.314-25.692-2.455-1.643-5.574-3.243-8.593-2.356-1.454.427-2.708 1.578-3.25 2.998-.599 1.57-.465 3.222-.114 4.831.349 1.598.962 3.143 1.485 4.69.693 2.051 1.384 4.102 2.069 6.155a672.854 672.854 0 0 0 3.715 10.878c1.474 4.173 3.046 8.31 4.516 12.483.658 1.867 1.351 3.709 2.045 5.562.753 2.008 1.357 4.084 2.028 6.12.266.811 1.567.53 1.302-.29zM427.619 1710.492c-5.926 4.18-10.316 10.655-11.883 17.736-1.463 6.61-.447 13.479 2.652 19.479 3.087 5.976 8.158 10.764 14.341 13.42 5.988 2.572 12.748 3.122 19.115 1.845 6.375-1.278 12.106-4.569 16.54-9.301 4.264-4.551 7.209-10.345 8.527-16.433 1.379-6.37.957-13.013-1.317-19.129-2.208-5.94-6.074-11.253-11.1-15.118-4.915-3.78-10.936-5.9-17.138-5.99-6.252-.09-12.588 1.786-17.597 5.563-1.591 1.2-3.139 2.902-4.125 4.636-.365.642-.407 1.392.172 1.937.51.48 1.376.604 1.941.11a47.2 47.2 0 0 1 5.077-3.897c-.36.237.155-.091.188-.112a28.517 28.517 0 0 1 1.439-.84 33.23 33.23 0 0 1 1.909-.973c.16-.074.322-.145.482-.218.535-.244-.394.152.153-.066.301-.12.602-.24.906-.351a27.895 27.895 0 0 1 5.051-1.327c.175-.029.351-.054.527-.081a5.03 5.03 0 0 0-.025.003 27.952 27.952 0 0 1 6.563-.049c.076.008.667.085.151.014a28.794 28.794 0 0 1 1.576.266 24.63 24.63 0 0 1 7.796 2.968 27.759 27.759 0 0 1 6.482 5.329 31.758 31.758 0 0 1 3.512 4.729c-.221-.363.088.152.107.185.366.629.71 1.271 1.033 1.923 1.265 2.56 2.215 5.297 2.708 8.112a30.41 30.41 0 0 1 .441 4.342 31.818 31.818 0 0 1-.122 3.847c-.658 5.781-2.725 11.285-6.221 15.954-3.472 4.637-8.265 8.126-13.8 9.865-5.541 1.741-11.636 1.795-17.191.081-5.76-1.777-10.698-5.445-14.011-10.489-3.301-5.026-4.979-11.181-4.486-17.19.501-6.113 3.124-12.195 7.363-16.636a26.9 26.9 0 0 1 3.259-2.896c.826-.625-.162-1.835-.995-1.248zM2314.115 692.29c.891-3.584 1.564-7.205 2.236-10.838.647-3.503 1.328-7 1.962-10.505 1.216-6.722 2.44-13.443 3.655-20.165.713-3.943 1.415-7.888 2.137-11.829l-3.808.498 25.209 41.832 7.074 11.739 1.799-3.135c-11.104 1.383-22.207 2.776-33.31 4.163-3.174.396-6.348.786-9.523 1.172-1.078.131-2.138.864-2.083 2.083.045 1.011.926 2.231 2.083 2.083 11.26-1.435 22.528-2.816 33.794-4.21 3.013-.373 6.026-.75 9.039-1.125.755-.094 1.393-.338 1.799-1.032a2.092 2.092 0 0 0 0-2.103l-25.209-41.832-7.074-11.739a2.093 2.093 0 0 0-2.076-.995c-.742.1-1.603.691-1.732 1.492-2.28 14.165-4.638 28.318-6.899 42.486-.611 3.826-1.359 7.678-1.612 11.547-.107 1.653 2.137 2.031 2.539.413zM2560.79 622.661c5.039 11.477 8.258 23.784 9.621 36.238a125.963 125.963 0 0 1-1.563 37.632 116.454 116.454 0 0 1-5.033 18.094c-2.122 5.754-4.638 11.355-7.237 16.908-5.304 11.335-11.144 22.457-15.341 34.273-3.865 10.88-6.256 22.574-4.371 34.111.134.821.285 1.64.45 2.456.2.992.574 1.885.947 2.824.626 1.578 3.034.89 2.836-.766-.389-3.26-1.019-6.478-1.198-9.767a57.224 57.224 0 0 1 .203-8.654c.553-5.666 1.884-11.233 3.632-16.643 3.827-11.84 9.554-22.974 14.84-34.203 5.218-11.084 9.896-22.397 12.459-34.42a129.03 129.03 0 0 0 2.365-38.07c-1.08-12.44-3.985-24.775-8.767-36.317a136.305 136.305 0 0 0-2.05-4.69c-.551-1.202-2.319-.204-1.793.994zM1914.997 1864.426c-1.918-.602-3.88-1.106-5.876-1.342a44.9 44.9 0 0 0-5.807-.303c-3.828.047-7.642.633-11.335 1.633-7.386 1.999-14.342 5.759-19.979 10.944-5.853 5.384-10.085 12.254-12.363 19.865-2.313 7.73-2.602 16.087-.926 23.975 1.65 7.763 5.235 15.109 10.62 20.964 5.006 5.443 11.496 9.523 18.489 11.889 7.154 2.42 14.918 3.064 22.323 1.481 6.982-1.493 13.328-5.099 18.117-10.4 4.56-5.049 7.642-11.414 8.987-18.069 1.328-6.57.907-13.601-1.705-19.812-3.056-7.266-9.063-12.907-16.135-16.233-7.625-3.585-16.337-4.459-24.546-2.612-8.547 1.924-16.409 6.482-22.626 12.62-5.867 5.792-10.216 12.926-12.976 20.677-2.748 7.718-3.848 16.015-3.416 24.187.429 8.115 2.472 16.105 5.948 23.448 3.513 7.421 8.433 14.16 14.254 19.938 5.826 5.783 12.58 10.584 19.902 14.284 8.167 4.128 17.011 6.718 26.055 8.027 9.536 1.38 19.25 1.24 28.765-.247 2.324-.363 4.667-.766 6.94-1.377 2.778-.747 5.47-1.735 8.223-2.551.776-.23 1.059-1.307.76-1.977-.365-.819-1.198-.991-1.977-.76-2.885.855-5.956 1.226-8.914 1.744-2.318.406-4.63.816-6.965 1.119-4.478.58-8.986.864-13.581.857-9.125-.013-17.927-1.266-26.593-4.039-7.61-2.435-14.281-5.729-20.785-10.313-6.288-4.433-11.954-9.833-16.514-16.039-4.512-6.14-8.062-13.101-10.043-20.475-1.979-7.365-2.522-15.245-1.581-22.702.961-7.618 3.362-15.056 7.3-21.662 4.048-6.79 9.648-12.616 16.515-16.678 6.925-4.096 14.97-6.388 23.045-5.729 7.513.613 15.113 3.752 20.471 9.131 4.67 4.688 7.339 10.715 7.885 17.355.516 6.278-.861 12.679-3.679 18.34-2.828 5.68-7.163 10.571-12.699 13.74-5.989 3.428-13.061 4.706-19.901 4.208-7.033-.512-13.966-2.889-19.88-6.723-6.149-3.987-11.072-9.498-14.313-16.074-3.399-6.897-4.917-14.735-4.524-22.405.39-7.602 2.611-15.112 6.722-21.54 4.009-6.268 9.764-11.365 16.325-14.842a47.806 47.806 0 0 1 21.131-5.524 43.158 43.158 0 0 1 5.223.183c1.816.175 3.624.333 5.423.664.485.089.695-.694.216-.845zM1207.218 576.268c-9.109-2.458-18.393-4.943-27.892-5.006-8.074-.054-15.992 1.75-22.769 6.251-5.779 3.838-10.629 9.604-12.206 16.474-1.877 8.177 1.43 15.867 3.35 23.686.88 3.586 1.407 7.322.525 10.983-.745 3.094-2.395 5.753-4.669 8.05-4.876 4.927-11.911 7.352-18.728 8.032-9.503.948-19.006-.689-28.517-.204-7.46.381-15.259 2.044-21.393 6.531-3.383 2.475-6 5.678-7.864 9.423-1.774 3.563-2.789 7.445-3.657 11.312-1.639 7.305-2.66 14.126-6.887 20.134-1.158 1.646-2.762 2.942-4.053 4.554l.833-.784c-1.327.94-2.658 2.034-4.252 2.492-.933.268-1.315 1.522-.975 2.347.404.98 1.411 1.244 2.347.975 2.749-.79 5.717-1.909 7.816-4.017 1.3-1.305 2.446-2.784 3.432-4.339 2.006-3.16 3.367-6.714 4.322-10.323 1.969-7.438 2.355-15.525 6.35-22.292-.202.343.223-.354.208-.33a21.572 21.572 0 0 1 1.155-1.64 21.04 21.04 0 0 1 1.89-2.123c1.216-1.196 2.618-2.204 4.082-3.075 3.032-1.805 6.404-2.927 9.846-3.65 8.717-1.83 17.673-.813 26.492-.657 8.336.148 16.688-.7 24.08-4.828 6.301-3.519 11.487-9.459 12.359-16.822.982-8.3-3.007-15.883-4.479-23.856-.65-3.519-.611-7.122.461-10.413 1.034-3.175 2.836-6.003 5.091-8.451 4.877-5.296 11.776-8.558 18.834-9.646 9.135-1.408 18.515.206 27.43 2.223 2.223.503 4.438 1.04 6.652 1.579 1.682.411 2.479-2.133.786-2.59z" class="colorffffff svgShape"/><path fill="#e9bebe" d="M2248.178 725.924c0 95.672-77.573 173.197-173.246 173.197-95.623 0-173.197-77.525-173.197-173.197 0-95.671 77.575-173.196 173.197-173.196 95.672 0 173.246 77.525 173.246 173.196z" class="colorbec8e9 svgShape"/><path fill="none" stroke="#343747" stroke-dasharray="11.111" stroke-miterlimit="10" stroke-width="2.778" d="M2167.452 872.327c48.497-30.694 80.726-84.763 80.726-146.403 0-95.671-77.573-173.196-173.246-173.196-8.056 0-15.971.595-23.735 1.661" class="colorStroke453447 svgStroke"/><path fill="#fff" d="M1983.881 730.258h30.48v96.039h-30.48z" class="colorffffff svgShape"/><path fill="#343747" d="M2034.438 684.846h30.48v141.451h-30.48z" class="color453447 svgShape"/><path fill="#fff" d="M2084.995 730.258h30.48v96.039h-30.48z" class="colorffffff svgShape"/><path fill="#343747" d="M2135.552 684.846h30.48v141.451h-30.48z" class="color453447 svgShape"/><path fill="#fff" d="M2072.39 631.506h4.968v46.593h-4.968z" class="colorffffff svgShape" transform="rotate(-51.21 2074.757 654.76)"/><path fill="#fff" d="M2103.168 653.773h44.913v4.967h-44.913z" class="colorffffff svgShape" transform="rotate(-36.678 2125.763 656.304)"/><path fill="#fff" d="M1998.867 655.622h51.059v4.967h-51.059z" class="colorffffff svgShape" transform="rotate(-42.982 2024.273 658.079)"/><path fill="#fff" d="M2058.702 634.569c0 4.993-4.049 9.042-9.017 9.042-4.993 0-9.043-4.049-9.043-9.042 0-4.968 4.049-9.017 9.043-9.017 4.969 0 9.017 4.049 9.017 9.017z" class="colorffffff svgShape"/><path fill="#343747" d="M2008.151 681.638c0 4.993-4.049 9.042-9.017 9.042-4.993 0-9.043-4.049-9.043-9.042 0-4.968 4.049-9.017 9.043-9.017 4.968 0 9.017 4.049 9.017 9.017z" class="color453447 svgShape"/><path fill="#fff" d="M2159.822 637.37c0 4.993-4.049 9.042-9.017 9.042-4.993 0-9.043-4.049-9.043-9.042 0-4.968 4.05-9.017 9.043-9.017 4.968 0 9.017 4.049 9.017 9.017z" class="colorffffff svgShape"/><path fill="#343747" d="M2109.265 674.842c0 4.993-4.049 9.042-9.017 9.042a9.043 9.043 0 0 1-9.042-9.042c0-4.968 4.049-9.017 9.042-9.017 4.968 0 9.017 4.049 9.017 9.017zM1833.612 2436.09a.949.949 0 0 1-.946-.914.95.95 0 0 1 .914-.979c24.107-.833 48.069-10.728 65.737-27.147a.94.94 0 0 1 1.335.049.939.939 0 0 1-.049 1.335c-17.994 16.726-42.4 26.809-66.958 27.656h-.033z" class="color453447 svgShape"/><path fill="#ac4646" d="M1684.888 2394.038c-3.891-.003-7.851-1.307-10.512-3.688-4.084-3.653-5.859-9.657-4.416-14.941 1.439-5.288 6.017-9.56 11.388-10.632 5.345-1.076 11.309.944 15.585 5.245 4.59 4.623 6.372 10.675 7.057 14.936a.952.952 0 0 1-.785 1.087.939.939 0 0 1-1.087-.785c-.641-3.987-2.293-9.636-6.529-13.904-3.833-3.86-9.15-5.669-13.873-4.722-4.683.936-8.672 4.661-9.93 9.272-1.257 4.611.289 9.849 3.852 13.032 3.452 3.091 9.702 4.105 14.215 2.314a.951.951 0 0 1 1.231.53.949.949 0 0 1-.53 1.231c-1.753.695-3.702 1.027-5.666 1.025z" class="colorac4646 svgShape"/><path fill="#fdb4b4" d="M1756.728 2363.56c-.036.009-.079.011-.114.019-5.491 1.214-11.443 1.102-17.551-.019h-35.013l.384 4.831.371 13.039c3.214-.295 6.425.076 9.371 1.396 5.757 2.531 9.781 8.055 15.617 10.201 7.664 2.806 16.156-.779 23.207-4.941 6.56-3.731 13.248-8.144 20.642-8.68l-.793-15.846h-16.121z" class="colorfdb6b4 svgShape"/><path fill="#f78888" d="M1756.713 2363.56c-.032.006-.068.011-.099.019-5.494 1.214-11.45 1.102-17.567-.019h-35.166l.384 4.81.169.021c20.079 11.331 43.466 12.474 69.006 6.983l-.592-11.814h-16.135z" class="colorf7888a svgShape"/><path fill="#f05454" d="M1922.302 2476.459c-24.993 26.377-62.701 40.156-98.805 36.069-19.795-2.248-39.417-9.47-59.114-6.709-11.371 1.582-22.17 6.447-33.608 7.454-13.875 1.208-28.186-3.675-38.433-13.09-10.213-9.415-16.531-22.685-18.619-36.392 0-.068-.034-.101-.034-.169-2.728-18.174-1.124-36.954 4.608-54.377 2.645-7.984 6.306-15.934 12.57-21.513 6.265-5.579 15.674-8.313 23.319-4.89 5.717 2.542 9.774 8.027 15.593 10.163 7.68 2.848 16.176-.767 23.252-4.89 7.076-4.089 14.388-8.957 22.544-8.782 7.343.141 14.108 4.511 18.841 10.098 4.733 5.621 7.774 12.425 10.747 19.161 7.703 17.399 28.17 24.893 47.017 27.681 18.813 2.789 38.069 1.212 56.95 3.561 6.7.851 14.143 2.819 18.674 7.391 1.42 1.423 2.57 3.082 3.313 5.044 3.243 8.463-2.55 17.596-8.815 24.19z" class="colore55d5d svgShape"/><path fill="#343747" d="M1922.302 2476.459c-24.993 26.377-62.701 40.156-98.805 36.069-19.795-2.248-39.417-9.47-59.114-6.709-11.371 1.582-22.17 6.447-33.608 7.454-13.875 1.208-28.186-3.675-38.433-13.09-10.213-9.415-16.531-22.685-18.619-36.392 4.936 6.535 11.395 11.954 18.906 15.276 12.719 5.66 27.203 5.604 40.977 3.888 13.774-1.716 27.38-5.022 41.255-5.655 37.293-1.631 74.74 16.331 111.091 7.83 11.575-2.699 22.645-8.173 30.806-16.796 4.538-4.768 8.062-10.552 10.164-16.777.373-1.116.611-2.639.883-4.331 1.42 1.423 2.57 3.082 3.313 5.044 3.242 8.462-2.551 17.595-8.816 24.189z" class="color453447 svgShape"/><path fill="#343747" d="M1672.393 2447.591a42.671 42.671 0 0 1 4.389-6.66c1.694-2.079 3.62-3.973 5.669-5.744 4.173-3.445 8.987-6.198 14.164-7.986 2.573-.943 5.242-1.618 7.944-2.091 2.695-.512 5.478-.715 8.235-.726 5.529-.011 11.053.962 16.269 2.787 5.216 1.827 10.142 4.516 14.452 7.985a42.9 42.9 0 0 1 5.969 5.756c1.833 2.074 3.382 4.364 4.771 6.721 1.405 2.351 2.567 4.829 3.55 7.359.981 2.535 1.706 5.152 2.298 7.779.528 2.646.862 5.32.985 7.991.08 2.677-.053 5.345-.445 7.961-.56-10.548-4.042-20.604-9.734-28.967-2.892-4.157-6.317-7.829-10.348-10.797-2.004-1.486-4.095-2.865-6.321-4.001-2.203-1.17-4.487-2.204-6.856-2.998-2.354-.83-4.769-1.505-7.228-1.942a45.909 45.909 0 0 0-7.44-.831c-4.983-.189-10.035.481-14.919 1.778-9.758 2.648-18.749 8.387-25.404 16.626zM1786.992 2422.332a.949.949 0 0 1-.724-1.557 44.032 44.032 0 0 1 16.807-12.263c2.693-15.443 10.043-28.127 20.219-34.85 4.392-2.907 8.454-4.539 12.416-4.984 4.934-.555 9.748.917 12.853 3.948 6.031 5.892 4.593 15.881-.197 21.75-4.157 5.097-10.732 8.528-20.098 10.493-2.589.542-5.238.961-7.801 1.37-4.701.747-9.562 1.521-14.104 3.06a41.678 41.678 0 0 0-2.172.805 42.15 42.15 0 0 0-16.474 11.893.952.952 0 0 1-.725.335zm50.788-51.878c-.614 0-1.235.032-1.857.102-3.658.415-7.45 1.948-11.587 4.681-9.35 6.185-16.453 18.244-19.189 32.481.2-.074.403-.144.61-.21 4.691-1.594 9.632-2.378 14.411-3.141 2.541-.405 5.167-.821 7.708-1.355 8.926-1.869 15.149-5.085 19.025-9.835 4.279-5.245 5.436-14.213.336-19.198-2.313-2.259-5.755-3.523-9.457-3.525z" class="color453447 svgShape"/><path fill="#343747" d="M1848.642 2419.178c-2.502 2.801-5.911 4.465-9.169 5.901a155.6 155.6 0 0 1-11.441 4.536 158.086 158.086 0 0 1-27.689 7.138h-.152a.971.971 0 0 1-.946-.796c-.075-.53.266-1.022.796-1.098a157.307 157.307 0 0 0 25.606-6.382 159.953 159.953 0 0 0 13.031-5.103c3.107-1.399 6.289-2.912 8.563-5.447 1.933-2.195 3.336-5.754 2.052-8.785-1.777-4.205-7.382-5.004-9.048-5.119-5.832-.497-11.817 1.355-16.402 4.987-4.32 3.443-7.202 7.948-8.228 13.098a19.517 19.517 0 0 1-1.627-1.44c1.292-5.15 4.249-9.654 8.682-13.135 4.964-3.935 11.366-5.9 17.728-5.403 5.189.42 9.163 2.771 10.638 6.257 1.437 3.333.487 7.574-2.394 10.791z" class="color453447 svgShape"/><path fill="none" stroke="#fff" stroke-miterlimit="10" stroke-width="1.523" d="M1749.839 2408.699c.86 1.831 2.999 3.048 4.973 2.609 1.178-.262 2.198-1.057 2.878-2.053.997-1.462 1.29-3.402.688-5.066-.602-1.664-2.111-2.988-3.855-3.286-4.266-.732-6.271 4.417-4.684 7.796z" class="colorStrokeffffff svgStroke"/><path fill="#fff" d="M1683.689 2458.504c.086-4.626 2.237-9.154 5.617-12.399.86-.797 1.78-1.543 2.794-2.149 1.007-.601 2.047-1.199 3.274-1.47.607-.135 1.264-.182 1.923-.045.664.135 1.273.508 1.738.999.509.487.73 1.141.924 1.747.14.615.217 1.229.238 1.823.056 1.189 0 2.338.093 3.426.073 1.089.355 2.092 1.027 2.707.633.65 1.648.769 2.61.531.983-.259 1.838-.8 2.548-1.601 1.44-1.558 2.389-3.808 4.187-5.521 1.728-1.691 3.96-2.997 6.475-3.289a7.76 7.76 0 0 1 3.745.468 8.206 8.206 0 0 1 3.085 2.156c.827.954 1.476 2.116 1.676 3.416.246 1.298-.076 2.652-.564 3.751-.976 2.21-2.422 4.04-1.789 6.038.127.472.339.919.637 1.236.301.314.66.485 1.072.508.84.063 1.729-.668 2.796-1.262 4.385-2.385 10.299-.742 12.753 3.484 2.358 4.254.75 10.066-3.312 12.383 3.855-2.593 5.035-8.246 2.67-12.002-2.324-3.775-7.841-5.052-11.529-2.848-.463.254-.919.617-1.461.928-.533.309-1.195.608-1.948.593-.745-.002-1.494-.369-1.984-.89-.495-.523-.784-1.152-.963-1.782a5.567 5.567 0 0 1-.18-1.943 5.39 5.39 0 0 1 .178-.979c.092-.301.194-.594.309-.876.461-1.132 1.06-2.128 1.476-3.128.422-1 .634-1.991.439-2.974-.157-.986-.679-1.91-1.359-2.681a6.756 6.756 0 0 0-2.539-1.737c-.958-.367-1.991-.473-3.038-.345-2.089.214-4.073 1.319-5.629 2.816-1.598 1.458-2.504 3.588-4.188 5.424-.821.915-1.984 1.672-3.241 1.969a4.84 4.84 0 0 1-1.995.067 3.461 3.461 0 0 1-1.837-.951c-1.034-.987-1.343-2.394-1.392-3.572-.064-1.21.03-2.365.009-3.476-.01-1.103-.154-2.197-.78-2.893-.609-.747-1.648-.95-2.684-.733-1.042.191-2.054.719-3.03 1.265-.983.543-1.875 1.238-2.733 1.965-3.418 2.943-5.69 7.256-6.118 11.846zM1838.963 2452.921c.669-1.487 1.369-2.998 2.502-4.247.567-.618 1.219-1.174 2.025-1.53a5.212 5.212 0 0 1 2.559-.414c.874.085 1.764.414 2.448 1.064.697.652 1.007 1.642 1.067 2.487.086.854.056 1.677.228 2.364.154.677.595 1.16 1.171 1.291.577.133 1.295-.063 1.938-.407.667-.35 1.223-.782 1.818-1.352 1.18-1.086 2.327-2.302 3.746-3.304.718-.496 1.472-.931 2.363-1.219a6.916 6.916 0 0 1 2.712-.294c.914.079 1.841.352 2.653.905.811.531 1.45 1.445 1.697 2.36.252.893.305 1.69.584 2.269.27.584.72 1.08 1.329 1.399 1.211.66 2.814.715 4.215.326 1.41-.406 2.756-1.301 4.061-2.237 1.312-.942 2.652-1.98 4.231-2.677 3.115-1.427 6.665-1.64 9.908-.844 3.226.836 6.235 2.67 8.144 5.355-2.173-2.458-5.162-4.061-8.306-4.627-3.125-.617-6.449-.26-9.235 1.169-1.395.692-2.63 1.717-3.953 2.699-1.322.983-2.712 1.995-4.447 2.546-1.723.499-3.63.478-5.33-.404a4.489 4.489 0 0 1-1.99-2.087c-.416-.914-.462-1.789-.672-2.461-.327-1.298-1.583-2.095-3.028-2.212a5.463 5.463 0 0 0-2.133.215c-.67.206-1.356.587-1.99 1.003-1.281.858-2.423 2.004-3.668 3.106-.597.547-1.343 1.132-2.148 1.503-.803.373-1.766.664-2.796.395-1.044-.264-1.763-1.263-1.911-2.184-.177-.917-.095-1.747-.147-2.52-.033-.778-.23-1.451-.717-1.962-.485-.509-1.193-.814-1.935-.931a4.578 4.578 0 0 0-2.253.208c-.714.254-1.38.734-1.951 1.28-1.148 1.117-1.977 2.555-2.789 3.969z" class="colorffffff svgShape"/><path fill="#343747" d="M1268.084 2436.09a.949.949 0 0 0 .946-.914.95.95 0 0 0-.914-.979c-24.107-.833-48.069-10.728-65.737-27.147a.94.94 0 0 0-1.335.049.94.94 0 0 0 .049 1.335c17.994 16.726 42.4 26.809 66.958 27.656h.033z" class="color453447 svgShape"/><path fill="#ac4646" d="M1416.808 2394.038c3.891-.003 7.851-1.307 10.512-3.688 4.084-3.653 5.859-9.657 4.416-14.941-1.439-5.288-6.017-9.56-11.388-10.632-5.345-1.076-11.309.944-15.585 5.245-4.59 4.623-6.372 10.675-7.057 14.936a.952.952 0 0 0 .785 1.087.939.939 0 0 0 1.087-.785c.641-3.987 2.293-9.636 6.529-13.904 3.833-3.86 9.15-5.669 13.873-4.722 4.683.936 8.672 4.661 9.93 9.272 1.257 4.611-.289 9.849-3.852 13.032-3.452 3.091-9.702 4.105-14.215 2.314a.951.951 0 0 0-1.231.53.949.949 0 0 0 .53 1.231c1.753.695 3.702 1.027 5.666 1.025z" class="colorac4646 svgShape"/><path fill="#fdb4b4" d="M1344.968 2363.56c.036.009.079.011.114.019 5.491 1.214 11.443 1.102 17.551-.019h35.013l-.384 4.831-.371 13.039c-3.214-.295-6.425.076-9.371 1.396-5.757 2.531-9.781 8.055-15.617 10.201-7.664 2.806-16.156-.779-23.207-4.941-6.56-3.731-13.248-8.144-20.642-8.68l.793-15.846h16.121z" class="colorfdb6b4 svgShape"/><path fill="#f78888" d="M1344.983 2363.56c.032.006.068.011.099.019 5.494 1.214 11.45 1.102 17.567-.019h35.166l-.384 4.81-.169.021c-20.079 11.331-43.466 12.474-69.006 6.983l.592-11.814h16.135z" class="colorf7888a svgShape"/><path fill="#f05454" d="M1179.394 2476.459c24.993 26.377 62.701 40.156 98.805 36.069 19.795-2.248 39.417-9.47 59.114-6.709 11.371 1.582 22.17 6.447 33.608 7.454 13.875 1.208 28.186-3.675 38.432-13.09 10.213-9.415 16.531-22.685 18.619-36.392 0-.068.034-.101.034-.169 2.728-18.174 1.124-36.954-4.608-54.377-2.645-7.984-6.306-15.934-12.57-21.513-6.265-5.579-15.674-8.313-23.319-4.89-5.717 2.542-9.774 8.027-15.593 10.163-7.68 2.848-16.176-.767-23.251-4.89-7.076-4.089-14.389-8.957-22.544-8.782-7.343.141-14.108 4.511-18.841 10.098-4.733 5.621-7.774 12.425-10.747 19.161-7.703 17.399-28.17 24.893-47.017 27.681-18.813 2.789-38.069 1.212-56.95 3.561-6.7.851-14.143 2.819-18.674 7.391-1.42 1.423-2.57 3.082-3.313 5.044-3.243 8.463 2.55 17.596 8.815 24.19z" class="colore55d5d svgShape"/><path fill="#343747" d="M1179.394 2476.459c24.993 26.377 62.701 40.156 98.805 36.069 19.795-2.248 39.417-9.47 59.114-6.709 11.371 1.582 22.17 6.447 33.608 7.454 13.875 1.208 28.186-3.675 38.432-13.09 10.213-9.415 16.531-22.685 18.619-36.392-4.936 6.535-11.395 11.954-18.906 15.276-12.719 5.66-27.203 5.604-40.977 3.888-13.774-1.716-27.38-5.022-41.255-5.655-37.293-1.631-74.74 16.331-111.091 7.83-11.575-2.699-22.645-8.173-30.806-16.796-4.538-4.768-8.062-10.552-10.164-16.777-.373-1.116-.611-2.639-.883-4.331-1.42 1.423-2.57 3.082-3.313 5.044-3.241 8.462 2.552 17.595 8.817 24.189z" class="color453447 svgShape"/><path fill="#343747" d="M1429.303 2447.591c-6.655-8.239-15.646-13.978-25.406-16.625-4.883-1.298-9.936-1.967-14.918-1.778-2.498.066-4.988.36-7.44.831-2.459.437-4.875 1.112-7.228 1.942-2.369.795-4.653 1.828-6.856 2.998-2.226 1.136-4.318 2.515-6.322 4.001-4.031 2.968-7.455 6.64-10.347 10.797-5.691 8.362-9.174 18.418-9.734 28.967-.391-2.616-.525-5.284-.445-7.961.123-2.671.457-5.344.985-7.991.593-2.627 1.317-5.244 2.298-7.779.984-2.53 2.146-5.008 3.55-7.359 1.389-2.357 2.938-4.647 4.771-6.721a42.846 42.846 0 0 1 5.969-5.756c4.311-3.469 9.236-6.158 14.452-7.985 5.217-1.825 10.74-2.798 16.269-2.787 2.757.01 5.54.214 8.235.726 2.702.473 5.371 1.148 7.944 2.091 5.177 1.788 9.991 4.541 14.164 7.986 2.05 1.771 3.976 3.665 5.669 5.744a42.55 42.55 0 0 1 4.39 6.659zM1313.978 2421.996a42.15 42.15 0 0 0-16.474-11.893 42.76 42.76 0 0 0-2.172-.805c-4.543-1.539-9.403-2.312-14.104-3.06-2.563-.409-5.212-.828-7.801-1.37-9.366-1.964-15.94-5.396-20.098-10.493-4.79-5.87-6.229-15.858-.197-21.75 3.104-3.031 7.919-4.503 12.853-3.948 3.961.445 8.023 2.076 12.416 4.984 10.176 6.724 17.526 19.408 20.219 34.85a44.032 44.032 0 0 1 16.807 12.263.949.949 0 0 1-.724 1.557.947.947 0 0 1-.725-.335zm-59.52-48.018c-5.1 4.986-3.943 13.953.336 19.198 3.876 4.75 10.099 7.966 19.025 9.835 2.541.534 5.167.95 7.708 1.355 4.779.762 9.721 1.546 14.411 3.141.207.066.411.136.61.21-2.736-14.237-9.839-26.296-19.189-32.481-4.137-2.734-7.929-4.266-11.587-4.681a16.365 16.365 0 0 0-1.857-.102c-3.701.003-7.144 1.267-9.457 3.525z" class="color453447 svgShape"/><path fill="#343747" d="M1253.053 2419.178c2.502 2.801 5.911 4.465 9.169 5.901a155.6 155.6 0 0 0 11.441 4.536 158.11 158.11 0 0 0 27.689 7.138h.152a.971.971 0 0 0 .946-.796c.075-.53-.266-1.022-.796-1.098a157.307 157.307 0 0 1-25.606-6.382 159.953 159.953 0 0 1-13.031-5.103c-3.107-1.399-6.289-2.912-8.563-5.447-1.933-2.195-3.336-5.754-2.052-8.785 1.777-4.205 7.382-5.004 9.048-5.119 5.832-.497 11.817 1.355 16.402 4.987 4.32 3.443 7.202 7.948 8.228 13.098.567-.455 1.097-.91 1.627-1.44-1.292-5.15-4.249-9.654-8.682-13.135-4.964-3.935-11.366-5.9-17.728-5.403-5.189.42-9.163 2.771-10.638 6.257-1.436 3.333-.486 7.574 2.394 10.791z" class="color453447 svgShape"/><path fill="none" stroke="#fff" stroke-miterlimit="10" stroke-width="1.523" d="M1351.856 2408.699c-.86 1.831-2.999 3.048-4.973 2.609-1.178-.262-2.198-1.057-2.878-2.053-.997-1.462-1.29-3.402-.688-5.066.602-1.664 2.111-2.988 3.855-3.286 4.267-.732 6.271 4.417 4.684 7.796z" class="colorStrokeffffff svgStroke"/><path fill="#fff" d="M1418.007 2458.504c-.429-4.591-2.701-8.904-6.117-11.851-.858-.727-1.75-1.422-2.733-1.965-.976-.546-1.988-1.074-3.03-1.265-1.035-.218-2.074-.014-2.684.733-.626.696-.771 1.79-.78 2.893-.021 1.111.073 2.266.009 3.476-.05 1.178-.359 2.585-1.392 3.572a3.451 3.451 0 0 1-1.837.951 4.824 4.824 0 0 1-1.995-.067c-1.257-.298-2.42-1.054-3.241-1.969-1.684-1.836-2.59-3.966-4.188-5.424-1.556-1.497-3.54-2.603-5.629-2.816-1.047-.127-2.08-.022-3.038.345a6.74 6.74 0 0 0-2.539 1.737c-.681.771-1.202 1.695-1.359 2.681-.195.983.017 1.974.439 2.974.416 1 1.015 1.996 1.476 3.128.116.283.218.576.309.876.088.325.152.652.178.979a5.565 5.565 0 0 1-.18 1.943c-.179.631-.468 1.259-.963 1.782-.489.521-1.239.888-1.984.89-.753.014-1.416-.284-1.948-.593-.542-.311-.998-.675-1.461-.928-3.688-2.204-9.205-.927-11.529 2.848-2.365 3.756-1.185 9.409 2.67 12.002-4.062-2.317-5.67-8.128-3.312-12.383 2.454-4.225 8.368-5.869 12.753-3.484 1.067.594 1.956 1.325 2.796 1.262a1.569 1.569 0 0 0 1.072-.508c.297-.317.51-.764.637-1.236.633-1.998-.813-3.828-1.789-6.038-.488-1.099-.81-2.453-.564-3.751.2-1.299.848-2.462 1.676-3.416a8.217 8.217 0 0 1 3.085-2.156 7.76 7.76 0 0 1 3.745-.468c2.515.292 4.748 1.598 6.476 3.289 1.798 1.713 2.747 3.963 4.187 5.521.71.802 1.565 1.342 2.548 1.601.962.239 1.977.12 2.61-.531.671-.615.953-1.618 1.027-2.707.093-1.088.037-2.237.093-3.426a9.9 9.9 0 0 1 .238-1.823c.195-.605.416-1.26.924-1.747.465-.491 1.074-.863 1.738-.999.659-.137 1.316-.091 1.923.045 1.227.271 2.267.87 3.274 1.47 1.014.606 1.934 1.353 2.794 2.149 3.378 3.25 5.529 7.778 5.615 12.404zM1262.733 2452.921c-.812-1.414-1.641-2.851-2.79-3.967-.571-.545-1.237-1.025-1.951-1.28a4.566 4.566 0 0 0-2.253-.208c-.742.117-1.45.422-1.935.931-.487.511-.684 1.185-.717 1.962-.052.773.031 1.603-.147 2.52-.148.921-.866 1.92-1.911 2.184-1.03.268-1.993-.022-2.796-.395-.805-.372-1.551-.957-2.148-1.503-1.245-1.102-2.387-2.248-3.668-3.106-.634-.416-1.32-.797-1.99-1.003a5.444 5.444 0 0 0-2.133-.215c-1.445.116-2.701.914-3.028 2.212-.209.672-.256 1.547-.672 2.461a4.489 4.489 0 0 1-1.99 2.087c-1.7.882-3.607.902-5.33.404-1.735-.551-3.125-1.563-4.447-2.546-1.323-.982-2.558-2.007-3.953-2.699-2.786-1.429-6.11-1.786-9.235-1.169-3.143.566-6.133 2.169-8.305 4.627 1.909-2.686 4.917-4.52 8.144-5.355 3.243-.796 6.793-.583 9.908.844 1.579.697 2.919 1.736 4.231 2.677 1.305.937 2.651 1.831 4.061 2.237 1.401.388 3.004.333 4.215-.326a2.977 2.977 0 0 0 1.329-1.399c.279-.579.332-1.376.584-2.269.248-.914.886-1.828 1.697-2.36.812-.552 1.739-.825 2.653-.905a6.937 6.937 0 0 1 2.712.294c.891.287 1.645.723 2.363 1.219 1.419 1.002 2.566 2.218 3.746 3.304.595.569 1.151 1.002 1.818 1.352.643.344 1.361.54 1.938.407.576-.131 1.017-.614 1.171-1.291.172-.687.142-1.51.228-2.364.06-.845.37-1.835 1.067-2.487.684-.651 1.573-.979 2.448-1.064a5.224 5.224 0 0 1 2.559.414c.805.356 1.458.912 2.025 1.53 1.133 1.247 1.833 2.758 2.502 4.245z" class="colorffffff svgShape"/><path fill="#ff5e5e" d="M1547.926 1532.312c-16.994 59.548-19.828 62.047-3.061 137.514 16.767 75.467 60.141 228.384 77.673 322.196 17.53 93.814 18.548 294.794 49.856 354.36 31.306 59.566 37.672 14.232 71.075 17.591 33.404 3.361 84.455 34.846 81.995-25.75-2.461-60.596-36.937-224.204-38.286-275.36-1.349-51.157 18.174-4.32 4.096-37.071-14.077-32.753 18.354 18.935-1.376-33.093-19.732-52.029.302-259.045-3.064-328.302-3.366-69.255-25.146-98.666-44.141-156.7" class="colorffd05e svgShape"/><path fill="#ff5e5e" d="M1559.816 1669.807c-2.094 9.485-4.619 20.201-7.515 31.84v.063c-9.053 37.259-21.371 84.127-33.503 131.919v.062c-14.287 56.352-28.391 113.936-36.644 158.34-17.553 93.797-18.635 297.553-49.922 357.108-31.347 59.616-37.655 11.491-71.034 14.817-33.381 3.388-84.437 34.859-81.973-25.743 2.463-60.602 36.891-224.177 38.245-275.356 1.355-51.179-18.168-4.311-4.066-37.076 14.044-32.765-18.353 18.969 1.356-33.072 19.708-52.042-.308-259.036 3.079-328.322 3.326-69.224 25.126-98.663 44.157-156.677l194.739 24.572c16.998 59.556 19.831 62.08 3.081 137.525z" class="colorffd05e svgShape"/><path fill="#141f51" d="M1552.301 1701.647v.063c-9.053 37.259-21.371 84.127-33.503 131.919l14.844-212.169c6.588 37.139 18.659 80.187 18.659 80.187z" class="color231826 svgShape"/><path fill="#fff" d="M1657.183 2301.4c-.59-.337-1.191-.772-1.819-1.03-.198-.081-.48-.194-.693-.128-.429.133-.614.504-.458.926.089.239.381.369.586.487.505.291 1.019.566 1.525.855 1.516.865 3.003 1.783 4.421 2.802 3.162 2.273 6.393 4.549 10.199 5.599 3.166.873 6.464.667 9.411-.811 2.381-1.194 4.344-3.082 6.109-5.044 1.883-2.094 3.595-4.34 5.554-6.367 2.049-2.12 4.326-3.99 7.299-4.537 7.645-1.406 14.356 3.181 19.486 8.372 5.229 5.292 10.132 11.333 17.398 13.864 3.172 1.105 6.711 1.567 9.992.658 3.131-.866 5.615-2.827 7.562-5.383 3.555-4.669 5.159-11.405 10.445-14.572 6.427-3.852 14.606-.431 20.331 3.153 6.078 3.805 12.075 8.981 19.35 10.249 5.918 1.031 13.378-.576 16.802-5.968a11.812 11.812 0 0 0 1.616-3.981c.367-1.786-2.396-2.41-2.763-.621-1.151 5.604-7.765 7.775-12.837 7.474-6.817-.404-12.731-5.2-18.3-8.777-6.146-3.948-13.174-7.191-20.657-5.749-3.141.606-5.926 2.286-8.037 4.671-2.008 2.269-3.401 5.03-4.819 7.683-1.318 2.465-2.68 5.022-4.728 6.968-2.417 2.296-5.609 3.267-8.911 2.997-3.432-.281-6.842-1.648-9.633-3.645-3.098-2.216-5.728-5.028-8.374-7.747-5.012-5.149-10.454-10.558-17.87-11.751-1.739-.28-3.578-.36-5.314-.002-1.579.326-2.976 1.122-4.359 1.91-2.338 1.333-4.275 3.256-6.051 5.252-3.425 3.852-6.7 8.906-11.924 10.418-7.703 2.23-14.027-4.428-20.11-7.907-.547-.313-1.1-.616-1.653-.918-.17-.093-.341-.209-.519-.285-.268-.115-.182-.27-.051.078l-.458.926c-.292.094-.318-.055-.069.051.121.052.243.078.37.106.56.121 1.128.224 1.69.346.366.083.611-.421.261-.622z" class="colorffffff svgShape"/><path fill="#fdb4b4" d="M1139.941 844.505c-1.527 14.897-11.161 27.533-19.847 39.746-3.054 4.369-6.053 8.949-8.529 13.687-4.632 8.687-7.633 18.005-6.37 27.638l-52.591 19.794c.053-12.423-5.001-23.848-10.476-35.166-3.527-7.266-7.213-14.477-9.95-21.953-8.422-23.11-7.264-48.485-6.001-73.016.158-3.001.316-6.055 1.685-8.687 1.316-2.632 4.159-4.79 7.107-4.316 4.474.684 6.053 6.159 6.737 10.634 1.211 8.318 2.475 16.688 3.686 25.006-1.105-14.53-2.212-29.059-3.317-43.536-.263-4.054-.58-8.265.685-12.214 1.316-3.896 4.579-7.475 8.686-7.738 4.159-.263 7.949 2.896 9.74 6.686 1.789 3.737 2 8.055 2.105 12.266.578 15.635 1.105 31.692 1.685 47.274.315-19.636.578-39.221.789-58.908.053-4.264.158-8.74 1.947-12.635 1.738-3.896 5.633-7.16 9.898-6.897 4.001.316 7.266 3.685 8.633 7.476 1.37 3.79 1.265 7.897 1.159 11.896-.58 19.216-.738 38.641-1.369 57.857a357.256 357.256 0 0 1 8.317-47.59c.843-3.423 1.738-6.897 3.737-9.845 2.001-2.948 5.159-5.264 8.74-5.159 5.37.053 9.371 5.581 9.845 10.95.368 5.317-1.685 10.581-3.37 15.635-6.58 19.425-7.791 40.219-5.212 60.487 2.474-9.265 6.58-18.214 12.108-26.111 3.054-4.37 7.739-8.896 12.95-7.634 5.582 1.421 7.371 8.634 6.793 14.373z" class="colorfdb6b4 svgShape"/><path fill="#f78888" d="m1105.195 925.575-52.591 19.794c.053-12.423-5.001-23.848-10.476-35.166 4.106-4.001 8.74-7.476 13.739-10.214 13.109-7.159 28.797-9.422 43.431-6.264 4.213.895 8.371 2.265 12.266 4.212-4.631 8.687-7.632 18.005-6.369 27.638z" class="colorf7888a svgShape"/><path fill="#f6e5e5" d="m1116.39 936.86-78.071 14.829s-10.349-24.572-5.872-31.169c11.136-16.401 61.611-25.964 78.012-14.767 6.536 4.418 5.931 31.107 5.931 31.107z" class="colore5e9f6 svgShape"/><path fill="#3282b8" d="m1475.988 962.242-13.375 28.204-109.36 231.189s-8.534 8.169-22.816 20.213c-51.443 43.394-177.508 137.624-247.349 83.64-89.208-68.934-57.252-383.157-55.196-390.237 1.998-7.081 19.39-13.653 36.104-15.106 17.784-1.546 50.562-19.39 57.099 3.97 6.597 23.301 52.713 173.332 52.713 173.332 11.68-4.6 9.684 9.139 9.684 9.139 4.054-10.168 13.858-4.238 13.858-4.238s77.42-140.746 251.524-143.434c13.859-.214 23.24 2.301 26.145 3.087.668.12.969.241.969.241z" class="color5c75c9 svgShape"/><path fill="#fdb4b4" d="M1992.451 888.251c-1.79 4.844-3.948 9.634-6.264 14.372-6.686 13.899-14.215 27.533-14.161 42.747l-52.538-19.794c1.051-8.317-1.054-16.373-4.581-24.006-2.843-6.054-6.58-11.898-10.371-17.319-8.687-12.214-18.32-24.849-19.847-39.746-.58-5.739 1.211-12.951 6.791-14.373 5.212-1.262 9.896 3.265 13.003 7.634 5.475 7.897 9.58 16.846 12.056 26.111 2.58-20.268 1.368-41.062-5.159-60.487-1.738-5.054-3.792-10.318-3.423-15.635.474-5.37 4.475-10.898 9.845-10.95 3.579-.105 6.739 2.211 8.738 5.159 2 2.948 2.896 6.422 3.738 9.845a357.26 357.26 0 0 1 8.318 47.59c-.632-19.216-.789-38.641-1.369-57.857-.105-4-.211-8.106 1.158-11.896 1.369-3.791 4.632-7.16 8.634-7.476 4.263-.263 8.159 3.001 9.896 6.897 1.789 3.896 1.894 8.371 1.948 12.635.21 19.687.473 39.272.789 58.908.578-15.582 1.105-31.639 1.684-47.274.105-4.212.316-8.529 2.106-12.266 1.79-3.79 5.581-6.949 9.738-6.686 4.108.263 7.371 3.843 8.687 7.738 1.263 3.948 1 8.16.685 12.214-1.107 14.477-2.212 29.007-3.317 43.536 1.211-8.318 2.474-16.688 3.685-25.006.685-4.475 2.265-9.95 6.739-10.634 2.948-.474 5.791 1.684 7.107 4.316 1.369 2.632 1.526 5.686 1.685 8.687 1.264 24.531 2.424 49.906-6 73.016z" class="colorfdb6b4 svgShape"/><path fill="#f78888" d="M1986.187 902.622c-6.686 13.899-14.215 27.533-14.161 42.747l-52.538-19.794c1.051-8.317-1.054-16.373-4.581-24.006 18.793-9.422 48.063-7.211 64.436-1.736 2.316.789 4.633 1.684 6.844 2.789z" class="colorf7888a svgShape"/><path fill="#f6e5e5" d="m1908.244 936.86 78.071 14.829s10.349-24.572 5.872-31.169c-11.136-16.401-61.611-25.964-78.012-14.767-6.537 4.418-5.931 31.107-5.931 31.107z" class="colore5e9f6 svgShape"/><path fill="#3282b8" d="M1941.515 1325.488c-56.224 43.453-148.821-9.078-209.645-53.923-35.767-26.266-60.521-49.93-60.521-49.93l-98.528-230.584-11.256-26.326s2.119-.303 5.931-.606h.121c4.479-.363 11.256-.786 19.73-.907 24.754-.183 81.413-7.582 133.99 21.063 69.955 38.114 105.914 118.072 105.914 118.072s9.866-5.931 13.92 4.238c0 0-2.058-13.738 9.623-9.139 0 0 46.116-150.031 52.713-173.332 6.596-23.36 39.63-5.486 57.399-2.936 17.663 2.535 33.805 6.992 35.863 14.073 1.998 7.08 33.953 321.303-55.254 390.237z" class="color5c75c9 svgShape"/><path fill="none" stroke="#343747" stroke-dasharray="11.111" stroke-miterlimit="10" stroke-width="2.778" d="M1811.562 1074.056c-16.808-26.768-47.026-66.244-90.225-89.781-52.576-28.646-109.236-21.246-133.989-21.064-8.474.121-15.251.544-19.73.907h-.121c-3.812.303-5.931.607-5.931.607l11.256 26.324" class="colorStroke453447 svgStroke"/><path fill="#3282b8" d="M1330.438 1241.847c30.332 104.778-27.402 240.492.743 348.367 131.279 58.466 247.746 14.753 425.22-45.136 14.119-92.373-69.836-200.145-27.042-303.217 4.023-9.69 8.26 9.55 14.072.592 39.097-60.702 12.587-139.923-33.286-195.663-31.349-38.189-75.289-64.394-123.039-77.951a353.123 353.123 0 0 0-19.487-4.721h-.121a280.482 280.482 0 0 0-48.114-5.628c-14.826-.484-29.957.242-44.362 3.51-8.29 1.817-16.4 4.479-24.087 8.293-.485.242-.968.484-1.453.786-27.416 13.98-46.418 40.428-61.67 67.238-31.653 55.861-73.534 122.071-60.581 184.951 1.269 6.173 2.359 12.346 3.207 18.579z" class="color5c75c9 svgShape"/><path fill="#fff" d="M1587.347 963.212v1.513c0 1.392-.061 2.784-.242 4.115-1.15 8.896-6.113 16.461-14.284 22.211-11.983 8.474-30.804 13.193-54.711 13.193-24.449 0-43.635-4.962-55.497-13.797-7.02-5.145-11.498-11.742-13.132-19.368-.364-2.057-.606-4.176-.606-6.354v-5.811c13.859.182 23.24 2.301 26.145 3.087 14.405-3.268 29.535-3.994 44.362-3.511a280.584 280.584 0 0 1 48.114 5.63h.121c4.479-.365 11.257-.787 19.73-.908z" class="colorffffff svgShape"/><path fill="#fdb4b4" d="M1567.354 964.742c0 26.058-98.496 26.058-98.496 0 1.211-1.685 2.369-3.369 3.421-5.106 6.159-9.318 10.74-18.847 14.161-28.48 6.002-16.425 8.529-33.008 9.056-48.853h45.22c.369 12.108 2.001 24.69 5.37 37.323 2 7.424 4.632 14.899 8.055 22.322 3.526 7.686 7.843 15.319 13.213 22.794z" class="colorfdb6b4 svgShape"/><path fill="#f78888" d="M1554.14 941.948c-.422.42-.895.842-1.316 1.263-13.214 12.003-30.901 18.373-48.643 20.478-9.634 1.105-19.583 1-28.585-2.527-1.107-.422-2.212-.947-3.317-1.527 6.159-9.318 10.74-18.847 14.161-28.48 15.373 2.632 31.481.947 46.012-4.739a82.17 82.17 0 0 0 13.634-6.791c1.999 7.425 4.632 14.9 8.054 22.323z" class="colorf7888a svgShape"/><path fill="#141f51" d="M1330.437 1241.848c2.264-6.703 5.01-12.741 7.587-18.771 2.624-5.995 5.175-11.887 7.646-17.809a1023.138 1023.138 0 0 0 7.237-17.957c2.444-6.073 4.761-12.273 7.862-18.637 1.536 6.919 1.468 13.91.603 20.798a79.008 79.008 0 0 1-5.449 20.074 80.648 80.648 0 0 1-10.417 17.984c-4.265 5.465-9.132 10.455-15.069 14.318zM1722.42 1263.737a46.44 46.44 0 0 1-3.823-2.89c-1.233-.999-2.376-2.067-3.5-3.155-2.265-2.162-4.309-4.506-6.286-6.91-3.859-4.876-7.217-10.195-9.812-15.992-2.6-5.776-4.425-12.092-4.872-18.622-.411-6.51.69-13.238 3.902-18.857 1.428 6.332 2.757 11.859 4.678 17.21 1.884 5.338 4.105 10.492 6.435 15.739 2.346 5.234 4.798 10.536 7.131 16.037 2.314 5.521 4.641 11.136 6.147 17.44z" class="color231826 svgShape"/><path fill="#fff" d="M1284.514 2314.884c2.976-4.583 7.287-7.797 12.347-9.768 5.224-2.035 10.895-2.839 16.46-3.207 6.428-.425 12.924-.349 19.359-.17 7.11.198 14.258.691 21.207 2.284 3.361.771 6.67 1.787 9.84 3.148 2.993 1.285 5.823 2.883 8.575 4.618 5.434 3.425 10.527 7.498 16.436 10.112 5.87 2.596 12.194 3.308 18.384 1.406 6.083-1.869 11.364-5.557 16.9-8.574 2.743-1.495 5.587-2.66 8.48-3.823.992-.399 1.979-.811 2.98-1.187.148-.056.297-.111.447-.164.118-.042.701-.19.164-.061.223-.053.492-.081.705-.156.286-.101-.44-.019-.113.01.333.029-.432-.132-.163-.042.329.11-.308-.179-.179-.099.292.181-.168-.251-.123-.12.021.061.124.153.162.208.131.187-.227-.434-.077-.111.104.225.232.442.343.665.796 1.599 1.728 3.108 2.85 4.502.899 1.116 1.894 2.148 2.932 3.135.662.629 1.649.813 2.388.174.639-.553.84-1.755.174-2.388-1.084-1.03-2.121-2.111-3.051-3.284a23.032 23.032 0 0 1-.968-1.315c-.035-.052-.181-.278-.008-.01a20.898 20.898 0 0 1-.554-.909c-.54-.942-.926-2.1-1.679-2.898-1.148-1.216-2.693-.875-4.094-.386-2.278.795-4.527 1.769-6.749 2.706-6.032 2.545-11.321 6.503-17.218 9.312-2.844 1.355-5.909 2.448-9.061 2.751-2.99.288-5.969-.101-8.825-1.006-6.062-1.92-11.495-5.62-16.782-9.056-2.757-1.791-5.541-3.554-8.492-5.014-3.304-1.634-6.794-2.906-10.351-3.866-6.892-1.862-14.073-2.593-21.193-2.802a250.432 250.432 0 0 0-20.156.197c-10.596.545-23.295 2.303-30.413 11.119a17.973 17.973 0 0 0-2.193 3.411c-.424.864.807 1.431 1.309.658zM1069.332 1162.75c-.8 8.932-.951 17.889-.22 26.829a180.398 180.398 0 0 0 4.027 25.899 176.926 176.926 0 0 0 7.981 25.576c2.765 6.946 5.965 13.745 10.342 19.838 4.332 6.031 9.849 11.354 16.581 14.614 5.834 2.825 12.429 3.584 18.789 2.381 5.813-1.1 11.564-3.794 15.592-8.213 4.467-4.901 6.473-11.719 5.033-18.248-1.624-7.36-7.107-13.499-13.879-16.603-6.764-3.101-14.409-3.001-21.073.337-6.684 3.348-11.899 9.465-14.601 16.391-2.93 7.511-2.852 15.477-.199 23.053 5.482 15.656 20.7 25.527 36.622 27.827 17.805 2.571 35.751-3.373 51.563-11.086 16.05-7.829 31.542-16.905 46.624-26.453 14.966-9.474 29.49-19.614 43.339-30.661 3.628-2.894 7.211-5.838 10.806-8.773 2.304-1.881-.672-5.419-2.981-3.534-13.282 10.843-27.371 20.848-41.611 30.389-14.124 9.464-28.726 18.193-43.704 26.234-14.628 7.853-30.235 16.068-47.035 17.658-7.947.752-15.981.196-23.603-2.273-3.449-1.118-6.535-2.557-9.613-4.56-2.735-1.781-4.973-3.684-7.375-6.335-2.287-2.525-4.216-5.308-5.689-8.383-1.443-3.014-2.22-5.544-2.639-8.951-.763-6.204 1.007-12.461 4.507-17.601 1.648-2.419 3.826-4.652 6.26-6.285 2.573-1.726 5.187-2.785 8.061-3.227 2.826-.435 5.737-.16 8.578.877a23.174 23.174 0 0 1 8.16 5.142c4.33 4.202 6.692 10.208 4.927 16.147-1.509 5.079-5.63 8.901-10.289 11.165-5.058 2.459-10.914 3.31-16.468 2.445-6.306-.982-11.98-4.487-16.59-8.785-10.83-10.1-16.656-24.948-21.001-38.768-5.263-16.739-7.773-34.076-8.267-51.592-.116-4.109-.086-8.221.078-12.328.025-.661-.973-.82-1.033-.143zM1773.494 1231.243c2.429 3.271 4.99 6.427 7.623 9.535 2.617 3.089 5.598 5.89 8.59 8.616a155.548 155.548 0 0 0 19.077 14.835c13.406 8.85 28.168 15.601 43.651 19.892 16.373 4.538 35.539 7.618 51.423-.223 6.616-3.266 12.579-8.52 16.055-15.087 3.633-6.862 4.42-14.848 1.823-22.219-2.642-7.496-8.337-13.91-15.515-17.344-7.138-3.414-15.335-3.318-22.726-.789-7.264 2.485-13.677 7.545-17.71 14.086-4.856 7.877-6.388 17.396-4.875 26.482 1.355 8.138 5.286 15.352 11.295 20.993 5.292 4.967 11.779 8.268 18.701 10.291 14.281 4.172 29.911 1.702 42.473-6.106 3.503-2.177 6.728-4.844 9.723-7.668 2.913-2.746 5.725-5.834 7.99-9.139 2.475-3.611 4.561-7.522 6.518-11.432a95.876 95.876 0 0 0 4.792-11.295c3.056-8.742 4.72-17.85 5.53-27.059.844-9.597.891-19.501-.175-29.08-.283-2.542-.561-5.086-.911-7.62-.343-2.475-.881-4.985-1.131-7.469-.112-1.12-.877-2.083-2.083-2.083-1.039 0-2.197.957-2.083 2.083.264 2.625.196 5.325.307 7.964.11 2.624.179 5.248.242 7.872.11 4.58.301 9.156.275 13.738-.052 9.104-.76 18.19-2.645 27.109-1.609 7.614-4.104 15.025-7.786 21.897-2.06 3.845-4.587 7.221-7.336 10.599-.539.663-1.064 1.338-1.609 1.996-.291.351-.581.702-.881 1.045.443-.506-.474.509-.612.659a77.9 77.9 0 0 1-3.95 3.973c-5.195 4.868-11.546 8.784-18.285 11.107a44.65 44.65 0 0 1-2.076.66c-.147.043-.85.237-.245.073.57-.154.014-.005-.087.02-.435.108-.869.218-1.306.318-1.586.362-3.19.642-4.804.842a49.262 49.262 0 0 1-5.88.372c-.224.001-.449-.001-.673-.002.028 0 .826.024.318.001-.841-.038-1.68-.064-2.52-.129-3.234-.249-6.407-.844-9.532-1.703-.807-.222.592.2-.203-.06-.368-.12-.736-.239-1.101-.365a44.29 44.29 0 0 1-2.319-.874 43.127 43.127 0 0 1-4.28-2.03c-5.156-2.804-9.726-7.102-12.686-12.383-3.348-5.973-5.036-12.587-4.279-19.445.426-3.862 1.593-7.717 3.612-11.054 1.686-2.786 3.711-5.012 6.416-7.151 4.859-3.843 11.527-6.287 18.098-5.9 6.856.404 13.096 3.707 17.434 9.013 4.207 5.146 6.396 11.863 5.036 18.464-1.365 6.624-5.695 12.233-11.001 16.251-13.231 10.019-31.386 8.226-46.628 4.998-14.702-3.114-28.897-8.521-42.032-15.812a152.64 152.64 0 0 1-18.889-12.393c-5.973-4.586-11.406-9.714-16.849-14.899-2.746-2.615-5.351-5.368-7.866-8.207-.817-.916-2.151.269-1.433 1.236zM1395.017 987.269a109.221 109.221 0 0 0-30.922 11.446c-9.997 5.532-19.761 12.505-27.533 20.947-4.231 4.596-8.403 9.517-11.487 14.966-.787 1.391 1.229 2.89 2.302 1.662 3.677-4.211 7.099-8.588 11.057-12.554 3.605-3.612 7.306-7.152 11.24-10.405 8.64-7.145 18.283-12.987 28.571-17.429 5.596-2.416 11.254-4.557 17.134-6.186 1.493-.413 1.234-2.776-.362-2.447zM1647.378 999.112c15.371-.531 29.242 7.17 40.395 17.111 5.788 5.159 11.024 10.909 16.319 16.562 5.847 6.243 11.775 12.411 17.668 18.61 3.258 3.427 6.505 6.866 9.775 10.281 3.766 3.934 7.792 7.64 11.765 11.368.953.894 2.552-.564 1.701-1.582-11.389-13.617-24.008-26.189-36.255-39.033-10.855-11.383-22.054-23.675-36.549-30.422-3.925-1.827-8.011-3.232-12.26-4.077-4.116-.819-8.485-.674-12.609.02-.634.107-.629 1.185.05 1.162z" class="colorffffff svgShape"/><path fill="#141f51" d="M1596.163 1390.041c10.253 1.095 19.918 7.175 30.161 5.981 16.038-1.87 24.656-20.286 25.662-36.402 1.566-25.065-7.613-49.356-13.646-73.734a300.224 300.224 0 0 1-7.849-95.483c1.282-16.288 3.88-32.853.359-48.808-3.521-15.955-15.059-31.544-31.24-33.81-14.764-2.068-29.175 7.635-37.15 20.23-7.976 12.595-10.839 27.659-13.547 42.319l-13.03 70.523c-1.917 10.377-4.282 21.572-12.217 28.528-7.935 6.956-23.262 5.808-26.234-4.317-1.565-5.333.691-11.393-1.546-16.48-3.615-8.22-16.827-7.353-22.418-.326-5.591 7.026-5.523 16.908-4.532 25.833.99 8.925 2.581 18.289-.744 26.63-3.325 8.341-13.935 14.51-21.491 9.659-7.016-4.504-9.575-16.667-17.889-16.038-5.377.406-8.391 6.455-9.19 11.787-3.883 25.916 18.021 47.84 26.802 72.531 6.156 17.31 5.762 36.146 5.934 54.517.172 18.372 1.159 37.433 9.655 53.723 8.496 16.29 26.545 28.999 44.603 25.617 18.871-3.534 30.785-22.423 36.783-40.662 8.235-25.043 15.069-85.844 52.764-81.818z" class="color231826 svgShape" opacity=".2"/><path fill="#141f51" d="M1488.576 1168.895c.503 7.271 2.021 14.766 6.424 20.576 4.402 5.809 12.289 9.454 19.19 7.109 9.027-3.067 12.324-14.112 12.799-23.634.626-12.523.679-39.031-16.126-41.168-18.823-2.393-23.206 23.847-22.287 37.117zM1384.355 1442.784c2.091 6.919 6.595 14.377 13.795 15.015 7.359.652 13.106-6.136 16.675-12.605 7.984-14.472 15.51-54.029-10.985-56.165-24.567-1.981-23.965 38.933-19.485 53.755z" class="color231826 svgShape" opacity=".2"/><path fill="#343747" d="M1686.706 1979.819c2.657-5.199 7.369-9.468 12.901-11.422 5.773-2.039 12.23-1.671 17.722 1.067a24.201 24.201 0 0 1 4.178 2.618c1.789 1.406 3.184 3.203 4.969 4.601.413.323 1.115.168 1.462-.172.412-.404.413-.953.206-1.454-.763-1.847-2.278-3.202-3.793-4.448a25.477 25.477 0 0 0-4.353-2.878 26.803 26.803 0 0 0-9.98-2.936c-6.488-.602-13.142 1.685-18.148 5.799-2.767 2.274-5.074 5.114-6.643 8.338-.483.989.97 1.881 1.479.887z" class="color453447 svgShape"/><path fill="#343747" d="M1690.856 1991.152c1.697-4.209 4.984-7.428 9.089-9.296 3.968-1.806 8.485-2.035 12.625-.703 1.077.346 2.108.81 3.097 1.358.553.307 1.087.641 1.598 1.014.318.232.629.515.983.69.571.283 1.225.465 1.837.635.571.158 1.02-.545.827-1.032-.392-.988-.839-1.828-1.715-2.449a22.738 22.738 0 0 0-1.67-1.079c-1.065-.622-2.192-1.114-3.351-1.534a19.42 19.42 0 0 0-7.171-1.155c-2.662.083-5.185.661-7.578 1.842-2.199 1.086-4.138 2.662-5.765 4.487-1.783 1.999-3.182 4.268-4.042 6.812-.27.8.925 1.183 1.236.41zM1380.029 1987c10.202-7.313 24.18-8.971 35.945-4.787a34.676 34.676 0 0 1 4.439 1.911c.766.4 1.517.827 2.252 1.281.923.57 2.013 1.209 3.067 1.47.903.223 1.257-.931.875-1.544-.588-.942-1.677-1.713-2.624-2.282a39.513 39.513 0 0 0-6.393-3.072 38.87 38.87 0 0 0-9.314-2.184c-6.669-.719-13.538.044-19.734 2.692-3.292 1.407-6.402 3.266-9.148 5.567-.549.462.027 1.384.635.948zM1385.854 2000.4c3.483-3.04 7.839-5.205 12.359-6.166 4.129-.878 8.515-1.057 12.598-.147 1.147.256 2.28.581 3.387.978a44.6 44.6 0 0 1 1.656.624c.239.097.477.198.713.302.593.262.969.31 1.628.149.616-.151 1.056-.943.825-1.543-.544-1.41-2.795-2.101-4.117-2.547a26.674 26.674 0 0 0-3.13-.845 32.097 32.097 0 0 0-7.036-.66c-4.72.069-9.436 1.381-13.573 3.651a26.334 26.334 0 0 0-6.459 4.964c-.748.785.322 1.962 1.149 1.24z" class="color453447 svgShape"/><path fill="#fdb4b4" d="M1421.955 830.937c-5.003 32.415-.549 71.805 24.507 92.97 37.642 31.797 93.748 13.034 109.086 1.514 15.338-11.52 24.033-32.084 19.509-50.725 7.594 4.668 17.888 2.979 24.531-2.965 6.643-5.944 9.594-15.31 9.04-24.207-.436-7.002-3.12-14.187-8.665-18.485-5.72-4.434-14.129-5.051-20.435-1.5-6.306 3.552-10.137 11.063-9.311 18.253-4.679.205-10.655-2.367-15.334-2.162-7.306-1.68-13.595.612-20.512-2.28-12.525-5.237-23.399-14.484-30.262-26.197-6.863-11.714-9.612-25.852-7.274-39.226-26.923 1.727-70.765 28.347-74.88 55.01z" class="colorfdb6b4 svgShape"/><path fill="#f78888" d="M1448.416 875.041c1.682.78 3.058 2.274 3.949 4.032a10.645 10.645 0 0 1 1.037 5.913c-.141 2.072-1.324 4.215-2.349 5.63-1.041 1.488-1.719 2.638-1.696 3.665-.044 1.092.481 2.36 1.346 3.233.834.865 2.148 1.432 3.585 1.57 2.913.341 6.075-1.308 8.596-3.952-.502 1.777-1.539 3.428-2.984 4.78a9.411 9.411 0 0 1-5.573 2.448c-2.118.188-4.451-.372-6.28-1.919-1.771-1.525-2.897-3.781-2.854-6.272.025-1.245.439-2.501.974-3.455.546-.971 1.157-1.755 1.718-2.444 1.147-1.392 1.887-2.398 2.309-3.889.837-2.872.419-6.408-1.778-9.34z" class="colorf7888a svgShape"/><path fill="#ddd" d="M1586.849 825.354c-2.579.215-5.05.913-7.307 2.204-5.532 3.115-9.187 9.348-9.402 15.633l-18.319 3.493-63.769 12.088v-48.997l13.806 1.128 81.338 6.823c1.504 2.579 2.74 5.157 3.653 7.628z" class="colordddddd svgShape"/><path fill="#141f51" d="m1513.058 808.66 2.668 48.908c.567 10.39-6.999 19.448-17.324 20.74l-75.767 8.746c-9.968 1.248-19.035-5.888-20.165-15.871l-5.963-52.703c-1.115-9.856 5.936-18.763 15.785-19.94l78.631-8.478c11.364-1.354 21.511 7.171 22.135 18.598z" class="color231826 svgShape"/><path fill="#f05454" d="m1488.924 826.271 1.006 18.442c.572 10.487-7.137 19.598-17.574 20.77l-69.812 6.712-6.576-58.12 71.041-6.424c11.292-1.222 21.297 7.279 21.915 18.62z" class="colore55d5d svgShape"/><path fill="none" stroke="#f78888" stroke-linecap="round" stroke-linejoin="round" stroke-miterlimit="10" stroke-width="4.167" d="M1480.184 920.902c8.249 4.539 18.713 4.792 27.172.657s14.687-12.547 16.172-21.845M1582.041 843.377c-.094-3.943 4.225-7.027 8.133-6.496 3.908.531 7.014 3.835 8.339 7.549 1.858 5.211.596 11.405-3.152 15.473-3.748 4.069-9.818 5.833-15.164 4.407" class="colorStrokef7888a svgStroke"/><path fill="#fff" d="M1055.428 951.313c3.556-10.82 17.239-15.437 27.403-11.797 12.111 4.337 19.257 16.539 22.238 28.43 1.008 4.021 1.652 8.124 2.086 12.244.474 4.5.997 8.987 1.525 13.482.179 1.527 2.333 1.254 2.332-.23-.001-4.44.06-8.827-.406-13.249-.425-4.036-1.009-8.063-1.932-12.017-1.671-7.162-4.498-14.052-9.019-19.896-4.034-5.215-9.474-9.59-15.785-11.676-5.715-1.889-11.966-1.726-17.563.52-6.015 2.413-11.025 7.17-12.667 13.577-.295 1.16 1.403 1.784 1.788.612zM1903.759 1027.723c.833-2.392 1.149-4.952 1.608-7.439.443-2.404.831-4.816 1.225-7.228l2.347-14.355c1.558-9.533 3.076-19.072 4.605-28.61 2.044-12.751 3.505-34.689 21.319-33.89 4.611.207 8.956 1.906 12.841 4.331 1.988 1.241 3.861 2.648 5.687 4.113 1.83 1.468 3.57 3.13 5.578 4.346 1.189.72 2.654-.687 1.712-1.844-1.507-1.851-3.382-3.408-5.22-4.927a56.8 56.8 0 0 0-5.494-4.041c-3.668-2.353-7.644-4.141-11.957-4.885-4.091-.706-8.453-.379-12.253 1.368-3.305 1.519-6.041 4.092-8.009 7.128-4.128 6.37-5.266 14.142-6.456 21.485-1.643 10.128-3.311 20.252-4.925 30.385-.888 5.575-1.773 11.15-2.66 16.725-.454 2.859-.947 5.715-1.341 8.582-.384 2.791-.96 5.62-.915 8.442.019 1.207 1.926 1.409 2.308.314zM1710.131 1367.971c3.134 13.067 6.283 26.13 9.411 39.198 1.533 6.405 3.103 12.801 4.661 19.199 1.387 5.697 2.896 11.379 4.088 17.121 1.842 8.878 3.105 18.65.197 27.443-1.313 3.969-3.707 7.572-7.075 10.082-3.828 2.853-8.49 4.092-13.116 4.945-9.148 1.686-19.43 2.319-25.968 9.847-5.535 6.374-6.761 15.043-7.812 23.118-1.039 7.989-1.7 16.992-6.885 23.564-6.013 7.621-16.612 8.521-25.547 7.034-12.474-2.075-23.942-8.699-36.751-8.938-9.612-.179-20.429 4.728-24.285 14.052-1.044 2.523-1.311 4.793-.76 7.495.306 1.5 2.553 1.156 2.828-.172 1-4.832 3.463-8.936 7.577-11.707 3.849-2.592 8.549-4.239 13.184-4.535 12.643-.806 24.165 5.61 36.354 7.693 9.544 1.631 20.686 1.126 28.082-5.947 6.236-5.963 8.059-14.561 9.12-22.796 1.02-7.927 1.225-16.767 5.395-23.833 2.159-3.659 5.374-6.329 9.276-7.981 4.35-1.843 9.107-2.483 13.729-3.283 4.842-.838 9.742-1.806 14.126-4.119a22.674 22.674 0 0 0 9.372-9.294c4.327-8.026 4.013-17.84 2.738-26.597-.712-4.889-1.875-9.677-3.068-14.466l-4.751-19.08c-3.244-13.027-6.55-26.039-9.837-39.055l-2.373-9.39c-.306-1.217-2.204-.824-1.91.402zM1345.57 1441.289c-3.342 12.254-6.617 24.55-9.121 37.008-2.486 12.37-3.601 25.056-2.826 37.667 1.19 19.377 7.752 38.531 20.496 53.392a66.482 66.482 0 0 0 11.373 10.498c2.01 1.463 4.147 2.806 6.37 3.922 2.577 1.294 5.471 2.176 8.236 2.973 1.69.487 2.317-1.882.778-2.554-2.52-1.1-4.77-2.59-7.125-3.983a80.249 80.249 0 0 1-5.635-3.647c-3.567-2.533-6.823-5.528-9.764-8.761-5.928-6.514-10.597-14.24-13.949-22.371-3.575-8.67-5.819-17.83-6.736-27.159-1.156-11.755-.29-23.464 1.063-35.159 1.623-14.037 4.737-27.813 7.909-41.565.137-.607-.904-.867-1.069-.261zM1632.298 1689.538c6.685 15.171 11.975 31.106 15.48 47.313 3.482 16.105 5.147 32.63 5.081 49.105a216.11 216.11 0 0 1-.528 14.352c-.169 2.391-.322 4.783-.529 7.172-.206 2.375-.59 4.762-.557 7.145.017 1.189 1.718 1.405 2.049.264 1.15-3.959 1.389-8.346 1.785-12.44.402-4.146.579-8.328.691-12.491.228-8.442-.013-16.898-.789-25.308-1.542-16.709-4.945-33.269-10.169-49.217-3-9.158-6.806-17.965-11.124-26.575-.39-.781-1.744-.125-1.39.68zM1693.525 2102.268c-2.588 6.816-4.853 13.824-6.806 20.847-1.964 7.062-2.944 14.513-3.637 21.795-1.301 13.665-.697 27.453 1.618 40.979a126.054 126.054 0 0 0 2.375 10.85c.363 1.379.734 2.756 1.124 4.127.423 1.485 1.068 2.887 1.581 4.344.646 1.835 1.165 3.852 2.546 5.272.846.869 3.168.536 3.427-.82.284-1.489.052-2.491-.351-3.9a83.586 83.586 0 0 1-.699-2.61c-.569-2.258-1.083-4.526-1.639-6.79-.791-3.217-1.466-6.46-2.111-9.709a156.36 156.36 0 0 1-2.61-19.613c-.936-13.516-.271-27.055 2.055-40.401.743-4.264 1.355-8.522 2.36-12.739.88-3.692 2.135-7.327 3.403-10.901.591-1.666-2.018-2.359-2.636-.731zM1458.113 1764.321c.987 9.866 1.453 19.746 1.755 29.654.296 9.738.379 19.487.043 29.225a373.128 373.128 0 0 1-6.261 56.407c-.991 5.242-2.174 10.438-3.302 15.651a408.722 408.722 0 0 1-1.658 7.333c-.728 3.083-1.857 6.182-1.918 9.359-.022 1.126 1.298 1.835 2.262 1.613a1.76 1.76 0 0 0 1.134-.799 1.41 1.41 0 0 0 .28-.677c.056-.33.026-.652-.09-.966l.16.396c.117.588.276.532.474-.168.132-.305.215-.663.314-.978.242-.765.471-1.534.7-2.303a322.249 322.249 0 0 0 3.018-10.836c1.196-4.606 2.176-9.271 3.104-13.938a359.043 359.043 0 0 0 4.403-27.805c2.255-19.035 3.003-38.507 1.779-57.645-.725-11.331-2.299-22.541-4.205-33.73-.191-1.114-2.107-.94-1.992.207zM1424.524 2104.598c-.261 11.913-1.177 23.786-1.489 35.697-.294 11.244-.316 22.495-.476 33.741-.283 19.908.294 41.043-7.463 59.665-1.761 4.227-4.025 8.534-6.544 12.078-1.636 2.301-3.274 4.53-5.228 6.573a46.748 46.748 0 0 1-2.441 2.375c-.422.382-.854.751-1.287 1.121-.902.77-1.521 1.621-2.201 2.602-1.219 1.76.991 4.24 2.9 3.534 1.742-.644 2.868-1.335 4.249-2.5a51.708 51.708 0 0 0 2.69-2.437c1.668-1.62 3.197-3.372 4.719-5.128 2.944-3.398 5.259-7.586 7.211-11.617 4.239-8.751 6.685-18.31 7.866-27.935 1.351-11.008 1.39-22.076 1.398-33.149.008-11.595.183-23.197.077-34.791-.062-6.738-.158-13.462-.437-20.193-.275-6.64-.511-13.249-.562-19.896-.013-1.946-2.94-1.637-2.982.26zM1517.852 760.609c1.897-16.487 16.7-29.868 33.454-29.006 8.063.415 16.013 3.859 21.767 9.544 5.94 5.868 8.998 13.861 9.693 22.084.193 2.29.201 4.583.054 6.876-.225 3.514-.541 7.043-1.278 10.488a68.028 68.028 0 0 1-1.859 6.878c-.754 2.31-1.784 4.536-2.434 6.874-.217.781.231 1.621 1.088 1.694.318.027.667-.082.914-.284.476-.391.228-.778.444-1.198l.298.21c.132-.183.253-.372.363-.569.137-.238.257-.484.377-.731a67.178 67.178 0 0 0 2.211-5.028 71.656 71.656 0 0 0 2.804-8.703c.606-2.404 1.223-4.867 1.458-7.335.233-2.447.293-4.905.213-7.361-.297-9.14-3.295-18.393-9.429-25.306-6.078-6.85-14.681-10.968-23.727-12.009-8.753-1.007-17.697 1.443-24.721 6.759-8.075 6.112-13.706 15.455-14.64 25.609-.175 1.894 2.728 2.447 2.95.514zM1611.557 882.341c-2.076 8.159-5.427 15.942-10.113 22.943-2.272 3.395-4.548 6.738-7.198 9.857-2.639 3.105-5.268 6.194-8.045 9.17-.919.985.517 2.436 1.582 1.701 14.139-9.758 22.117-26.894 24.979-43.438.118-.689-1.033-.911-1.205-.233zM1406.215 766.051c-.266-4.707.006-9.283.611-13.951.601-4.642 1.325-9.236 2.565-13.756 2.203-8.023 5.706-15.827 10.574-22.593 8.694-12.085 22.432-21.281 37.849-19.379 3.973.49 7.898 1.651 11.462 3.483 1.75.9 3.451 1.986 4.97 3.238 1.859 1.531 3.756 3.053 5.563 4.647.978.863 2.385-.495 1.886-1.565-1.015-2.175-2.288-4.154-4.159-5.684-1.443-1.18-2.955-2.259-4.584-3.17a35.193 35.193 0 0 0-10.778-3.887c-7.896-1.467-16.311-.46-23.656 2.777-15.426 6.798-25.787 21.789-30.767 37.454-1.638 5.152-2.851 10.596-3.253 15.996-.402 5.407.105 11.064.934 16.412.076.479.812.494.783-.022z" class="colorffffff svgShape"/><path fill="#f05454" d="M1417.81 639.394c0 36.889-29.894 66.817-66.817 66.817-36.888 0-66.782-29.929-66.782-66.817 0-36.887 29.894-66.816 66.782-66.816 36.923 0 66.817 29.928 66.817 66.816z" class="colore55d5d svgShape"/><path fill="snow" d="m1335.203 666.899-21.047-28.263 8.249-6.14 14.308 19.21 44.276-39.816 6.876 7.646z" class="colorfbfaff svgShape"/><path fill="#f05454" d="M2329.269 1218.777c0 36.889-29.894 66.818-66.817 66.818-36.888 0-66.782-29.929-66.782-66.818 0-36.887 29.894-66.816 66.782-66.816 36.923.001 66.817 29.929 66.817 66.816z" class="colore55d5d svgShape"/><path fill="snow" d="m2246.662 1246.283-21.047-28.263 8.249-6.14 14.307 19.21 44.277-39.816 6.876 7.646z" class="colorfbfaff svgShape"/><path fill="#e9bebe" d="M2750 1040.775c0 97.038-78.602 175.638-175.64 175.638-96.954 0-175.556-78.6-175.556-175.638 0-96.956 78.602-175.558 175.556-175.558 97.038 0 175.64 78.602 175.64 175.558z" class="colorbec8e9 svgShape"/><path fill="none" stroke="#343747" stroke-dasharray="11.111" stroke-miterlimit="10" stroke-width="2.778" d="M2685.002 1177.136c39.646-32.187 64.998-81.282 64.998-136.36 0-96.35-77.632-174.538-173.832-175.512" class="colorStroke453447 svgStroke"/><path fill="#fff" d="M2677.5 947.117v187.352c0 15.085-12.21 27.295-27.252 27.295h-151.695c-15.041 0-27.251-12.21-27.251-27.295V947.117c0-15.041 12.21-27.251 27.251-27.251h151.695c15.043 0 27.252 12.21 27.252 27.251z" class="colorffffff svgShape"/><path fill="#e9bebe" d="M2512.733 957.624h123.337v5.794h-123.337zM2512.733 987.718h123.337v5.794h-123.337zM2512.733 1017.812h123.337v5.794h-123.337zM2512.733 1047.906h123.337v5.794h-123.337zM2512.733 1078h123.337v5.794h-123.337zM2512.733 1108.093h123.337v5.794h-123.337z" class="colorbec8e9 svgShape"/><path fill="#f05454" d="m2666.242 1161.495-132.065.269v-38.47l132.065-.269c5.165 0 9.361 4.196 9.361 9.361v19.749c0 5.164-4.196 9.36-9.361 9.36z" class="colore55d5d svgShape"/><path fill="#ddd" d="M2639.683 1161.495h26.559c5.165 0 9.361-4.196 9.361-9.361v-19.763c0-5.165-4.196-9.346-9.361-9.346h-26.559v38.47z" class="colordddddd svgShape"/><path fill="#343747" d="M2649.006 1161.495h17.236c5.165 0 9.361-4.196 9.361-9.361v-19.763c0-5.165-4.196-9.346-9.361-9.346h-17.236v38.47z" class="color453447 svgShape"/><path fill="#fdb4b4" d="m2534.177 1161.764-34.01-16.741c-2.054-1.027-2.054-3.961 0-4.989l34.01-16.741v38.471z" class="colorfdb6b4 svgShape"/><path fill="#343747" d="m2510.58 1134.909-10.413 5.126c-2.054 1.027-2.054 3.962 0 4.989l10.413 5.126v-15.241z" class="color453447 svgShape"/><path fill="#ac4646" d="m2612.108 1146.141-50.356.269c-2.142 0-3.873-1.746-3.873-3.888a3.879 3.879 0 0 1 3.873-3.874l50.356-.269a3.88 3.88 0 0 1 2.744 6.618 3.876 3.876 0 0 1-2.744 1.144z" class="colorac4646 svgShape"/><path fill="#e9bebe" d="m1165.844 596.33 111.1 671.883H387.52L276.419 596.33z" class="colorbec8e9 svgShape" opacity=".8"/><path fill="none" stroke="#343747" stroke-dasharray="11.111" stroke-miterlimit="10" stroke-width="2.778" d="M611.553 596.33H276.419l99.711 602.997" class="colorStroke453447 svgStroke"/><path fill="#343747" d="M736.933 955.328H411.51l-51.188-309.564h15.706l48.591 293.858h309.717z" class="color453447 svgShape"/><path fill="#fff" d="m504.032 915.76-16.257-98.312h-56.394l16.257 98.312z" class="colorffffff svgShape"/><path fill="#e9bebe" d="m575.769 915.76-25.72-155.543H493.66l25.72 155.543z" class="colorbec8e9 svgShape"/><path fill="#fff" d="m647.507 915.76-35.183-212.77H555.93l35.183 212.77z" class="colorffffff svgShape"/><path fill="#e9bebe" d="m719.245 915.76-44.646-269.996h-56.394l44.646 269.996z" class="colorbec8e9 svgShape"/><path fill="#fff" d="m1162.459 1033.827 2.311 13.976H426.855l-2.311-13.976zM1171.883 1090.818l2.311 13.977H436.279l-2.311-13.977zM1181.307 1147.81l2.311 13.977H445.703l-2.311-13.977zM1190.731 1204.802l2.311 13.976H455.127l-2.311-13.976z" class="colorffffff svgShape"/><path fill="#ff5e5e" d="M1118.16 765.926c-10.969-66.337-73.7-120.162-140.037-120.162-.034 0-.067.005-.096.005l19.869 120.158h120.264z" class="colorffd05e svgShape"/><path fill="#343747" d="M964.867 661.536c-66.483.053-111.364 53.855-100.4 120.158 10.97 66.341 73.696 120.167 140.237 120.167 33.144 0 60.939-13.437 79.095-35.161l-99.062-85.006-19.87-120.158z" class="color453447 svgShape"/><path fill="#f05454" d="M1105 781.693H984.736l99.062 85.006c18.18-21.753 26.691-51.808 21.202-85.006z" class="colore55d5d svgShape"/><path fill="#e9bebe" d="m1838.995 1358.328-88.698 536.405h710.082l88.698-536.405z" class="colorbec8e9 svgShape" opacity=".8"/><path fill="none" stroke="#343747" stroke-dasharray="11.111" stroke-miterlimit="10" stroke-width="2.778" d="M2281.52 1358.327h267.557l-79.605 481.41" class="colorStroke453447 svgStroke"/><path fill="#fff" d="m2007.362 1446.07-18.97 120.191H1866.73l18.969-120.191zM2477.046 1446.67l-1.905 12.07h-397.308l1.906-12.07zM2469.561 1494.095l-1.905 12.071h-397.308l1.905-12.071zM2462.076 1541.521l-1.905 12.071h-397.308l1.905-12.071zM2449.68 1620.06l-1.905 12.07h-591.441l1.905-12.07zM2438.452 1691.198l-1.905 12.071h-591.441l1.905-12.071zM2427.225 1762.337l-1.905 12.071h-591.442l1.905-12.071z" class="colorffffff svgShape"/><path fill="#e9bebe" d="m1313.662 1507.629 65.616 309.332c8.009 37.756-18.69 68.308-59.606 68.308H687.548c-40.915 0-80.574-30.552-88.583-68.308l-65.616-309.332c-8.009-37.756 18.688-68.309 59.603-68.309h632.124c40.916-.001 80.577 30.552 88.586 68.309z" class="colorbec8e9 svgShape" opacity=".8"/><path fill="none" stroke="#343747" stroke-dasharray="11.111" stroke-miterlimit="10" stroke-width="2.778" d="M1205.211 1439.319H592.952c-40.916 0-67.612 30.553-59.603 68.31l63.675 300.182" class="colorStroke453447 svgStroke"/><path fill="#3282b8" d="m877.438 1513.873 62.963 296.825H660.963L598 1513.873z" class="color5c75c9 svgShape"/><path fill="#fff" d="M828.807 1629.492c7.199 33.937-16.849 61.314-53.576 61.314-36.855 0-72.393-27.377-79.592-61.314-7.174-33.822 16.724-61.314 53.579-61.314 36.727 0 72.415 27.493 79.589 61.314zM940.366 1810.715c-19.359-67.126-90.91-119.908-165.141-119.908-73.972 0-123.357 52.783-114.258 119.908h279.399z" class="colorffffff svgShape"/><path fill="#f6e5e5" d="M1253.31 1521.646H948.934l-3.299-15.552h304.376zM1268.433 1592.942H964.057l-3.299-15.551h304.377zM1283.556 1664.232H979.179l-3.298-15.552h304.376zM1298.678 1735.521H994.302l-3.299-15.552h304.376zM1313.801 1806.818h-304.376l-3.299-15.552h304.376z" class="colore5e9f6 svgShape"/><path fill="#3282b8" d="M594.895 1445.4c9.836 41.393-15.728 74.976-57.158 74.976-41.392 0-82.917-33.583-92.753-74.976-9.836-41.391 15.728-74.974 57.12-74.974 41.431 0 82.956 33.583 92.791 74.974z" class="color5c75c9 svgShape"/><path fill="snow" d="m509.536 1476.264-31.152-31.714 7.619-6.89 21.176 21.556 39.065-44.678 9.755 8.58z" class="colorfbfaff svgShape"/></svg>